<?xml version="1.0" encoding="UTF-8"?>
<svg width="22px" height="22px" viewBox="0 0 22 22" version="1.1" xmlns="http://www.w3.org/2000/svg" xmlns:xlink="http://www.w3.org/1999/xlink">
    <!-- Generator: sketchtool 54.1 (76490) - https://sketchapp.com -->
    <title>0A4A0817-437F-4FE6-B19C-47BA0CE75154</title>
    <desc>Created with sketchtool.</desc>
    <defs>
        <polygon id="path-1" points="0 0 8 0 8 12 0 12"></polygon>
    </defs>
    <g id="Page-1" stroke="none" stroke-width="1" fill="none" fill-rule="evenodd">
        <g id="09_Resultado_V2" transform="translate(-71.000000, -224.000000)">
            <g id="Group-2-Copy" transform="translate(72.000000, 225.000000)">
                <g id="Group" stroke="#FFFFFF" stroke-linecap="round" stroke-linejoin="round" stroke-width="2">
                    <g id="minus-circle-copy">
                        <circle id="Oval" cx="10" cy="10" r="10"></circle>
                    </g>
                </g>
                <g id="Group-3" transform="translate(6.000000, 4.000000)">
                    <mask id="mask-2" fill="white">
                        <use xlink:href="#path-1"></use>
                    </mask>
                    <g id="Clip-2"></g>
                    <path d="M3.98819814,0.00036210648 C4.44205159,-0.00808704472 4.8122784,0.338569559 4.80344505,0.763441162 L4.80344505,1.50895805 L5.1984955,1.50895805 C6.73517531,1.50895805 7.99563576,2.68882167 7.99563576,4.12704825 C8.09995951,5.21439366 6.29834379,5.21439366 6.40266754,4.12704825 C6.40266754,3.49209454 5.87685778,3.00578554 5.1984955,3.00578554 L2.80124145,3.00578554 C2.12294364,3.00578554 1.60338816,3.49209454 1.60338816,4.12704825 C1.60338816,4.76188126 2.12294364,5.24969904 2.80124145,5.24969904 C3.64588987,5.24969904 4.51265388,5.22706739 5.34537405,5.26388155 C6.03824366,5.29870412 6.66225185,5.57643979 7.13357856,6.00064753 L7.12745325,6.00064753 C7.65790535,6.47548983 7.99582919,7.13609275 7.99582919,7.87316049 C7.99582919,9.31144743 6.73530427,10.491311 5.19868893,10.491311 L4.79738422,10.491311 L4.79738422,11.2368279 C4.80641099,11.6507156 4.45410878,11.9923631 4.01179672,11.9998466 C3.55787879,12.0083561 3.18765198,11.6616392 3.19654981,11.2368279 L3.19654981,10.49113 L2.80143488,10.49113 C1.26481954,10.49113 0.00435910047,9.31126637 0.00435910047,7.87297944 C-0.099900173,6.78569438 1.70165107,6.78569438 1.59732732,7.87297944 C1.59732732,8.50793315 2.12313708,8.9941818 2.80143488,8.9941818 L5.19881788,8.9941818 C5.87718017,8.9941818 6.39667118,8.50793315 6.39667118,7.87297944 C6.39667118,7.23814643 5.87718017,6.75032865 5.19881788,6.75032865 C4.35423395,6.75032865 3.48740545,6.77289995 2.65468528,6.73608579 C1.96181568,6.70132357 1.33787196,6.4235879 0.866545251,5.99931981 L0.872606086,5.99931981 C0.342153988,5.52441716 0.00429462349,4.86387459 0.00429462349,4.1267465 C0.00429462349,2.68845956 1.26475507,1.50859595 2.80137041,1.50859595 L3.2027396,1.50859595 L3.2027396,0.763079055 C3.19371282,0.349130998 3.54601503,0.00742318284 3.9883271,0 L3.98819814,0.00036210648 Z" id="Fill-1" fill="#FFFFFF" mask="url(#mask-2)"></path>
                </g>
            </g>
        </g>
    </g>
</svg>