<?xml version="1.0" encoding="UTF-8"?>
<svg width="83px" height="131px" viewBox="0 0 83 131" version="1.1" xmlns="http://www.w3.org/2000/svg" xmlns:xlink="http://www.w3.org/1999/xlink">
    <!-- Generator: sketchtool 54.1 (76490) - https://sketchapp.com -->
    <title>B1B7DE27-1844-4BC2-B241-F0F4AF7B479D</title>
    <desc>Created with sketchtool.</desc>
    <g id="Page-1" stroke="none" stroke-width="1" fill="none" fill-rule="evenodd">
        <g id="09_Resultado_V2" transform="translate(-102.000000, -425.000000)">
            <g id="Dinheiro" transform="translate(102.000000, 425.000000)">
                <path d="M29.3645424,56.9404108 L16.0860738,39.8043192 C16.0860738,39.8043192 16.3905092,36.6975282 24.9624797,36.9970446 C33.5350627,37.2968685 45.9480037,34.9696197 53.973583,34.7863427 C63.2542694,34.5747746 72.4602251,36.3226714 72.4602251,36.3226714 L58.5832989,56.9404108 L29.3645424,56.9404108" id="Fill-4" fill="#B6B7B5"></path>
                <path d="M72.2237823,14.6953709 C63.8484391,29.1681033 55.693,43.8124272 51.1276937,59.2891854 C43.6941402,57.0778685 36.2722251,54.8659366 28.7764982,52.6463169 C32.6275756,37.0108826 33.8024391,21.1752582 37.1221328,4.5484061 C49.3846937,6.50141315 60.8831033,9.97014554 72.2237823,14.6953709" id="Fill-5" fill="#85BF43"></path>
                <path d="M72.2237823,14.6953709 L70.9567306,13.9561127 C62.5755683,28.4439131 54.3542804,43.1792606 49.7222066,58.8715845 L51.1276937,59.2891854 L51.5439188,57.8786291 C44.1106716,55.6670047 36.6881439,53.4550728 29.1911919,51.2351455 L28.7764982,52.6463169 L30.1991365,52.9996479 C32.1439705,45.103054 33.4061218,37.1883169 34.5978303,29.1868615 C35.7892325,21.1847911 36.9101919,13.0953873 38.5588598,4.83777465 L37.1221328,4.5484061 L36.892428,6.00170657 C49.029417,7.93503286 60.4102177,11.3665563 71.6620775,16.0545728 L72.2237823,14.6953709 L70.9567306,13.9561127 L72.2237823,14.6953709 L72.7854871,13.336169 C61.3559889,8.57373474 49.7399705,5.06779343 37.3518376,3.09510563 L35.9616642,2.87400469 L35.6850996,4.25934507 C34.0143801,12.628277 32.8879077,20.7702653 31.699262,28.7514249 C30.5109225,36.733507 29.2601033,44.5541455 27.3538598,52.2932934 L27.0169594,53.6595681 L28.3618044,54.0577958 C35.856,56.2768005 43.2773026,58.4884249 50.7111624,60.7000493 L52.1163432,61.1182653 L52.5325683,59.7070939 C57.0314133,44.4459014 65.12131,29.8926009 73.4911402,15.4346291 L74.3321661,13.9807136 L72.7854871,13.336169 L72.2237823,14.6953709" id="Fill-6" fill="#165E34"></path>
                <path d="M49.8140886,23.4296268 C56.4632768,25.3420423 59.8423875,31.0405423 57.5634096,35.7802207 C55.267893,40.5445 49.4251218,43.178338 44.1428303,41.6463146 C38.8871845,40.0973779 35.1537159,34.7728122 35.9494133,29.6539718 C36.7634871,24.5597324 43.16,21.5587254 49.8140886,23.4296268" id="Fill-7" fill="#165E34"></path>
                <path d="M28.7764982,52.6463169 C30.7715609,53.2373545 32.7568229,53.8256244 34.739941,54.4160469 C35.6777491,51.1256714 33.6367454,47.6474061 30.1602399,46.6519906 C29.7461587,48.6578897 29.2904244,50.6564085 28.7764982,52.6463169" id="Fill-8" fill="#165E34"></path>
                <path d="M44.5412915,29.8486268 C43.688321,29.6779577 43.0984391,30.2136432 42.7783838,31.44123 C42.452203,32.6768122 42.6751697,33.3970047 43.4307454,33.6079577 C43.8944428,33.7349601 44.2852472,33.6334812 44.6022399,33.2955258 C44.9281144,32.958493 45.3930369,32.2312277 46.0227343,31.1109624 C46.6496753,29.9916197 47.3798303,29.2403685 48.216262,28.8664343 C49.0490185,28.4940376 50.0055092,28.4586737 51.0646015,28.7698756 C52.2955129,29.1330469 53.0841661,29.8652324 53.4017712,30.9436761 C53.7251956,32.0211972 53.6464834,33.1211667 53.2054502,34.2506573 C52.1350258,36.9727512 50.3650738,38.1643592 47.8726236,37.859615 C48.0520996,37.0754601 48.2343321,36.2928427 48.4156458,35.5093028 C49.747321,35.7134906 50.6701218,35.0910869 51.2051808,33.6350188 C51.7068561,32.2708967 51.3984391,31.4160141 50.267679,31.0845164 C49.7687601,30.9390634 49.3405904,30.9971831 48.9856199,31.2634883 C48.6321808,31.5279484 48.1035535,32.239223 47.4309779,33.3970047 C46.7565646,34.5523263 46.0576494,35.3241808 45.331476,35.7144131 C44.6034649,36.103108 43.8304317,36.1796784 42.9890996,35.9453545 C42.094476,35.6916573 41.417,35.1233756 40.9578967,34.2349742 C40.4978745,33.3481103 40.4167122,32.2207723 40.7413616,30.8529601 C41.3738155,28.137939 42.8491328,26.9878451 45.099321,27.4568005 C44.9121882,28.2544859 44.7271993,29.0515563 44.5412915,29.8486268" id="Fill-9" fill="#85BF43"></path>
                <path d="M41.2984723,29.7087089 C41.1189963,30.4516573 40.9386015,31.1942981 40.7624945,31.9341714 C39.9680221,31.7219883 39.1701808,31.5113427 38.3671328,31.3031573 C38.5263948,30.5589789 38.6856568,29.815108 38.8415498,29.068162 C39.6687934,29.2809601 40.4877675,29.4940657 41.2984723,29.7087089" id="Fill-10" fill="#85BF43"></path>
                <path d="M55.5389446,33.8026127 C55.2403284,34.5135798 54.9444686,35.2239319 54.6516716,35.9348991 C53.8749631,35.6975 53.1019299,35.4647136 52.329203,35.2343873 C52.6011734,34.5151174 52.8774317,33.7964624 53.1576716,33.0771925 C53.9487749,33.3170516 54.7423284,33.5578333 55.5389446,33.8026127" id="Fill-11" fill="#85BF43"></path>
                <path d="M50.7760923,59.185554 C51.380369,57.2097911 52.0281365,55.2463286 52.7166384,53.2948592 C49.3559041,52.2926784 45.8199815,54.1392864 44.850321,57.4210516 C46.8239446,58.0093216 48.7997122,58.5978991 50.7760923,59.185554" id="Fill-12" fill="#165E34"></path>
                <path d="M71.6822915,14.4721174 C68.6596827,13.2245423 65.6352362,12.0689131 62.5884317,11.0055376 C61.1164834,14.3611056 63.7599262,18.273885 68.5466679,20.0574531 C69.5928967,18.1936244 70.6455572,16.3319484 71.6822915,14.4721174" id="Fill-13" fill="#165E34"></path>
                <path d="M37.1221328,4.5484061 C36.7193838,6.67730986 36.3365424,8.78960798 35.9733026,10.8889906 C41.0326273,11.8099883 45.7017601,9.95692254 46.7467638,6.41869249 C43.5811255,5.68988967 40.37169,5.06410329 37.1221328,4.5484061" id="Fill-14" fill="#165E34"></path>
                <path d="M42.9964502,45.5683192 C44.1740701,45.914885 44.8414391,47.1006502 44.4999446,48.2187629 C44.1556937,49.3356455 42.9596974,49.9700423 41.8163801,49.6317793 C40.6727565,49.294439 39.9986494,48.1108263 40.3033911,46.9837958 C40.6136458,45.8583028 41.8188303,45.2245211 42.9964502,45.5683192" id="Fill-15" fill="#165E34"></path>
                <path d="M52.6244502,15.2101455 C54.2574982,15.6784859 55.1986753,17.0115493 54.756417,18.1570305 C54.3086458,19.3003592 52.7095941,19.8474225 51.1644465,19.4119859 C49.6251181,18.9740892 48.6465756,17.6920728 49.000321,16.5167629 C49.3641734,15.3466808 50.9917085,14.7427277 52.6244502,15.2101455" id="Fill-16" fill="#165E34"></path>
                <path d="M66.8667601,6.70929108 C60.6457417,22.2383263 54.6620849,37.9051268 52.3509483,53.8803615 C44.6791144,52.7591737 37.0167749,51.6361408 29.2830738,50.5189507 C30.8634428,34.491439 29.7669852,18.6487418 30.6818229,1.71653052 C43.0947638,1.88412441 54.969583,3.66584742 66.8667601,6.70929108" id="Fill-17" fill="#85BF43"></path>
                <path d="M66.8667601,6.70929108 L65.507214,6.16007512 C59.2825203,21.7047934 53.246797,37.4709202 50.9004391,53.6687934 L52.3509483,53.8803615 L52.5619705,52.4239859 C44.8904428,51.3031056 37.2274908,50.1800728 29.4916458,49.0625751 L29.2830738,50.5189507 L30.7415461,50.6640962 C31.5393875,42.5694648 31.6594465,34.5544789 31.6974244,26.4638451 C31.7350959,18.3729038 31.6906863,10.2056995 32.1451956,1.79617606 L30.6818229,1.71653052 L30.6619151,3.18797418 C42.9474465,3.35403052 54.7006753,5.11576526 66.5050517,8.135223 L66.8667601,6.70929108 L65.507214,6.16007512 L66.8667601,6.70929108 L67.2284686,5.28335915 C55.2381845,2.21562207 43.2420812,0.41421831 30.7014244,0.245394366 L29.2940996,0.226328638 L29.2181439,1.63688498 C28.7581218,10.1598803 28.804369,18.3799765 28.7663911,26.450007 C28.7290258,34.5209601 28.6071292,42.4409249 27.8246015,50.3741127 L27.6861661,51.7751362 L29.0745018,51.9756338 C36.806059,53.0925164 44.4674797,54.2152418 52.1396199,55.3364296 L53.5904354,55.5486127 L53.8011513,54.0916221 C56.0770664,38.3393333 62.0086568,22.7721667 68.2263063,7.25819953 L68.8514096,5.69819249 L67.2284686,5.28335915 L66.8667601,6.70929108" id="Fill-18" fill="#165E34"></path>
                <path d="M45.9345277,18.5786291 C52.7907565,19.5125423 56.9438192,24.6685915 55.3652878,29.685338 C53.7754244,34.7328357 48.3644982,38.1803498 42.9223321,37.4217183 C37.4994613,36.6449437 33.0434945,31.911108 33.100155,26.7310728 C33.1785609,21.5731784 39.0816679,17.6834624 45.9345277,18.5786291" id="Fill-19" fill="#165E34"></path>
                <path d="M29.2830738,50.5189507 C31.3390849,50.8166221 33.3886642,51.1139859 35.4360996,51.4116573 C35.8942841,48.0228779 33.3776384,44.8739577 29.7963875,44.3874742 C29.6726531,46.4305822 29.507572,48.4743052 29.2830738,50.5189507" id="Fill-20" fill="#165E34"></path>
                <path d="M41.6326162,25.6867629 C40.7649446,25.6421737 40.2559188,26.2575047 40.1131956,27.5192254 C39.9680221,28.7898638 40.2914465,29.4676197 41.0706052,29.5690986 C41.545941,29.6278333 41.9168376,29.4697723 42.1848266,29.0893803 C42.4601661,28.7111408 42.8139114,27.9242183 43.2754649,26.724 C43.7385498,25.5271643 44.3550775,24.6784319 45.1290295,24.1882582 C45.9014502,23.6999296 46.8435461,23.527723 47.9317343,23.6836315 C49.2033801,23.8638333 50.0888155,24.4779343 50.5574133,25.4979507 C51.031524,26.5182746 51.1105424,27.6179366 50.835203,28.7984742 C50.1635461,31.6478779 48.5816458,33.0799601 46.0714317,33.1374648 C46.137893,32.3370117 46.204048,31.5374812 46.2729594,30.7348756 C47.621786,30.7450235 48.4468856,29.9962324 48.7675535,28.4774319 C49.0692325,27.0570352 48.6432066,26.2538146 47.4784502,26.0880657 C46.9617675,26.016108 46.5452362,26.1348075 46.2334502,26.449392 C45.9207454,26.7627465 45.4990074,27.5441338 44.9988635,28.7837136 C44.4965756,30.0251385 43.9152694,30.8898615 43.2503506,31.3806502 C42.5860443,31.8705164 41.8326125,32.056561 40.9661661,31.9449343 C40.0442841,31.8234671 39.29269,31.3585094 38.7123026,30.5454484 C38.1297712,29.7333099 37.8911845,28.6299577 38.0167565,27.2277042 C38.252893,24.4514883 39.5493469,23.0999742 41.8439446,23.2401995 C41.7722768,24.0581808 41.7003026,24.8737019 41.6326162,25.6867629" id="Fill-21" fill="#85BF43"></path>
                <path d="M38.4026605,26.017338 C38.3306863,26.7793521 38.2602435,27.5382911 38.1882694,28.2963075 C37.3748081,28.1997488 36.5558339,28.1068803 35.7316531,28.0158568 C35.7803506,27.2578404 35.8318044,26.4979789 35.882952,25.7368873 C36.7270406,25.8282183 37.5677601,25.9213944 38.4026605,26.017338" id="Fill-22" fill="#85BF43"></path>
                <path d="M53.0804908,28.0204695 C52.8857011,28.767108 52.6939742,29.5119014 52.5071476,30.2585399 C51.7062435,30.1361502 50.9056458,30.0168357 50.1074982,29.8975211 C50.2753358,29.146885 50.4453173,28.3968638 50.6211181,27.6456127 C51.4382546,27.7683099 52.2572288,27.8916221 53.0804908,28.0204695" id="Fill-23" fill="#85BF43"></path>
                <path d="M51.9867897,53.827162 C52.3056199,51.7849765 52.6648782,49.7483263 53.0685461,47.7184413 C49.5993911,47.2092019 46.3626974,49.544446 45.872048,52.9326103 C47.9096827,53.2302817 49.9506863,53.5276455 51.9867897,53.827162" id="Fill-24" fill="#165E34"></path>
                <path d="M66.3004613,6.56722066 C63.1311476,5.76769014 59.9725535,5.05826056 56.8059963,4.44446714 C55.8265351,7.97962207 59.0019742,11.4695728 63.9942251,12.5449413 C64.7641956,10.5491901 65.5390664,8.55589906 66.3004613,6.56722066" id="Fill-25" fill="#165E34"></path>
                <path d="M30.6818229,1.71653052 C30.5828967,3.88172066 30.5060221,6.02692254 30.4472177,8.15644131 C35.586786,8.34033333 39.9416827,5.83626526 40.4730664,2.18456338 C37.2360664,1.91825822 33.9702768,1.75865962 30.6818229,1.71653052" id="Fill-26" fill="#165E34"></path>
                <path d="M42.3459262,41.4682653 C43.5612177,41.6417019 44.391524,42.719223 44.2111292,43.8751596 C44.0298155,45.0286362 42.9388708,45.8293967 41.7563506,45.6590352 C40.5784244,45.4908263 39.7416863,44.4160728 39.8819594,43.2567535 C40.0289705,42.0992793 41.130941,41.2988263 42.3459262,41.4682653" id="Fill-27" fill="#165E34"></path>
                <path d="M47.5424613,10.0387207 C49.2272694,10.2668944 50.3488413,11.4517371 50.0728893,12.6479577 C49.7963247,13.8432559 48.2888487,14.6169554 46.6968413,14.4056948 C45.1112657,14.1944343 43.9602915,13.0649437 44.1434428,11.8530399 C44.3360886,10.6423662 45.8604096,9.81146948 47.5424613,10.0387207" id="Fill-28" fill="#165E34"></path>
                <path d="M42.1615498,130.737692 C20.8749594,130.737692 5.66543911,128.57896 5.66543911,125.912833 C5.66543911,123.250397 20.8749594,121.089512 42.1615498,121.089512 C63.4481402,121.089512 82.7534502,123.250397 82.7534502,125.912833 C82.7534502,128.57896 63.4481402,130.737692 42.1615498,130.737692" id="Fill-29" fill="#A6A3A0"></path>
                <path d="M29.3645424,56.9404108 L16.0860738,39.8043192 C16.0860738,39.8043192 16.3905092,34.5006643 24.9624797,34.8001808 C33.5350627,35.1003122 42.6730258,38.8033685 50.6918672,39.1797629 C62.1810886,39.7185235 72.4602251,36.3226714 72.4602251,36.3226714 L58.5832989,56.9404108 L29.3645424,56.9404108" id="Fill-30" fill="#E6E6E2"></path>
                <path d="M75.4580258,88.4446808 C71.1916421,77.9130188 64.6312731,66.9074812 58.5832989,56.9404108 L29.365155,56.9404108 C23.3836421,66.9074812 17.3494502,78.0520141 12.6242694,88.4446808 C2.54421033,110.619045 8.2886679,117.927369 20.1178524,123.165831 C28.8925756,127.051549 59.1884945,127.051549 67.9632177,123.165831 C79.7942399,117.927369 82.7770332,106.51161 75.4580258,88.4446808" id="Fill-31" fill="#E6E6E2"></path>
                <path d="M49.3081255,86.0955986 C49.1317122,83.9857606 47.1945351,82.9233075 43.4831181,82.9128521 C39.7622066,82.8987066 37.8951661,83.8913545 37.8887343,85.8815704 C37.8862841,87.101777 38.4786162,87.9892559 39.677369,88.5400094 C40.8748967,89.0975282 43.2849594,89.7303873 46.9057196,90.4361268 C50.5286236,91.1477089 53.1846236,92.3202512 54.8761697,93.9635939 C56.5677159,95.6017089 57.4170111,97.7333803 57.4041476,100.35338 C57.3943469,103.409124 56.025,105.766509 53.2958007,107.420923 C50.5730332,109.076258 47.4514982,109.895469 43.9370148,109.885322 C35.4529446,109.853648 30.6266937,106.576495 29.4625498,100.042178 L36.4899852,99.4969601 C36.9962546,102.923871 39.5021808,104.644399 44.0007196,104.659467 C48.2184059,104.674535 50.3298524,103.247681 50.3402657,100.377366 C50.3424096,99.1061127 49.8382841,98.157439 48.8131882,97.5338052 C47.7939114,96.9067887 45.3930369,96.2176549 41.6185277,95.4639437 C37.8464686,94.7077723 35.1184945,93.5696714 33.4465498,92.0428756 C31.7770554,90.5126972 30.9439926,88.6162723 30.9504244,86.3508333 C30.9599188,83.917493 32.0462694,81.8593169 34.2064133,80.1824554 C36.3693137,78.5037488 39.5086125,77.6728521 43.6236974,77.6879202 C51.7769926,77.7162113 56.0424576,80.4429178 56.4161107,85.8658873 L49.3081255,86.0955986" id="Fill-32" fill="#D8A042"></path>
                <polyline id="Fill-33" fill="#D8A042" points="47.2652841 78.3665986 40.576893 78.3407676 40.5943506 72.2308169 47.2879483 72.2529577 47.2652841 78.3665986"></polyline>
                <polyline id="Fill-34" fill="#D8A042" points="47.1458376 114.838106 40.4519336 114.812582 40.4693911 108.701401 47.1605387 108.725387 47.1458376 114.838106"></polyline>
                <path d="M61.2879963,57.5754225 C61.2879963,58.1606174 60.703321,58.635723 59.9835793,58.635723 L27.5455867,58.635723 C26.8233948,58.635723 26.2396384,58.1606174 26.2396384,57.5754225 L26.2396384,56.7039343 C26.2396384,56.1187394 26.8233948,55.6436338 27.5455867,55.6436338 L59.9835793,55.6436338 C60.703321,55.6436338 61.2879963,56.1187394 61.2879963,56.7039343 L61.2879963,57.5754225" id="Fill-35" fill="#66472C"></path>
                <path d="M52.2792804,121.384415 C57.6785683,125.287969 67.3154502,121.968995 70.8847565,119.429871 C75.8463801,115.896561 78.1186199,108.854542 77.5474207,103.816577 C76.9743838,98.774615 76.1881808,95.3624648 74.1634096,90.6713732 C73.4439742,89.0040446 76.6246199,95.7570023 72.7588413,104.857812 C69.8746679,111.650131 61.5302583,113.382038 55.9986605,114.008439 C52.1285941,114.447873 46.9066384,117.50085 52.2792804,121.384415" id="Fill-36" fill="#CDCECA"></path>
                <path d="M48.9954207,54.7395493 C48.9954207,54.7395493 59.2129963,51.011892 64.2594576,45.7986455 C69.9576679,39.9119484 58.6537417,54.7395493 58.6537417,54.7395493 L48.9954207,54.7395493" id="Fill-37" fill="#CDCECA"></path>
                <path d="M20.0023875,41.0509718 C20.0023875,41.0509718 20.1953395,41.20073 20.5086568,41.4808732 C20.8241181,41.7597864 21.2599446,42.169392 21.7616199,42.6767864 C22.7643579,43.6924977 24.000476,45.1239648 25.1407306,46.6283122 C26.2809852,48.1329671 27.3244576,49.7114249 28.030417,50.9540798 C28.3832435,51.574946 28.6591956,52.1066338 28.8423469,52.4864108 C29.0261107,52.8652653 29.1182989,53.0919014 29.1182989,53.0919014 C29.1182989,53.0919014 28.9250406,52.9424507 28.611417,52.6629225 C28.2956494,52.3840094 27.8592103,51.9750188 27.3575351,51.4673169 C26.2751661,50.3716526 25.1664576,49.0831784 23.9799557,47.5142535 C22.8409262,46.0086761 21.798679,44.4302183 21.092107,43.1878709 C20.7386679,42.5670047 20.4630221,42.0356244 20.2795646,41.6561549 C20.0942694,41.277608 20.0023875,41.0509718 20.0023875,41.0509718" id="Fill-38" fill="#FAFAF8"></path>
                <path d="M30.2123063,60.7803099 C30.2123063,60.7803099 30.0490627,61.2794014 29.730845,62.1355141 C29.412321,62.9919343 28.9458672,64.2096808 28.3415904,65.6472981 C27.1553948,68.5357559 25.4163764,72.3064648 23.5502546,76.0122887 C21.6801513,79.7165751 19.6835572,83.356284 18.0652103,86.0239484 C17.2689004,87.3646995 16.56631,88.4622089 16.0661661,89.2263756 C15.566941,89.9905423 15.2621993,90.4173685 15.2621993,90.4173685 C15.2621993,90.4173685 15.424524,89.9185845 15.743048,89.0615493 C16.0606531,88.2051291 16.5261882,86.9870751 17.1310775,85.5494577 C18.316048,82.660385 20.0565978,78.8909061 21.9242509,75.1853897 C23.7952731,71.4820258 25.7940111,67.8432394 27.4114391,65.1746526 C28.2083616,63.8342089 28.9097269,62.736392 29.4086458,61.9719178 C29.9081771,61.2074437 30.2123063,60.7803099 30.2123063,60.7803099" id="Fill-39" fill="#FAFAF8"></path>
                <path d="M28.7801734,116.177627 C26.5829705,123.625254 18.7892399,127.875988 11.3703875,125.670822 C3.95245387,123.465347 -0.281158672,115.639174 1.91543173,108.191239 C4.11202214,100.742998 11.9063653,96.4922629 19.3246052,98.6980446 C26.742845,100.902904 30.9761513,108.72877 28.7801734,116.177627" id="Fill-40" fill="#DFAA33"></path>
                <path d="M26.3523469,115.455282 C24.5526863,121.558467 18.1665867,125.04073 12.0895166,123.233791 C6.01183395,121.42716 2.54298524,115.015232 4.34295203,108.912969 C6.14169373,102.809784 12.5284059,99.3272136 18.605476,101.134153 C24.6837712,102.941092 28.1526199,109.353019 26.3523469,115.455282" id="Fill-41" fill="#F5C83C"></path>
                <path d="M18.6354908,109.860721 C18.8171107,108.978162 18.1552546,108.310246 16.6422657,107.855744 C15.1259077,107.398782 14.2441476,107.577446 14.0018856,108.388662 C13.8545683,108.886216 13.9887159,109.320115 14.4119852,109.690052 C14.833417,110.062756 15.7412103,110.613202 17.1329151,111.341082 C18.5264576,112.070192 19.4685535,112.870338 19.9610406,113.746439 C20.4541402,114.62008 20.5432657,115.592739 20.2229041,116.659498 C19.8520074,117.905535 19.0097565,118.701376 17.6973764,119.045789 C16.3868339,119.390509 15.0144244,119.346843 13.5825978,118.916019 C10.1244686,117.873862 8.549,115.951606 8.86109225,113.144331 L11.7933506,113.7735 C11.5878413,115.233258 12.404059,116.239744 14.2371033,116.791728 C15.9556015,117.308962 16.9892731,116.982692 17.3384244,115.813225 C17.4915609,115.294453 17.4002915,114.846101 17.0572657,114.467554 C16.7173026,114.087777 15.8202288,113.515805 14.3709446,112.751023 C12.9238044,111.985012 11.9474059,111.189171 11.4484871,110.36381 C10.9514059,109.536911 10.83931,108.66204 11.1146494,107.739197 C11.4117343,106.746857 12.1029926,106.038965 13.1853616,105.616444 C14.2704871,105.19423 15.6511661,105.236052 17.3283173,105.741293 C20.6513801,106.741322 22.0636052,108.371134 21.5640738,110.6295 L18.6354908,109.860721" id="Fill-42" fill="#B88232"></path>
                <polyline id="Fill-43" fill="#B88232" points="18.7322731 106.459641 16.0064428 105.637969 16.749155 103.147124 19.4774354 103.968181 18.7322731 106.459641"></polyline>
                <polyline id="Fill-44" fill="#B88232" points="14.2949889 121.325373 11.567321 120.503087 12.3100332 118.011934 15.0373948 118.833298 14.2949889 121.325373"></polyline>
                <path d="M4.51844649,109.172817 C4.51844649,108.068235 5.00511439,106.387376 5.36743542,106.022974 C5.72332472,105.665953 7.40384502,105.170859 8.50305904,105.170244 C7.40384502,105.170859 5.78580443,104.737883 5.36743542,104.318744 C4.92915867,103.878387 4.51844649,102.274099 4.51844649,101.168901 C4.51844649,102.301467 4.09303321,103.891303 3.61494096,104.371944 C3.12030996,104.868268 1.60548339,105.170244 0.533527675,105.170244 C1.63366052,105.170244 3.25660148,105.608141 3.66915129,106.022974 C4.08843911,106.443035 4.51844649,108.068235 4.51844649,109.172817" id="Fill-45" fill="#FFFFFE"></path>
                <path d="M7.17934686,109.792761 C7.17934686,109.399453 7.35239114,108.801343 7.48163838,108.671573 C7.60782288,108.544263 8.20597417,108.368059 8.59769742,108.368059 C8.20597417,108.368059 7.63048708,108.213995 7.48163838,108.064545 C7.32605166,107.908021 7.17934686,107.337279 7.17934686,106.943664 C7.17934686,107.346505 7.02743542,107.912634 6.85776015,108.084225 C6.68226568,108.26043 6.14230627,108.368059 5.76069004,108.368059 C6.15241328,108.368059 6.7309631,108.523967 6.87674908,108.671573 C7.02590406,108.821023 7.17934686,109.399453 7.17934686,109.792761" id="Fill-46" fill="#FFFFFE"></path>
                <path d="M1.98648708,112.806068 C1.98648708,112.260542 2.22660517,111.429953 2.40608118,111.250366 C2.58157565,111.073854 3.41218819,110.829075 3.95459779,110.829075 C3.41218819,110.829075 2.61250923,110.615354 2.40608118,110.408092 C2.18954613,110.190988 1.98648708,109.397915 1.98648708,108.852082 C1.98648708,109.411754 1.77669004,110.197446 1.54024723,110.434845 C1.2961476,110.679932 0.547922509,110.829075 0.0174575646,110.829075 C0.561704797,110.829075 1.3632214,111.044948 1.56719926,111.250366 C1.77393358,111.457629 1.98648708,112.260542 1.98648708,112.806068" id="Fill-47" fill="#FFFFFE"></path>
            </g>
        </g>
    </g>
</svg>