<?xml version="1.0" encoding="UTF-8"?>
<svg width="22px" height="22px" viewBox="0 0 22 22" version="1.1" xmlns="http://www.w3.org/2000/svg" xmlns:xlink="http://www.w3.org/1999/xlink">
    <!-- Generator: sketchtool 54.1 (76490) - https://sketchapp.com -->
    <title>00516D50-6E0D-4C6B-B439-AA2AD9F3CF1B</title>
    <desc>Created with sketchtool.</desc>
    <g id="Page-1" stroke="none" stroke-width="1" fill="none" fill-rule="evenodd">
        <g id="13_Envio_RG_Renda" transform="translate(-766.000000, -322.000000)">
            <g id="Dialogo_motivos">
                <g id="minus-circle-on" transform="translate(767.000000, 323.000000)">
                    <circle id="Oval" stroke="#ED1C24" stroke-width="2" fill="#FFEF81" stroke-linecap="round" stroke-linejoin="round" cx="10" cy="10" r="10"></circle>
                    <path d="M9.35294733,6.51889875 L9.35294733,8.66806657 C8.98321639,8.43696533 8.77521362,8.02099862 8.77521362,7.6050319 C8.75211515,7.14286823 8.98321639,6.75 9.35294733,6.51889875 M11.2939183,11.4643024 C11.2939183,11.926466 11.0397185,12.3424327 10.6699488,12.573534 L10.6699488,10.3781692 C11.062817,10.586172 11.2939183,11.0020999 11.2939183,11.4643024 M10.6699488,5.06303467 L10.6699488,4.67012762 C10.6699488,4.30039668 10.3695909,4 10.0000153,4 C9.63028435,4 9.32984885,4.30039668 9.32984885,4.67012762 L9.32984885,5.06303467 C8.19747992,5.36343135 7.41178227,6.40336754 7.41178227,7.55883495 C7.41178227,8.71430235 8.19747992,9.75419972 9.32984885,10.0546352 L9.32984885,12.4811401 C8.8214494,12.203803 8.35924691,11.7416394 8.17438144,11.5567351 C8.05885023,11.4181054 7.87394594,11.3256338 7.665982,11.3256338 C7.50421501,11.3256338 7.36558532,11.3718696 7.22687798,11.4874008 C6.94957978,11.7185021 6.9264813,12.1344688 7.15754373,12.411767 C7.25001528,12.527337 8.17438144,13.567312 9.30675037,13.913828 L9.30675037,14.3297947 C9.30675037,14.6995645 9.60718587,15 9.97691681,15 C10.3464925,15 10.6468503,14.6995645 10.6468503,14.3297947 L10.6468503,13.9369653 C11.8023177,13.6365686 12.6111527,12.6197698 12.6111527,11.4181054 C12.6111527,10.2395007 11.8023177,9.19960332 10.6468503,8.89916782 L10.6468503,6.4495645 C11.1783482,6.65756727 11.6405507,7.05039668 11.8254162,7.23530097 C12.0796159,7.48950069 12.4955826,7.51259917 12.7497824,7.25839945 C13.0040209,7.00419972 13.0271194,6.58823301 12.7729197,6.33403329 C12.6804869,6.21846325 11.8023177,5.31719557 10.6699488,5.06303467" id="Fill-1" fill="#ED1C24"></path>
                </g>
            </g>
        </g>
    </g>
</svg>