<?xml version="1.0" encoding="UTF-8"?>
<svg width="163px" height="218px" viewBox="0 0 163 218" version="1.1" xmlns="http://www.w3.org/2000/svg" xmlns:xlink="http://www.w3.org/1999/xlink">
    <!-- Generator: sketchtool 54.1 (76490) - https://sketchapp.com -->
    <title>EF1659C6-C33E-443C-8E57-AA4F624F1BC2</title>
    <desc>Created with sketchtool.</desc>
    <defs>
        <polygon id="path-1" points="0 0.00856489706 30.9923325 0.00856489706 30.9923325 30.9947795 0 30.9947795"></polygon>
    </defs>
    <g id="Page-1" stroke="none" stroke-width="1" fill="none" fill-rule="evenodd">
        <g id="15_Loading-envio-docs" transform="translate(-431.000000, -347.000000)">
            <g id="Dialogo_motivos">
                <g id="docs" transform="translate(431.000000, 347.000000)">
                    <polyline id="Fill-290" fill="#EAEAEA" points="7.8721291 189.390647 5.07615261 98.1732951 5.87572324 98.3788629 10.8687545 187.452732 26.8762996 186.511665 26.7089242 188.784274 7.8721291 189.390647"></polyline>
                    <polyline id="Fill-291" fill="#D0D0D0" points="5.87572324 98.3788629 5.07615261 98.1732951 5.03077975 96.6847363 5.79001895 96.852083 5.87572324 98.3788629"></polyline>
                    <path d="M127.495155,35.6300679 L126.835736,35.5970118 L124.917976,1.38598537 L126.443513,1.33640118 L127.495155,35.6300679 M49.9317624,4.78973355 L50.201983,3.78978568 L87.1324665,2.60079808 L49.9317624,4.78973355" id="Fill-292" fill="#C9C9C9"></path>
                    <polyline id="Fill-293" fill="#5B727C" points="49.7371632 4.8010966 49.9731021 3.79701671 50.201983 3.78978568 49.9317624 4.78973355 49.7371632 4.8010966"></polyline>
                    <polyline id="Fill-294" fill="#D9D9D3" points="48.1269308 4.89613296 48.3467371 3.84866691 49.9731021 3.79701671 49.7371632 4.8010966 48.1269308 4.89613296"></polyline>
                    <polyline id="Fill-295" fill="#BDBDBA" points="47.0430236 4.96017921 47.2688796 3.88378904 48.3467371 3.84866691 48.1269308 4.89613296 47.0430236 4.96017921"></polyline>
                    <polyline id="Fill-296" fill="#D9D9D3" points="39.5706176 5.39920591 39.8388217 4.12241297 47.2688796 3.88378904 47.0430236 4.96017921 39.5706176 5.39920591"></polyline>
                    <polyline id="Fill-297" fill="#BDBDBA" points="37.8303164 5.50250631 38.1086033 4.17819518 39.8388217 4.12241297 39.5706176 5.39920591 37.8303164 5.50250631"></polyline>
                    <path d="M5.79001895,96.852083 L5.03077975,96.6847363 L4.44395743,77.5369742 L4.71115316,77.5958554 L5.79001895,96.852083 M2.30034184,7.5922734 L2.23077013,5.33206065 L38.1086033,4.17819518 L37.8303164,5.50250631 L2.30034184,7.5922734" id="Fill-298" fill="#CACACA"></path>
                    <polyline id="Fill-299" fill="#D9D9D3" points="4.71115316 77.5958554 4.44395743 77.5369742 4.1263474 67.168713 4.71115316 77.5958554"></polyline>
                    <polyline id="Fill-300" fill="#FFFFFE" points="134.939329 180.152492 10.8687545 187.452732 0.791946309 7.68111175 124.861512 0.380872483 134.939329 180.152492"></polyline>
                    <polyline id="Fill-301" fill="#ED1C24" points="126.135986 23.1193565 2.06641954 30.4195958 0.791946309 7.68111175 124.861512 0.380872483 126.135986 23.1193565"></polyline>
                    <polyline id="Fill-302" fill="#E0E0DD" points="126.457629 28.8514957 2.38806271 36.151735 2.05835326 30.2718762 126.127919 22.9726699 126.457629 28.8514957"></polyline>
                    <polyline id="Fill-303" fill="#D0021B" points="134.939329 180.152492 10.8687545 187.452732 10.5400533 181.573906 134.609619 174.273667 134.939329 180.152492"></polyline>
                    <polyline id="Fill-304" fill="#B7B7B3" points="67.4487113 138.923237 32.092162 141.003707 32.0377145 140.024419 67.3942639 137.944982 67.4487113 138.923237"></polyline>
                    <polyline id="Fill-305" fill="#484846" points="65.0792398 139.062692 32.092162 141.003707 32.0377145 140.024419 65.023784 138.084438 65.0792398 139.062692"></polyline>
                    <polyline id="Fill-306" fill="#B7B7B3" points="67.6866668 143.176114 32.3311257 145.256584 32.27567 144.277297 67.6322194 142.19786 67.6866668 143.176114"></polyline>
                    <polyline id="Fill-307" fill="#484846" points="56.1206205 143.856864 32.3311257 145.256584 32.27567 144.277297 56.0651648 142.877576 56.1206205 143.856864"></polyline>
                    <polyline id="Fill-308" fill="#B7B7B3" points="67.9256305 147.428992 32.5690811 149.509462 32.5146337 148.530174 67.8711831 146.449704 67.9256305 147.428992"></polyline>
                    <polyline id="Fill-309" fill="#484846" points="62.5091193 147.747157 32.5690811 149.509462 32.5146337 148.530174 62.4536636 146.768902 62.5091193 147.747157"></polyline>
                    <polyline id="Fill-310" fill="#B7B7B3" points="125.912146 135.483334 90.556605 137.563804 90.5011493 136.584516 125.857699 134.505079 125.912146 135.483334"></polyline>
                    <polyline id="Fill-311" fill="#484846" points="119.374421 135.867611 90.556605 137.563804 90.5011493 136.584516 119.318965 134.889356 119.374421 135.867611"></polyline>
                    <polyline id="Fill-312" fill="#B7B7B3" points="126.15111 139.736211 90.7945604 141.816681 90.740113 140.837393 126.095654 138.757956 126.15111 139.736211"></polyline>
                    <polyline id="Fill-313" fill="#484846" points="124.289814 139.845709 90.7945604 141.816681 90.740113 140.837393 124.235367 138.866422 124.289814 139.845709"></polyline>
                    <polyline id="Fill-314" fill="#B7B7B3" points="126.389065 143.989088 91.0335242 146.069559 90.9780685 145.090271 126.334618 143.010834 126.389065 143.989088"></polyline>
                    <polyline id="Fill-315" fill="#484846" points="116.296125 144.583066 91.0335242 146.069559 90.9780685 145.090271 116.240669 143.603778 116.296125 144.583066"></polyline>
                    <polyline id="Fill-316" fill="#FFFFFE" points="31.3147736 32.6787755 13.5538195 33.7231426 13.4378666 31.6633326 31.199829 30.6189655 31.3147736 32.6787755"></polyline>
                    <polyline id="Fill-317" fill="#E0E0DD" points="121.059267 41.6390522 8.92074632 48.2368488 8.80580174 46.1770388 120.943314 39.5792422 121.059267 41.6390522"></polyline>
                    <polyline id="Fill-318" fill="#E0E0DD" points="121.255882 45.1574638 9.11837033 51.7562934 9.00342575 49.6954504 121.140938 43.0976539 121.255882 45.1574638"></polyline>
                    <polyline id="Fill-319" fill="#E0E0DD" points="108.461744 47.3742904 9.20004148 53.214895 9.31599435 55.274705 108.576689 49.4351334 108.461744 47.3742904"></polyline>
                    <polyline id="Fill-320" fill="#FFFFFE" points="59.2452982 31.0352662 41.4843441 32.0806662 41.3693995 30.0198232 59.1303536 28.9754562 59.2452982 31.0352662"></polyline>
                    <polyline id="Fill-321" fill="#FFFFFE" points="87.176831 29.3917568 69.4158769 30.4371568 69.2999241 28.3763139 87.0608782 27.3319468 87.176831 29.3917568"></polyline>
                    <polyline id="Fill-322" fill="#FFFFFE" points="115.107356 27.7482474 97.3464015 28.7936475 97.2314569 26.7328045 114.992411 25.6884375 115.107356 27.7482474"></polyline>
                    <polyline id="Fill-323" fill="#484846" points="73.9289641 38.6443736 55.3936465 39.7352258 55.2555113 37.2642803 73.7908289 36.1734281 73.9289641 38.6443736"></polyline>
                    <polyline id="Fill-324" fill="#D0021B" points="48.9759075 65.9301413 24.4090243 67.3753138 24.2416488 64.3888993 48.808532 62.9426937 48.9759075 65.9301413"></polyline>
                    <polyline id="Fill-325" fill="#484846" points="107.59966 62.4799079 83.0317682 63.9261135 82.8643927 60.9396989 107.432284 59.4934933 107.59966 62.4799079"></polyline>
                    <polyline id="Fill-326" fill="#E0E0DD" points="77.8552289 71.1891646 68.8572866 71.7180627 68.756458 69.9165037 77.7544004 69.3876056 77.8552289 71.1891646"></polyline>
                    <polyline id="Fill-327" fill="#E0E0DD" points="121.728768 72.6281392 69.0821343 75.7261182 68.9631566 73.607427 121.609791 70.509448 121.728768 72.6281392"></polyline>
                    <polyline id="Fill-328" fill="#E0E0DD" points="121.93345 76.2860063 69.2868163 79.3829523 69.1678386 77.2652941 121.815481 74.1673151 121.93345 76.2860063"></polyline>
                    <polyline id="Fill-329" fill="#E0E0DD" points="97.5561249 79.2641569 69.3735289 80.9221283 69.4925066 83.0408195 97.6751026 81.3828481 97.5561249 79.2641569"></polyline>
                    <polyline id="Fill-330" fill="#E0E0DD" points="20.0491965 74.5898138 11.0512542 75.1197448 10.9504256 73.3181859 19.948368 72.7882548 20.0491965 74.5898138"></polyline>
                    <polyline id="Fill-331" fill="#E0E0DD" points="63.922736 76.0298214 11.2761019 79.1267673 11.1571242 77.0091091 63.8047665 73.9111301 63.922736 76.0298214"></polyline>
                    <polyline id="Fill-332" fill="#E0E0DD" points="64.1284263 79.6866555 11.4817922 82.7846345 11.3628145 80.6659433 64.0094485 77.5689973 64.1284263 79.6866555"></polyline>
                    <polyline id="Fill-333" fill="#E0E0DD" points="39.7511008 82.664806 11.5674965 84.3238105 11.6864742 86.4425017 39.8700785 84.7834972 39.7511008 82.664806"></polyline>
                    <polyline id="Fill-334" fill="#E0E0DD" points="78.913929 90.0724777 69.9159867 90.6013758 69.8151581 88.7998168 78.8120922 88.2709187 78.913929 90.0724777"></polyline>
                    <polyline id="Fill-335" fill="#E0E0DD" points="122.787468 91.5114523 70.1408344 94.6094313 70.0218567 92.4907401 122.668491 89.3927611 122.787468 91.5114523"></polyline>
                    <polyline id="Fill-336" fill="#E0E0DD" points="122.99215 95.1693194 70.3455164 98.2662654 70.2265387 96.1486072 122.873173 93.0506282 122.99215 95.1693194"></polyline>
                    <polyline id="Fill-337" fill="#E0E0DD" points="98.614825 98.14747 70.432229 99.8054414 70.5501984 101.924133 98.7338027 100.266161 98.614825 98.14747"></polyline>
                    <polyline id="Fill-338" fill="#E0E0DD" points="21.1078966 93.4731269 12.1099543 94.0030579 12.0091257 92.201499 21.007068 91.6715679 21.1078966 93.4731269"></polyline>
                    <polyline id="Fill-339" fill="#E0E0DD" points="64.981436 94.9131345 12.334802 98.0111134 12.2158243 95.8924222 64.8624583 92.7944433 64.981436 94.9131345"></polyline>
                    <polyline id="Fill-340" fill="#E0E0DD" points="65.1871263 98.5699686 12.539484 101.667948 12.4215146 99.5492564 65.0681486 96.4512774 65.1871263 98.5699686"></polyline>
                    <polyline id="Fill-341" fill="#E0E0DD" points="40.8098009 101.548119 12.6261966 103.207124 12.7451743 105.325815 40.9277703 103.66681 40.8098009 101.548119"></polyline>
                    <polyline id="Fill-342" fill="#E0E0DD" points="79.9716208 108.955791 70.9746867 109.484689 70.8738582 107.68313 79.8707922 107.154232 79.9716208 108.955791"></polyline>
                    <polyline id="Fill-343" fill="#E0E0DD" points="123.846169 110.394765 71.1995345 113.492744 71.0805568 111.374053 123.727191 108.276074 123.846169 110.394765"></polyline>
                    <polyline id="Fill-344" fill="#E0E0DD" points="124.050851 114.052633 71.4042165 117.149579 71.2852388 115.03192 123.931873 111.933941 124.050851 114.052633"></polyline>
                    <polyline id="Fill-345" fill="#E0E0DD" points="99.6735251 117.030783 71.4899208 118.688755 71.6088985 120.807446 99.7925028 119.149474 99.6735251 117.030783"></polyline>
                    <polyline id="Fill-346" fill="#E0E0DD" points="22.1665967 112.35644 13.1686543 112.886371 13.0678258 111.084812 22.0657681 110.554881 22.1665967 112.35644"></polyline>
                    <polyline id="Fill-347" fill="#E0E0DD" points="66.0401361 113.796448 13.3935021 116.894427 13.2745243 114.775735 65.9211584 111.677756 66.0401361 113.796448"></polyline>
                    <polyline id="Fill-348" fill="#E0E0DD" points="66.2448181 117.453282 13.5981841 120.551261 13.4792064 118.43257 66.1268487 115.334591 66.2448181 117.453282"></polyline>
                    <polyline id="Fill-349" fill="#E0E0DD" points="41.868501 120.431432 13.6848967 122.090437 13.8028661 124.209128 41.9864704 122.550123 41.868501 120.431432"></polyline>
                    <polyline id="Fill-350" fill="#E0E0DD" points="27.0053602 141.741272 14.8262762 142.458177 14.7224227 140.604967 26.9015067 139.888063 27.0053602 141.741272"></polyline>
                    <polyline id="Fill-351" fill="#E0E0DD" points="27.2443239 145.994149 15.0652399 146.711054 14.9613865 144.857845 27.1404705 144.14094 27.2443239 145.994149"></polyline>
                    <polyline id="Fill-352" fill="#E0E0DD" points="27.4822794 150.247027 15.3031953 150.963931 15.1993419 149.110722 27.3784259 148.393818 27.4822794 150.247027"></polyline>
                    <polyline id="Fill-353" fill="#E0E0DD" points="85.2005909 138.317896 73.0215069 139.033768 72.9176535 137.180559 85.0967375 136.463654 85.2005909 138.317896"></polyline>
                    <polyline id="Fill-354" fill="#E0E0DD" points="85.4385463 142.570774 73.2594623 143.286646 73.1556089 141.433437 85.3346929 140.716532 85.4385463 142.570774"></polyline>
                    <polyline id="Fill-355" fill="#E0E0DD" points="85.6775101 146.823651 73.4984261 147.539523 73.3945726 145.686314 85.5736566 144.969409 85.6775101 146.823651"></polyline>
                    <polyline id="Fill-356" fill="#D0021B" points="52.73883 133.051642 28.1719468 134.496815 28.0035631 131.5104 52.5714546 130.065228 52.73883 133.051642"></polyline>
                    <polyline id="Fill-357" fill="#484846" points="111.362582 129.602442 86.7946907 131.047614 86.6273153 128.0612 111.194198 126.614994 111.362582 129.602442"></polyline>
                    <polyline id="Fill-358" fill="#E0E0DD" points="28.4270431 167.094289 16.2479591 167.811194 16.1441057 165.957984 28.3231897 165.24108 28.4270431 167.094289"></polyline>
                    <polyline id="Fill-359" fill="#E0E0DD" points="38.5562821 172.354345 16.5746437 173.647666 16.4707903 171.794457 38.4524287 170.501136 38.5562821 172.354345"></polyline>
                    <polyline id="Fill-360" fill="#E0E0DD" points="38.3929398 169.436109 16.4113014 170.72943 16.307448 168.876221 38.2890864 167.5829 38.3929398 169.436109"></polyline>
                    <polyline id="Fill-361" fill="#E0E0DD" points="67.3972888 164.802053 55.2182048 165.517925 55.1143513 163.664716 67.2934353 162.947811 67.3972888 164.802053"></polyline>
                    <polyline id="Fill-362" fill="#E0E0DD" points="77.5265278 170.062109 55.5448894 171.35543 55.4410359 169.501188 77.4226743 168.207867 77.5265278 170.062109"></polyline>
                    <polyline id="Fill-363" fill="#E0E0DD" points="77.3631855 167.14284 55.3815471 168.436161 55.2776936 166.582952 77.259332 165.289631 77.3631855 167.14284"></polyline>
                    <polyline id="Fill-364" fill="#E0E0DD" points="106.367534 162.508784 94.1884504 163.225689 94.084597 161.371447 106.263681 160.655575 106.367534 162.508784"></polyline>
                    <polyline id="Fill-365" fill="#E0E0DD" points="116.496773 167.768841 94.515135 169.062162 94.4112816 167.208952 116.39292 165.915631 116.496773 167.768841"></polyline>
                    <polyline id="Fill-366" fill="#E0E0DD" points="116.333431 164.850604 94.3517927 166.143925 94.2479393 164.290716 116.229578 162.997395 116.333431 164.850604"></polyline>
                    <polyline id="Fill-367" fill="#484846" points="82.8180116 158.020382 58.2501201 159.466587 58.0827447 156.47914 82.6506361 155.033967 82.8180116 158.020382"></polyline>
                    <polyline id="Fill-368" fill="#FFFFFF" points="72.88438 19.9955524 54.3490624 21.0864046 54.209919 18.6154591 72.7452366 17.5246069 72.88438 19.9955524"></polyline>
                    <polyline id="Fill-369" fill="#FFFFFE" points="89.3547283 13.9287199 37.3080243 16.9905438 37.0478866 12.3564878 89.0955989 9.29466399 89.3547283 13.9287199"></polyline>
                    <path d="M148.049061,217.683594 L95.9690831,212.038227 L148.168038,215.948147 L148.049061,217.683594 M28.1981623,204.692535 L25.5564535,204.40536 L26.7089242,188.784274 L29.3395418,188.699568 L28.1981623,204.692535" id="Fill-370" fill="#E7E7E7"></path>
                    <polyline id="Fill-371" fill="#E7E7E7" points="26.7089242 188.784274 26.8762996 186.511665 29.5069172 186.356714 29.3395418 188.699568 26.7089242 188.784274"></polyline>
                    <polyline id="Fill-372" fill="#D9D9D3" points="27.3128873 180.586354 27.8734942 172.983445 30.4718467 172.83056 29.929389 180.432437 27.3128873 180.586354"></polyline>
                    <polyline id="Fill-373" fill="#D6D6D6" points="26.8762996 186.511665 27.3128873 180.586354 29.929389 180.432437 29.5069172 186.356714 26.8762996 186.511665"></polyline>
                    <path d="M28.0116294,171.115773 L28.091284,170.042482 L30.6815702,169.889598 L30.6049404,170.962889 L28.0116294,171.115773 M28.2284108,168.174811 L28.3080654,167.10152 L28.4270431,167.094289 L28.3756206,166.181113 L30.7239182,134.347029 L33.2285001,134.19931 L32.8161112,139.978967 L32.0377145,140.024419 L32.092162,141.003707 L32.7455312,140.965486 L32.5106006,144.263868 L32.27567,144.277297 L32.3311257,145.256584 L32.4400206,145.250386 L30.8146639,168.022959 L28.2284108,168.174811" id="Fill-374" fill="#D9D9D3"></path>
                    <polyline id="Fill-375" fill="#9B9C98" points="32.092162 141.003707 32.7455312 140.965486 32.092162 141.003707"></polyline>
                    <polyline id="Fill-376" fill="#3D3D3B" points="32.092162 141.003707 32.0377145 140.024419 32.8161112 139.978967 32.7455312 140.965486 32.092162 141.003707"></polyline>
                    <polyline id="Fill-377" fill="#3D3D3B" points="32.3311257 145.256584 32.27567 144.277297 32.5106006 144.263868 32.4400206 145.250386 32.3311257 145.256584"></polyline>
                    <path d="M30.945741,131.336855 L31.5486959,123.164761 L34.0260541,123.019107 L33.4432649,131.190169 L30.945741,131.336855 M31.7059885,121.029542 L31.8199248,119.479003 L34.2892167,119.333349 L34.1783053,120.883888 L31.7059885,121.029542 M31.9782257,117.344816 L32.092162,115.793244 L34.5523793,115.648624 L34.4414679,117.199163 L31.9782257,117.344816 M32.2494546,113.659058 L32.9522297,104.136827 L35.3832068,103.99324 L34.7046304,113.514437 L32.2494546,113.659058 M33.1095223,102.001608 L33.2234586,100.451069 L35.6463694,100.308514 L35.5354579,101.859053 L33.1095223,102.001608 M33.3817595,98.3158496 L33.4956958,96.7653106 L35.909532,96.6237891 L35.7986205,98.1743281 L33.3817595,98.3158496 M33.6529884,94.6311244 L34.3557636,85.1078605 L36.7413677,84.967372 L36.0617831,94.4885698 L33.6529884,94.6311244 M34.5130561,82.9736742 L34.6269924,81.4231352 L37.0045303,81.2826467 L36.8936189,82.8331857 L34.5130561,82.9736742 M34.7852933,79.287916 L34.8992296,77.737377 L37.2666846,77.5979214 L37.1567815,79.1484604 L34.7852933,79.287916 M35.0565222,75.6021577 L35.7129162,66.7100593 L38.0541558,66.5726697 L37.4189358,75.4637352 L35.0565222,75.6021577 M35.9347391,63.7009186 L36.6748209,53.6652848 L38.9515302,53.5309942 L38.9384225,53.7097039 L38.9716959,53.7117699 L38.2689207,63.5635291 L35.9347391,63.7009186 M36.8280803,51.5899797 L36.9359669,50.118982 L39.2046099,49.9857245 L39.0987399,51.4556892 L36.8280803,51.5899797 M37.0892263,48.043677 L37.1981212,46.5726793 L39.4576896,46.4404548 L39.3518196,47.9104195 L37.0892263,48.043677 M37.3503723,44.4973743 L38.121711,34.0485388 L40.3510308,33.9173473 L39.6048994,44.3641168 L37.3503723,44.4973743" id="Fill-378" fill="#D9D9D3"></path>
                    <polyline id="Fill-379" fill="#BDBDBA" points="38.121711 34.0485388 38.3314344 31.2015798 40.5365554 31.3110782 40.3510308 33.9173473 38.121711 34.0485388"></polyline>
                    <polyline id="Fill-380" fill="#BDBDBA" points="37.1981212 46.5726793 37.3503723 44.4973743 39.6048994 44.3641168 39.4576896 46.4404548 37.1981212 46.5726793"></polyline>
                    <polyline id="Fill-381" fill="#BDBDBA" points="36.9359669 50.118982 37.0892263 48.043677 39.3518196 47.9104195 39.2046099 49.9857245 36.9359669 50.118982"></polyline>
                    <polyline id="Fill-382" fill="#BDBDBA" points="36.6748209 53.6652848 36.8280803 51.5899797 39.0987399 51.4556892 38.9515302 53.5309942 36.6748209 53.6652848"></polyline>
                    <polyline id="Fill-383" fill="#D0021B" points="35.7129162 66.7100593 35.9347391 63.7009186 38.2689207 63.5635291 38.0541558 66.5726697 35.7129162 66.7100593"></polyline>
                    <polyline id="Fill-384" fill="#BDBDBA" points="34.8992296 77.737377 35.0565222 75.6021577 37.4189358 75.4637352 37.2666846 77.5979214 34.8992296 77.737377"></polyline>
                    <polyline id="Fill-385" fill="#BDBDBA" points="34.6269924 81.4231352 34.7852933 79.287916 37.1567815 79.1484604 37.0045303 81.2826467 34.6269924 81.4231352"></polyline>
                    <polyline id="Fill-386" fill="#BDBDBA" points="34.3557636 85.1078605 34.5130561 82.9736742 36.8936189 82.8331857 36.7413677 84.967372 34.3557636 85.1078605"></polyline>
                    <polyline id="Fill-387" fill="#BDBDBA" points="33.4956958 96.7653106 33.6529884 94.6311244 36.0617831 94.4885698 35.909532 96.6237891 33.4956958 96.7653106"></polyline>
                    <polyline id="Fill-388" fill="#BDBDBA" points="33.2234586 100.451069 33.3817595 98.3158496 35.7986205 98.1743281 35.6463694 100.308514 33.2234586 100.451069"></polyline>
                    <polyline id="Fill-389" fill="#BDBDBA" points="32.9522297 104.136827 33.1095223 102.001608 35.5354579 101.859053 35.3832068 103.99324 32.9522297 104.136827"></polyline>
                    <polyline id="Fill-390" fill="#BDBDBA" points="32.092162 115.793244 32.2494546 113.659058 34.7046304 113.514437 34.5523793 115.648624 32.092162 115.793244"></polyline>
                    <polyline id="Fill-391" fill="#BDBDBA" points="31.8199248 119.479003 31.9782257 117.344816 34.4414679 117.199163 34.2892167 119.333349 31.8199248 119.479003"></polyline>
                    <polyline id="Fill-392" fill="#BDBDBA" points="31.5486959 123.164761 31.7059885 121.029542 34.1783053 120.883888 34.0260541 123.019107 31.5486959 123.164761"></polyline>
                    <polyline id="Fill-393" fill="#D0021B" points="30.7239182 134.347029 30.945741 131.336855 33.4432649 131.190169 33.2285001 134.19931 30.7239182 134.347029"></polyline>
                    <polyline id="Fill-394" fill="#BDBDBA" points="28.3080654 167.10152 28.3756206 166.181113 28.4270431 167.094289 28.3080654 167.10152"></polyline>
                    <polyline id="Fill-395" fill="#BDBDBA" points="27.8734942 172.983445 28.0116294 171.115773 30.6049404 170.962889 30.4718467 172.83056 27.8734942 172.983445"></polyline>
                    <polyline id="Fill-396" fill="#BDBDBA" points="28.091284 170.042482 28.2284108 168.174811 30.8146639 168.022959 30.6815702 169.889598 28.091284 170.042482"></polyline>
                    <polyline id="Fill-397" fill="#DFDFDF" points="156.627556 39.3220242 127.541536 37.1434188 127.495155 35.6300679 156.99558 37.0959006 156.627556 39.3220242"></polyline>
                    <polyline id="Fill-398" fill="#5B727C" points="127.541536 37.1434188 126.919424 37.0969336 126.835736 35.5970118 127.495155 35.6300679 127.541536 37.1434188"></polyline>
                    <polyline id="Fill-399" fill="#D9D9D3" points="126.919424 37.0969336 67.6493602 32.6570824 126.835736 35.5970118 126.919424 37.0969336"></polyline>
                    <polyline id="Fill-400" fill="#FFFFFE" points="150.269306 216.105164 28.0368365 206.950682 40.6172183 30.6530547 162.848679 39.8085691 150.269306 216.105164"></polyline>
                    <polyline id="Fill-401" fill="#E0E0DD" points="28.4693911 200.229958 78.0336955 203.942575 90.0534704 35.4916454 40.489166 31.779029 28.4693911 200.229958"></polyline>
                    <polyline id="Fill-402" fill="#D0021B" points="161.225339 62.8683174 38.9384225 53.7097039 40.5849531 30.6303286 162.87187 39.788942 161.225339 62.8683174"></polyline>
                    <polyline id="Fill-403" fill="#D0021B" points="150.270314 216.163012 28.0086045 207.006464 28.4915734 200.232024 150.753283 209.389605 150.270314 216.163012"></polyline>
                    <polyline id="Fill-404" fill="#E0E0DD" points="153.40205 71.7428548 89.7116615 66.9724423 90.0212052 62.6255615 153.712602 67.3959739 153.40205 71.7428548"></polyline>
                    <polyline id="Fill-405" fill="#E0E0DD" points="149.620978 124.731828 85.9305898 119.961415 86.2401335 115.614535 149.93153 120.384947 149.620978 124.731828"></polyline>
                    <polyline id="Fill-406" fill="#E0E0DD" points="145.793525 178.378825 82.1021287 173.608412 82.4126807 169.261531 146.103069 174.031944 145.793525 178.378825"></polyline>
                    <path d="M77.4710721,56.5959171 C76.9255895,64.2339487 70.4402953,69.9733189 62.9850302,69.4144637 C55.5287568,68.8566416 49.926721,62.2113269 50.4722036,54.5732953 C51.0166779,46.9352637 57.5029804,41.1958935 64.9582455,41.7547487 C72.4135106,42.3125708 78.0155464,48.9578855 77.4710721,56.5959171" id="Fill-407" fill="#FFFFFF"></path>
                    <polyline id="Fill-408" fill="#E0E0DD" points="96.5982534 72.5176078 89.4837889 71.9856107 89.5856258 70.5610982 96.7000903 71.0941282 96.5982534 72.5176078"></polyline>
                    <polyline id="Fill-409" fill="#E0E0DD" points="130.881987 78.27144 89.2579329 75.153834 89.3779189 73.4793345 131.000964 76.5969405 130.881987 78.27144"></polyline>
                    <polyline id="Fill-410" fill="#E0E0DD" points="130.675288 81.1628182 89.0522426 78.0452122 89.1712203 76.3707127 130.795274 79.4883187 130.675288 81.1628182"></polyline>
                    <polyline id="Fill-411" fill="#E0E0DD" points="111.247638 80.9314253 88.9645217 79.2620909 88.845544 80.9376234 111.127652 82.6059248 111.247638 80.9314253"></polyline>
                    <polyline id="Fill-412" fill="#E0E0DD" points="95.6474399 85.8350953 88.5339837 85.3020652 88.6358206 83.8785857 95.7492768 84.4116158 95.6474399 85.8350953"></polyline>
                    <polyline id="Fill-413" fill="#E0E0DD" points="129.931173 91.5889276 88.3081277 88.4713215 88.4271054 86.796822 130.051159 89.9133951 129.931173 91.5889276"></polyline>
                    <polyline id="Fill-414" fill="#E0E0DD" points="129.725483 94.4803058 88.1014291 91.3626997 88.2214151 89.6882002 129.844461 92.8058063 129.725483 94.4803058"></polyline>
                    <polyline id="Fill-415" fill="#E0E0DD" points="110.296824 94.2478799 88.0147165 92.5795784 87.8947305 94.2540779 110.177846 95.9234124 110.296824 94.2478799"></polyline>
                    <polyline id="Fill-416" fill="#E0E0DD" points="94.6976347 99.1525829 87.5841785 98.6195528 87.6850071 97.1950403 94.7994716 97.7280704 94.6976347 99.1525829"></polyline>
                    <polyline id="Fill-417" fill="#E0E0DD" points="128.981368 104.906415 87.3573142 101.788809 87.4773002 100.113277 129.100346 103.230883 128.981368 104.906415"></polyline>
                    <polyline id="Fill-418" fill="#E0E0DD" points="128.774669 107.797793 87.1516239 104.680187 87.2706016 103.004655 128.894655 106.122261 128.774669 107.797793"></polyline>
                    <polyline id="Fill-419" fill="#E0E0DD" points="109.347019 107.565367 87.0649113 105.897066 86.9449253 107.571565 109.227033 109.2409 109.347019 107.565367"></polyline>
                    <polyline id="Fill-420" fill="#E0E0DD" points="92.8202066 125.466294 85.7057421 124.933264 85.8075789 123.508751 92.9210352 124.041781 92.8202066 125.466294"></polyline>
                    <polyline id="Fill-421" fill="#E0E0DD" points="127.10394 131.219093 85.4798861 128.10252 85.5998721 126.426987 127.222918 129.544594 127.10394 131.219093"></polyline>
                    <polyline id="Fill-422" fill="#E0E0DD" points="126.897241 134.111504 85.2731875 130.993898 85.3931735 129.318366 127.016219 132.435972 126.897241 134.111504"></polyline>
                    <polyline id="Fill-423" fill="#E0E0DD" points="107.468582 133.879078 85.1864749 132.209744 85.0674972 133.885276 107.349605 135.553578 107.468582 133.879078"></polyline>
                    <polyline id="Fill-424" fill="#E0E0DD" points="91.8693931 138.783781 84.7559369 138.250751 84.8577737 136.826239 91.97123 137.359269 91.8693931 138.783781"></polyline>
                    <polyline id="Fill-425" fill="#E0E0DD" points="126.153126 144.536581 84.5300809 141.418974 84.6490586 139.744475 126.273112 142.862081 126.153126 144.536581"></polyline>
                    <polyline id="Fill-426" fill="#E0E0DD" points="125.946428 147.427959 84.3233823 144.310353 84.4433683 142.635853 126.066414 145.753459 125.946428 147.427959"></polyline>
                    <polyline id="Fill-427" fill="#E0E0DD" points="106.518777 147.196566 84.2366697 145.527231 84.1166837 147.202764 106.398791 148.871065 106.518777 147.196566"></polyline>
                    <polyline id="Fill-428" fill="#E0E0DD" points="90.9195879 152.100236 83.8051234 151.568239 83.9069602 150.143726 91.0214247 150.676756 90.9195879 152.100236"></polyline>
                    <polyline id="Fill-429" fill="#E0E0DD" points="125.203321 157.854068 83.5792674 154.736462 83.6992534 153.061963 125.322299 156.179569 125.203321 157.854068"></polyline>
                    <polyline id="Fill-430" fill="#E0E0DD" points="124.996623 160.745446 83.3735771 157.62784 83.4925548 155.953341 125.116609 159.070947 124.996623 160.745446"></polyline>
                    <polyline id="Fill-431" fill="#E0E0DD" points="105.568972 160.514053 83.2858562 158.844719 83.1668785 160.519218 105.448986 162.188553 105.568972 160.514053"></polyline>
                    <polyline id="Fill-432" fill="#FFFFFE" points="77.4287241 120.868393 53.8408864 119.101956 53.9084415 118.152625 77.4962792 119.919062 77.4287241 120.868393"></polyline>
                    <polyline id="Fill-433" fill="#D0021B" points="76.0140991 120.761994 53.8408864 119.101956 53.9084415 118.152625 76.0816543 119.813696 76.0140991 120.761994"></polyline>
                    <polyline id="Fill-434" fill="#FFFFFE" points="77.1343046 124.991112 53.5464669 123.224675 53.6140221 122.275344 77.2018598 124.041781 77.1343046 124.991112"></polyline>
                    <polyline id="Fill-435" fill="#D0021B" points="70.2315801 124.473577 53.5464669 123.224675 53.6140221 122.275344 70.2991353 123.525279 70.2315801 124.473577"></polyline>
                    <polyline id="Fill-436" fill="#FFFFFE" points="76.8398852 129.113831 53.2520475 127.346361 53.3206109 126.398063 76.9074403 128.1645 76.8398852 129.113831"></polyline>
                    <polyline id="Fill-437" fill="#D0021B" points="73.6073209 128.871075 53.2520475 127.346361 53.3206109 126.398063 73.6748761 127.922777 73.6073209 128.871075"></polyline>
                    <polyline id="Fill-438" fill="#FFFFFE" points="51.5500611 119.367438 40.8289583 118.563761 40.9590272 116.745674 51.6791217 117.549351 51.5500611 119.367438"></polyline>
                    <polyline id="Fill-439" fill="#FFFFFE" points="80.3910677 83.0873047 43.8225588 80.3488111 43.9526277 78.530724 80.5211366 81.2692176 80.3910677 83.0873047"></polyline>
                    <polyline id="Fill-440" fill="#FFFFFE" points="80.1470625 86.5024159 43.5785536 83.7639223 43.7086225 81.9448023 80.2771314 84.6843289 80.1470625 86.5024159"></polyline>
                    <polyline id="Fill-441" fill="#FFFFFE" points="79.9040657 89.9175271 43.3355568 87.1780005 43.4646174 85.3599135 80.0331262 88.0984071 79.9040657 89.9175271"></polyline>
                    <polyline id="Fill-442" fill="#FFFFFE" points="69.5993849 92.5785454 43.0915516 90.5931117 43.2216205 88.7750247 69.7294538 90.7604584 69.5993849 92.5785454"></polyline>
                    <polyline id="Fill-443" fill="#FFFFFE" points="51.2556416 123.490157 40.5345389 122.68648 40.6646077 120.868393 51.3857105 121.671037 51.2556416 123.490157"></polyline>
                    <polyline id="Fill-444" fill="#FFFFFE" points="50.9612222 127.611843 40.2411277 126.809199 40.3701883 124.991112 51.091291 125.793756 50.9612222 127.611843"></polyline>
                    <polyline id="Fill-445" fill="#D0021B" points="66.7227456 115.24162 52.3516483 114.16523 52.505916 112.000054 66.8770133 113.076444 66.7227456 115.24162"></polyline>
                    <polyline id="Fill-446" fill="#D0021B" points="69.4047858 77.6619677 55.0326802 76.5855775 55.1869479 74.4214341 69.5590535 75.4978243 69.4047858 77.6619677"></polyline>
                    <polyline id="Fill-447" fill="#FFFFFE" points="75.3637548 149.799736 51.7759171 148.033299 51.8444805 147.083968 75.4323182 148.850405 75.3637548 149.799736"></polyline>
                    <polyline id="Fill-448" fill="#D0021B" points="73.9501381 149.693337 51.7759171 148.033299 51.8444805 147.083968 74.0176932 148.745039 73.9501381 149.693337"></polyline>
                    <polyline id="Fill-449" fill="#FFFFFE" points="75.0703436 153.922455 51.4825059 152.154985 51.5500611 151.206687 75.1378988 152.973124 75.0703436 153.922455"></polyline>
                    <polyline id="Fill-450" fill="#D0021B" points="68.1666108 153.40492 51.4825059 152.154985 51.5500611 151.206687 68.2351743 152.456622 68.1666108 153.40492"></polyline>
                    <polyline id="Fill-451" fill="#FFFFFE" points="74.7759242 158.044141 51.1880865 156.277704 51.2556416 155.329406 74.8434793 157.095843 74.7759242 158.044141"></polyline>
                    <polyline id="Fill-452" fill="#D0021B" points="71.5433599 157.802418 51.1880865 156.277704 51.2556416 155.329406 71.6109151 156.85412 71.5433599 157.802418"></polyline>
                    <polyline id="Fill-453" fill="#FFFFFE" points="49.4850918 148.298781 38.7649973 147.495104 38.8940579 145.677017 49.6151606 146.479661 49.4850918 148.298781"></polyline>
                    <polyline id="Fill-454" fill="#FFFFFE" points="49.1916806 152.420467 38.4705779 151.617823 38.6006467 149.799736 49.3207412 150.60238 49.1916806 152.420467"></polyline>
                    <polyline id="Fill-455" fill="#FFFFFE" points="48.8972612 156.543186 38.1761584 155.740542 38.3062273 153.922455 49.02733 154.725099 48.8972612 156.543186"></polyline>
                    <polyline id="Fill-456" fill="#FFFFFE" points="74.4815047 162.16686 50.893667 160.400423 50.9612222 159.452125 74.5490599 161.218562 74.4815047 162.16686"></polyline>
                    <polyline id="Fill-457" fill="#D0021B" points="73.067888 162.061493 50.893667 160.400423 50.9612222 159.452125 73.1354432 161.112163 73.067888 162.061493"></polyline>
                    <polyline id="Fill-458" fill="#FFFFFE" points="48.6028417 160.665905 37.881739 159.863261 38.0118078 158.045174 48.7329106 158.847818 48.6028417 160.665905"></polyline>
                    <polyline id="Fill-459" fill="#FFFFFE" points="74.1870853 166.289579 50.5992476 164.523142 50.667811 163.573811 74.2556487 165.341281 74.1870853 166.289579"></polyline>
                    <polyline id="Fill-460" fill="#D0021B" points="64.1576665 165.538585 50.5992476 164.523142 50.667811 163.573811 64.2252217 164.589254 64.1576665 165.538585"></polyline>
                    <polyline id="Fill-461" fill="#FFFFFE" points="48.3084223 164.788624 37.5883278 163.98598 37.7173884 162.16686 48.4384911 162.970537 48.3084223 164.788624"></polyline>
                    <polyline id="Fill-462" fill="#D0021B" points="64.6587846 144.17193 50.286679 143.09554 50.441955 140.931397 64.8130523 142.007787 64.6587846 144.17193"></polyline>
                    <polyline id="Fill-463" fill="#D0021B" points="62.0190924 181.159671 47.6479951 180.083281 47.8022628 177.919138 62.1733601 178.995528 62.0190924 181.159671"></polyline>
                    <polyline id="Fill-464" fill="#FFFFFE" points="65.5601921 185.594358 43.5150316 183.943617 43.6239265 182.419936 65.6690869 184.07171 65.5601921 185.594358"></polyline>
                    <polyline id="Fill-465" fill="#FFFFFE" points="65.3655929 188.322521 43.3204325 186.670748 43.4293274 185.1481 65.4744878 186.79884 65.3655929 188.322521"></polyline>
                    <polyline id="Fill-466" fill="#FFFFFE" points="65.1709938 191.049652 43.1258333 189.398911 43.2347282 187.87523 65.2798886 189.527004 65.1709938 191.049652"></polyline>
                    <polyline id="Fill-467" fill="#FFFFFE" points="137.530623 54.0640243 91.1787173 50.5920979 91.5033854 46.0448143 137.855291 49.5167407 137.530623 54.0640243"></polyline>
                    <polyline id="Fill-468" fill="#FFFFFF" points="108.014065 55.0959953 90.9488282 53.8181694 91.0748639 52.0476005 108.141109 53.3264595 108.014065 55.0959953"></polyline>
                    <polyline id="Fill-469" fill="#E0E0DD" points="89.6511644 180.308476 82.0617972 179.739291 82.1444767 178.584392 89.7338438 179.153578 89.6511644 180.308476"></polyline>
                    <polyline id="Fill-470" fill="#E0E0DD" points="95.4992219 184.402271 81.8026678 183.376498 81.8853472 182.221599 95.5819014 183.247372 95.4992219 184.402271"></polyline>
                    <polyline id="Fill-471" fill="#E0E0DD" points="95.6292908 182.584184 81.9327367 181.558411 82.0144078 180.403512 95.7119702 181.429285 95.6292908 182.584184"></polyline>
                    <polyline id="Fill-472" fill="#E0E0DD" points="124.488447 182.916811 116.900088 182.348659 116.982767 181.19376 124.571126 181.762946 124.488447 182.916811"></polyline>
                    <polyline id="Fill-473" fill="#E0E0DD" points="130.337512 187.011639 116.63995 185.985866 116.722629 184.830968 130.419184 185.856741 130.337512 187.011639"></polyline>
                    <polyline id="Fill-474" fill="#E0E0DD" points="130.466573 185.193552 116.770019 184.167779 116.852698 183.012881 130.549252 184.038653 130.466573 185.193552"></polyline>
                    <polyline id="Fill-475" fill="#E0E0DD" points="88.902008 190.814127 81.3126409 190.245975 81.3953203 189.091076 88.9836792 189.659228 88.902008 190.814127"></polyline>
                    <polyline id="Fill-476" fill="#E0E0DD" points="94.7500656 194.907922 81.0535115 193.882149 81.1351826 192.72725 94.8317367 193.753023 94.7500656 194.907922"></polyline>
                    <polyline id="Fill-477" fill="#E0E0DD" points="94.8791262 193.089835 81.182572 192.064062 81.2652515 190.909163 94.9618056 191.934936 94.8791262 193.089835"></polyline>
                    <polyline id="Fill-478" fill="#E0E0DD" points="123.73929 193.423495 116.149923 192.85431 116.232603 191.699411 123.82197 192.268596 123.73929 193.423495"></polyline>
                    <polyline id="Fill-479" fill="#E0E0DD" points="129.587348 197.51729 115.890794 196.491517 115.973473 195.336618 129.670027 196.362391 129.587348 197.51729"></polyline>
                    <polyline id="Fill-480" fill="#E0E0DD" points="129.717417 195.699203 116.020863 194.67343 116.102534 193.518531 129.800096 194.544304 129.717417 195.699203"></polyline>
                    <polyline id="Fill-481" fill="#DB6835" points="56.5834237 205.851566 40.609152 204.654314 40.7180469 203.130633 56.6923186 204.326852 56.5834237 205.851566"></polyline>
                    <polyline id="Fill-482" fill="#DB6835" points="83.8394051 207.892782 67.8651334 206.696563 67.9740282 205.171849 83.9483 206.368068 83.8394051 207.892782"></polyline>
                    <polyline id="Fill-483" fill="#DB6835" points="111.094378 209.933998 95.1201065 208.737779 95.2290013 207.213065 111.203273 208.409284 111.094378 209.933998"></polyline>
                    <polyline id="Fill-484" fill="#DB6835" points="138.35036 211.975214 122.376088 210.778995 122.484983 209.254281 138.458246 210.4505 138.35036 211.975214"></polyline>
                    <polyline id="Fill-596" fill="#DFDFDF" points="160.208987 39.5895723 156.627556 39.3220242 156.99558 37.0959006 160.368296 37.2632473 160.208987 39.5895723"></polyline>
                    <polyline id="Fill-599" fill="#BDBDBA" points="153.40205 71.7428548 151.303807 71.5858381 152.015657 67.2689144 153.712602 67.3959739 153.40205 71.7428548"></polyline>
                    <g id="Group" stroke-width="1" transform="translate(64.500000, 56.010834) scale(-1, 1) translate(-64.500000, -56.010834) translate(49.000000, 40.010834)">
                        <g id="Group-3" transform="translate(0.000000, 0.989166)">
                            <mask id="mask-2" fill="white">
                                <use xlink:href="#path-1"></use>
                            </mask>
                            <g id="Clip-2"></g>
                            <path d="M15.4980572,0.00856489706 C6.94216845,0.00856489706 -9.69725579e-05,6.94771626 -9.69725579e-05,15.5011874 C-9.69725579e-05,24.0585369 6.94216845,30.9947795 15.4980572,30.9947795 C24.0520066,30.9947795 30.9923325,24.0585369 30.9923325,15.5011874 C30.9923325,6.94771626 24.0520066,0.00856489706 15.4980572,0.00856489706" id="Fill-1" fill="#FFFFFF" mask="url(#mask-2)"></path>
                        </g>
                        <path d="M11,14.9891663 L11,25.7404505 C11,26.6640628 11.0680794,26.9891663 12.2043341,26.9891663 L19.7956659,26.9891663 C20.9319206,26.9891663 21,26.6640628 21,25.7404505 L21,14.9891663 L11,14.9891663 Z" id="Fill-4" fill="#ED1C24"></path>
                        <path d="M15.5009429,12.9719162 L27,14.9891663 L27,12.3103231 C27,11.2377711 26.7256293,11.1819619 25.947774,10.873489 L15.5009429,6.98916634 L5.05316881,10.873489 C4.27437075,11.1819619 4,11.2377711 4,12.3103231 L4,14.9891663 L15.5009429,12.9719162 Z" id="Fill-6" fill="#ED1C24"></path>
                    </g>
                </g>
            </g>
        </g>
    </g>
</svg>