<?xml version="1.0" encoding="UTF-8"?>
<svg width="811px" height="604px" viewBox="0 0 811 604" version="1.1" xmlns="http://www.w3.org/2000/svg" xmlns:xlink="http://www.w3.org/1999/xlink">
    <!-- Generator: sketchtool 54.1 (76490) - https://sketchapp.com -->
    <title>9D8B5B68-7ED5-447C-8818-03873B4AE1AE</title>
    <desc>Created with sketchtool.</desc>
    <defs>
        <path d="M100.467,70.673 L9.907,70.673 C4.497,70.673 0.112,66.288 0.112,60.878 L0.112,10.176 C0.112,4.766 4.497,0.381 9.907,0.381 L100.467,0.381 C105.877,0.381 110.262,4.766 110.262,10.176 L110.262,60.878 C110.262,66.288 105.877,70.673 100.467,70.673" id="path-1"></path>
    </defs>
    <g id="Symbols" stroke="none" stroke-width="1" fill="none" fill-rule="evenodd">
        <g id="Homem-computador">
            <g transform="translate(7.000000, 0.000000)">
                <polygon id="Fill-40" fill="#B6B8B4" points="75.442 291.583 713.641 291.583 713.641 266.354 75.442 266.354"></polygon>
                <path d="M588.510149,521 C631.053481,521 672.966797,529.417673 710.710545,545.537422 L787.84754,578.473684 C800.1386,583.718252 795.602477,599 781.742102,599 L13.2473169,599 C-0.635967663,599 -5.13772579,583.671173 7.19915334,578.454853 L85.9169188,545.151376 C123.443025,529.276437 165.024149,521 207.223836,521 L588.510149,521 Z" id="Fill-217" fill="#F7D000"></path>
                <path d="M122.39,573.016 L104.803,573.016 C103.725,573.016 102.851,572.142 102.851,571.063 L102.851,291.76 L124.342,291.76 L124.342,571.063 C124.342,572.142 123.468,573.016 122.39,573.016" id="Fill-41" fill="#A1A4A0"></path>
                <path d="M684.279,573.016 L666.693,573.016 C665.614,573.016 664.74,572.142 664.74,571.063 L664.74,291.76 L686.232,291.76 L686.232,571.063 C686.232,572.142 685.357,573.016 684.279,573.016" id="Fill-42" fill="#A1A4A0"></path>
                <polygon id="Fill-43" fill="#8B8E8A" points="102.851 309.648 124.342 309.648 124.342 291.76 102.851 291.76"></polygon>
                <polygon id="Fill-44" fill="#8B8E8A" points="664.74 309.648 686.232 309.648 686.232 291.76 664.74 291.76"></polygon>
                <path d="M160.434,533.238 L145.874,533.238 C144.795,533.238 143.921,532.364 143.921,531.285 L143.921,291.583 L162.386,291.583 L162.386,531.285 C162.386,532.364 161.512,533.238 160.434,533.238" id="Fill-45" fill="#8B8E8A"></path>
                <path d="M643.209,533.238 L628.648,533.238 C627.57,533.238 626.696,532.364 626.696,531.285 L626.696,291.583 L645.161,291.583 L645.161,531.285 C645.161,532.364 644.287,533.238 643.209,533.238" id="Fill-46" fill="#8B8E8A"></path>
                <path d="M225.821,266.354 C225.821,263.905 227.814,261.912 230.261,261.912 L443.657,261.912 C446.107,261.912 448.099,263.905 448.099,266.354 L225.821,266.354" id="Fill-47" fill="#F3F1ED"></path>
                <path d="M246.332,261.912 L246.332,260.511 C246.332,259.701 245.675,259.044 244.865,259.044 L236.668,259.044 C235.858,259.044 235.201,259.701 235.201,260.511 L235.201,261.912 L246.332,261.912" id="Fill-48" fill="#757975"></path>
                <path d="M260.374,261.912 L260.374,260.511 C260.374,259.701 259.717,259.044 258.906,259.044 L250.709,259.044 C249.899,259.044 249.242,259.701 249.242,260.511 L249.242,261.912 L260.374,261.912" id="Fill-49" fill="#757975"></path>
                <path d="M274.415,261.912 L274.415,260.511 C274.415,259.701 273.758,259.044 272.947,259.044 L264.75,259.044 C263.94,259.044 263.283,259.701 263.283,260.511 L263.283,261.912 L274.415,261.912" id="Fill-50" fill="#757975"></path>
                <path d="M288.456,261.912 L288.456,260.511 C288.456,259.701 287.799,259.044 286.989,259.044 L278.792,259.044 C277.981,259.044 277.324,259.701 277.324,260.511 L277.324,261.912 L288.456,261.912" id="Fill-51" fill="#757975"></path>
                <path d="M365.898,261.912 L365.898,260.511 C365.898,259.701 365.241,259.044 364.43,259.044 L292.833,259.044 C292.022,259.044 291.365,259.701 291.365,260.511 L291.365,261.912 L365.898,261.912" id="Fill-52" fill="#757975"></path>
                <path d="M379.939,261.912 L379.939,260.511 C379.939,259.701 379.282,259.044 378.471,259.044 L370.274,259.044 C369.464,259.044 368.807,259.701 368.807,260.511 L368.807,261.912 L379.939,261.912" id="Fill-53" fill="#757975"></path>
                <path d="M393.98,261.912 L393.98,260.511 C393.98,259.701 393.323,259.044 392.512,259.044 L384.315,259.044 C383.505,259.044 382.848,259.701 382.848,260.511 L382.848,261.912 L393.98,261.912" id="Fill-54" fill="#757975"></path>
                <path d="M407.528,261.912 L407.528,260.511 C407.528,259.701 406.871,259.044 406.06,259.044 L397.863,259.044 C397.053,259.044 396.396,259.701 396.396,260.511 L396.396,261.912 L407.528,261.912" id="Fill-55" fill="#757975"></path>
                <path d="M436.167,261.912 L436.167,260.511 C436.167,259.701 435.51,259.044 434.699,259.044 L426.502,259.044 C425.692,259.044 425.035,259.701 425.035,260.511 L425.035,261.912 L436.167,261.912" id="Fill-56" fill="#757975"></path>
                <path d="M421.569,261.912 L421.569,260.511 C421.569,259.701 420.912,259.044 420.101,259.044 L411.904,259.044 C411.094,259.044 410.437,259.701 410.437,260.511 L410.437,261.912 L421.569,261.912" id="Fill-57" fill="#757975"></path>
                <path d="M669.412,266.354 L619.266,266.354 L619.266,218.699 C619.266,215.259 622.055,212.47 625.495,212.47 L663.183,212.47 C666.623,212.47 669.412,215.259 669.412,218.699 L669.412,266.354" id="Fill-58" fill="#F3F1ED"></path>
                <path d="M676.316,252.316 L669.333,252.316 L669.333,248.578 L676.316,248.578 C678.221,248.578 679.769,247.027 679.769,245.122 L679.769,232.558 C679.769,229.81 677.535,227.576 674.786,227.576 L669.333,227.576 L669.333,223.838 L674.786,223.838 C679.593,223.838 683.506,227.751 683.506,232.558 L683.506,245.122 C683.506,249.089 680.28,252.316 676.316,252.316" id="Fill-59" fill="#F3F1ED"></path>
                <polygon id="Fill-64" fill="#A1A4A0" points="349.371 263.37 417.998 263.37 417.998 215.629 349.371 215.629"></polygon>
                <polygon id="Fill-65" fill="#757975" points="349.371 227.564 417.998 227.564 417.998 215.629 349.371 215.629"></polygon>
                <path d="M431.066,266.354 C430.909,264.688 429.552,263.37 427.845,263.37 L339.524,263.37 C337.817,263.37 336.46,264.688 336.303,266.354 L431.066,266.354" id="Fill-66" fill="#8B8E8A"></path>
                <path d="M534.267,215.629 L236.682,215.629 C228.992,215.629 222.758,209.395 222.758,201.705 L222.758,13.924 C222.758,6.234 228.992,0 236.682,0 L534.267,0 C541.957,0 548.191,6.234 548.191,13.924 L548.191,201.705 C548.191,209.395 541.957,215.629 534.267,215.629" id="Fill-67" fill="#2F3231"></path>
                <path d="M222.758,181.017 L222.758,201.705 C222.758,209.395 228.992,215.629 236.682,215.629 L534.267,215.629 C541.958,215.629 548.191,209.395 548.191,201.705 L548.191,181.017 L222.758,181.017" id="Fill-68" fill="#A1A4A0"></path>
                <path d="M531.383,172.961 L239.567,172.961 C236.106,172.961 233.301,170.155 233.301,166.695 L233.301,19.593 C233.301,16.133 236.106,13.327 239.567,13.327 L531.383,13.327 C534.843,13.327 537.649,16.133 537.649,19.593 L537.649,166.695 C537.649,170.155 534.843,172.961 531.383,172.961" id="Fill-69" fill="#B4F700"></path>
                <path d="M392.934,198.323 C392.934,194.203 389.594,190.864 385.475,190.864 C381.355,190.864 378.015,194.203 378.015,198.323 C378.015,202.443 381.355,205.783 385.475,205.783 C389.594,205.783 392.934,202.443 392.934,198.323" id="Fill-70" fill="#CDCEC8"></path>
                <polyline id="Fill-71" fill="#2CAE9B" points="342.236 139.605 342.834 137.081 346.608 140.641 341.618 142.135 342.236 139.605"></polyline>
                <polyline id="Fill-72" fill="#DC8F6B" points="321.903 156.186 327.039 155.454 325.104 160.268 321.903 156.186"></polyline>
                <polyline id="Fill-73" fill="#E46F70" points="325.012 113.476 328.77 109.899 329.988 114.943 325.012 113.476"></polyline>
                <polyline id="Fill-74" fill="#775B74" points="295.766 137.401 299.962 134.349 300.506 139.508 295.766 137.401"></polyline>
                <path d="M337.276,123.004 C333.695,118.164 327.946,115.025 321.463,115.025 C319.07,115.025 316.776,115.455 314.654,116.238 L321.463,134.685 L337.276,123.004" id="Fill-75" fill="#E46F70"></path>
                <path d="M314.654,116.238 C307.153,119.008 301.803,126.222 301.803,134.686 C301.803,144.635 309.197,152.854 318.789,154.159 L321.463,134.686 L314.654,116.238" id="Fill-76" fill="#775B74"></path>
                <path d="M341.124,134.685 C341.124,130.31 339.693,126.27 337.276,123.004 L321.463,134.685 L328.982,152.853 C336.109,149.901 341.124,142.88 341.124,134.685" id="Fill-77" fill="#45B2A0"></path>
                <path d="M321.463,134.685 L318.789,154.16 C319.664,154.279 320.556,154.346 321.463,154.346 C324.127,154.346 326.666,153.813 328.982,152.853 L321.463,134.685" id="Fill-78" fill="#DC8F6B"></path>
                <path d="M452.785,39.925 C450.472,39.925 448.256,40.339 446.206,41.096 L446.832,42.794 L447.4,44.329 C449.078,43.71 450.892,43.37 452.785,43.37 C457.912,43.37 462.458,45.853 465.29,49.68 L466.607,48.708 L468.061,47.633 C464.601,42.957 459.048,39.925 452.785,39.925" id="Fill-79" fill="#DC8F6B"></path>
                <path d="M459.357,74.799 L458.731,73.287 C456.899,74.045 454.891,74.466 452.785,74.466 C452.067,74.466 451.362,74.413 450.669,74.319 L450.447,75.941 L450.2,77.732 C451.046,77.847 451.908,77.912 452.785,77.912 C455.358,77.912 457.811,77.398 460.049,76.47 L459.357,74.799" id="Fill-80" fill="#45B2A0"></path>
                <path d="M438.718,58.918 C438.718,52.862 442.545,47.701 447.912,45.719 L447.4,44.329 L446.832,42.794 L446.206,41.096 L445.513,39.22 C437.503,42.177 431.792,49.881 431.792,58.918 C431.792,69.543 439.685,78.323 449.928,79.717 L450.2,77.732 L450.447,75.941 L450.669,74.319 L450.871,72.852 C444.008,71.918 438.718,66.038 438.718,58.918" id="Fill-81" fill="#775B74"></path>
                <path d="M469.67,46.444 L468.061,47.633 L466.607,48.708 L465.29,49.68 L464.099,50.56 C465.828,52.897 466.852,55.788 466.852,58.918 C466.852,64.782 463.264,69.805 458.165,71.918 L460.814,78.32 C468.424,75.167 473.778,67.669 473.778,58.918 C473.778,54.247 472.251,49.932 469.67,46.444" id="Fill-82" fill="#E46F70"></path>
                <path d="M484.179,58.194 C483.636,58.101 483.133,58.268 482.77,58.591 C482.132,59.157 481.307,59.468 480.454,59.468 L469.433,59.468 L469.433,60.232 L480.454,60.232 C481.311,60.232 482.133,60.551 482.776,61.116 C483.071,61.375 483.457,61.533 483.881,61.533 C484.921,61.533 485.741,60.589 485.53,59.511 C485.399,58.842 484.851,58.309 484.179,58.194" id="Fill-83" fill="#E46F70"></path>
                <path d="M439.276,72.996 L438.578,72.685 L432.497,79.795 C431.962,80.421 431.181,80.781 430.358,80.781 L423.722,80.781 C422.869,80.781 422.044,80.47 421.406,79.903 C421.043,79.58 420.539,79.413 419.996,79.506 C419.325,79.622 418.776,80.154 418.646,80.823 C418.435,81.901 419.254,82.845 420.295,82.845 C420.718,82.845 421.105,82.688 421.399,82.429 C422.043,81.864 422.865,81.545 423.721,81.545 L430.832,81.545 C431.667,81.545 432.459,81.174 432.994,80.533 L439.276,72.996" id="Fill-84" fill="#775B74"></path>
                <path d="M458.792,41.776 L459.49,42.087 L462.355,35.66 C462.807,34.645 463.814,33.991 464.926,33.991 L474.346,33.991 C475.199,33.991 476.024,34.303 476.661,34.869 C477.025,35.192 477.529,35.359 478.071,35.266 C478.743,35.15 479.291,34.618 479.422,33.949 C479.633,32.871 478.813,31.927 477.773,31.927 C477.349,31.927 476.963,32.085 476.668,32.343 C476.025,32.909 475.203,33.227 474.347,33.227 L464.429,33.227 C463.318,33.227 462.311,33.881 461.859,34.896 L458.792,41.776" id="Fill-85" fill="#DC8F6B"></path>
                <path d="M455.287,77.302 L455.985,76.99 L457.227,82.855 C457.503,84.156 458.651,85.086 459.98,85.086 L465.159,85.086 C466.012,85.086 466.836,84.775 467.474,84.209 C467.837,83.886 468.341,83.719 468.884,83.812 C469.556,83.928 470.104,84.46 470.235,85.129 C470.446,86.207 469.626,87.151 468.586,87.151 C468.162,87.151 467.776,86.993 467.481,86.735 C466.838,86.169 466.016,85.851 465.16,85.851 L459.457,85.851 C458.14,85.851 456.999,84.937 456.711,83.652 L455.287,77.302" id="Fill-86" fill="#45B2A0"></path>
                <path d="M438.854,161.462 L438.854,118.968 C438.854,116.302 436.652,114.141 433.937,114.141 C431.222,114.141 429.021,116.302 429.021,118.968 L429.021,161.462 L438.854,161.462" id="Fill-87" fill="#52B6A4"></path>
                <path d="M433.847,114.146 C431.174,114.193 429.021,116.332 429.021,118.968 L429.021,161.462 L433.847,161.462 L433.847,114.146" id="Fill-88" fill="#1BAC99"></path>
                <path d="M451.922,161.462 L451.922,130.06 C451.922,127.394 449.721,125.233 447.006,125.233 C444.291,125.233 442.09,127.394 442.09,130.06 L442.09,161.462 L451.922,161.462" id="Fill-89" fill="#71546E"></path>
                <path d="M446.953,125.235 C444.262,125.264 442.09,127.411 442.09,130.06 L442.09,161.462 L446.953,161.462 L446.953,125.235" id="Fill-90" fill="#644561"></path>
                <path d="M464.991,161.462 L464.991,141.151 C464.991,138.486 462.79,136.324 460.075,136.324 C457.36,136.324 455.159,138.486 455.159,141.151 L455.159,161.462 L464.991,161.462" id="Fill-91" fill="#ED984A"></path>
                <path d="M459.897,136.333 C457.265,136.426 455.159,138.544 455.159,141.151 L455.159,161.462 L459.897,161.462 L459.897,136.333" id="Fill-92" fill="#EB8E3B"></path>
                <path d="M478.06,161.462 L478.06,150.415 C478.06,147.749 475.859,145.588 473.144,145.588 C470.429,145.588 468.227,147.749 468.227,150.415 L468.227,161.462 L478.06,161.462" id="Fill-93" fill="#E46F70"></path>
                <path d="M473.166,145.589 L473.144,145.588 C470.429,145.588 468.227,147.749 468.227,150.415 L468.227,161.462 L473.166,161.462 L473.166,145.589" id="Fill-94" fill="#E16066"></path>
                <polygon id="Fill-95" fill="#CDCEC8" points="420.402 161.13 424.452 161.13 424.452 160.216 420.402 160.216"></polygon>
                <polygon id="Fill-96" fill="#CDCEC8" points="420.402 156.048 424.452 156.048 424.452 155.134 420.402 155.134"></polygon>
                <polygon id="Fill-97" fill="#CDCEC8" points="420.402 150.965 424.452 150.965 424.452 150.051 420.402 150.051"></polygon>
                <polygon id="Fill-98" fill="#CDCEC8" points="420.402 145.883 424.452 145.883 424.452 144.969 420.402 144.969"></polygon>
                <polygon id="Fill-99" fill="#CDCEC8" points="420.402 140.8 424.452 140.8 424.452 139.886 420.402 139.886"></polygon>
                <polygon id="Fill-100" fill="#CDCEC8" points="420.402 135.717 424.452 135.717 424.452 134.803 420.402 134.803"></polygon>
                <polygon id="Fill-101" fill="#CDCEC8" points="420.402 130.635 424.452 130.635 424.452 129.721 420.402 129.721"></polygon>
                <polygon id="Fill-102" fill="#CDCEC8" points="420.402 125.552 424.452 125.552 424.452 124.638 420.402 124.638"></polygon>
                <polygon id="Fill-103" fill="#CDCEC8" points="420.402 120.47 424.452 120.47 424.452 119.556 420.402 119.556"></polygon>
                <polygon id="Fill-104" fill="#CDCEC8" points="420.402 115.387 424.452 115.387 424.452 114.473 420.402 114.473"></polygon>
                <polygon id="Fill-105" fill="#CDCEC8" points="420.402 110.304 424.452 110.304 424.452 109.39 420.402 109.39"></polygon>
                <path d="M483.47,161.895 L426.695,161.895 C426.527,161.895 426.391,161.759 426.391,161.59 L426.391,108.577 C426.391,108.409 426.527,108.272 426.695,108.272 C426.863,108.272 427,108.409 427,108.577 L427,161.286 L483.47,161.286 C483.638,161.286 483.774,161.422 483.774,161.59 C483.774,161.759 483.638,161.895 483.47,161.895" id="Fill-106" fill="#CDCEC8"></path>
                <path d="M366.467,94.685 L275.907,94.685 C270.497,94.685 266.112,90.3 266.112,84.89 L266.112,34.188 C266.112,28.778 270.497,24.393 275.907,24.393 L366.467,24.393 C371.877,24.393 376.262,28.778 376.262,34.188 L376.262,84.89 C376.262,90.3 371.877,94.685 366.467,94.685" id="Fill-107" fill="#CDCEC8"></path>
                <g id="Group-110" transform="translate(266.000000, 24.012000)">
                    <mask id="mask-2" fill="white">
                        <use xlink:href="#path-1"></use>
                    </mask>
                    <g id="Clip-109"></g>
                    <polyline id="Fill-108" fill="#E46F70" mask="url(#mask-2)" points="21.556 57.073 18.377 51.919 -5.579 55.357 -5.752 54.15 18.995 50.6 21.956 55.399 61.998 30.872 66.444 33.059 70.331 29.479 79.09 42.172 96.221 11.903 113.403 25.692 112.64 26.642 96.576 13.75 79.192 44.466 70.124 31.326 66.655 34.521 62.062 32.262 21.556 57.073"></polyline>
                </g>
                <path d="M521.217,246.258 C509.829,246.331 496.859,246.4 484.87,244.894 C482.892,230.768 484.265,203.968 484.265,203.968 L484.265,196.904 L535.768,196.904 L535.768,203.968 C535.768,203.968 534.018,230.326 536.734,236.875 C536.847,237.316 524.242,245.774 521.217,246.258" id="Fill-111" fill="#F6E079"></path>
                <path d="M526.697,237.242 C526.391,239.568 523.552,244.489 521.217,246.258 C524.242,245.774 536.847,237.316 536.734,236.875 C534.312,238.309 528.872,236.927 526.697,237.242" id="Fill-112" fill="#F4DA5D"></path>
                <path d="M528.426,236.237 C528.675,238.969 523.552,244.489 521.217,246.258 C524.242,245.774 536.847,237.316 536.734,236.875 C534.676,236.317 531.296,236.237 528.426,236.237" id="Fill-113" fill="#FAE793"></path>
                <polygon id="Fill-114" fill="#FAE793" points="484.265 203.968 535.768 203.968 535.768 196.904 484.265 196.904"></polygon>
                <path d="M500.388,230.469 C500.33,230.471 499.964,230.499 499.289,230.554 L499.139,224.456 C499.214,224.358 499.348,224.306 499.541,224.301 L500.033,224.308 C500.188,224.305 500.312,224.24 500.405,224.116 C500.499,223.991 500.543,223.852 500.54,223.697 C500.536,223.543 500.473,223.413 500.351,223.306 C500.23,223.2 500.093,223.148 499.942,223.152 C499.791,223.156 499.581,223.196 499.313,223.274 C499.191,223.309 499.095,223.334 499.025,223.348 C499.019,223.117 499.026,222.748 499.046,222.242 C499.066,221.737 499.072,221.352 499.066,221.088 L498.831,217.831 C498.876,217.823 498.947,217.818 499.043,217.816 L499.613,217.821 C500.211,217.806 500.505,217.603 500.496,217.21 C500.491,217.017 500.386,216.864 500.18,216.75 C499.975,216.636 499.772,216.581 499.573,216.586 L498.11,216.796 C498.004,216.901 497.845,217.137 497.635,217.503 L497.637,217.57 C497.643,217.802 497.696,218.138 497.797,218.58 C497.898,219.022 497.951,219.355 497.957,219.58 L498.24,231.063 C498.243,231.211 498.272,231.329 498.326,231.418 C498.446,231.608 498.751,231.697 499.24,231.685 L499.857,231.67 C500.121,231.663 500.336,231.652 500.503,231.635 C500.67,231.618 500.862,231.558 501.078,231.456 C501.294,231.354 501.445,231.212 501.531,231.03 L501.529,230.962 C501.521,230.615 501.14,230.451 500.388,230.469" id="Fill-115" fill="#E16066"></path>
                <path d="M505.417,224.684 L502.455,224.757 C502.32,224.761 502.213,224.803 502.135,224.886 C502.056,224.968 502.019,225.077 502.022,225.212 C502.029,225.502 502.296,225.64 502.824,225.627 L506.995,225.621 C507.13,225.617 507.24,225.573 507.324,225.487 C507.409,225.401 507.45,225.291 507.447,225.156 C507.438,224.808 506.762,224.651 505.417,224.684" id="Fill-116" fill="#E16066"></path>
                <path d="M506.242,222.511 L502.409,222.905 C502.274,222.908 502.167,222.951 502.089,223.033 C502.01,223.116 501.973,223.224 501.976,223.359 C501.986,223.739 502.386,223.919 503.177,223.9 L503.929,223.852 L504.016,223.85 C504.364,223.88 505.126,223.581 505.718,223.567 C507.107,223.532 507.798,223.342 507.789,222.994 C507.781,222.647 507.265,222.486 506.242,222.511" id="Fill-117" fill="#E16066"></path>
                <path d="M514.967,216.362 C514.964,216.239 514.914,216.126 514.819,216.023 C514.723,215.919 514.601,215.869 514.453,215.872 C514.305,215.876 514.165,215.931 514.032,216.037 C513.9,216.143 513.822,216.28 513.801,216.448 L513.804,216.564 C513.754,217.943 513.571,219.521 513.254,221.299 C513.147,221.907 512.984,222.76 512.767,223.86 C512.549,224.959 512.401,225.723 512.321,226.149 C512.292,226.034 512.136,225.306 511.852,223.964 C511.568,222.623 511.203,221.111 510.756,219.429 C510.203,217.37 509.73,216.333 509.337,216.317 L508.795,216.639 C508.796,217.489 508.808,218.341 508.829,219.197 L509.084,226.847 L509.067,230.053 C509.076,230.426 509.143,230.72 509.267,230.936 C509.392,231.152 509.624,231.256 509.965,231.247 C510.159,231.03 510.253,230.78 510.246,230.497 L509.882,222.376 C509.869,221.842 509.862,221.048 509.862,219.992 C509.955,220.376 510.163,221.111 510.486,222.197 C511.132,224.37 511.469,226.064 511.499,227.28 C511.529,228.509 511.779,229.117 512.249,229.106 C512.532,229.099 512.731,228.939 512.845,228.627 C512.9,228.472 512.94,228.331 512.965,228.204 C512.991,228.078 513.015,227.918 513.036,227.725 C513.057,227.531 513.073,227.409 513.085,227.357 L513.081,227.231 C513.155,226.554 513.334,225.576 513.617,224.297 C513.901,223.019 514.082,222.125 514.16,221.615 L514.184,222.618 L514.466,230.934 C514.479,231.455 514.646,231.711 514.968,231.703 C515.122,231.7 515.28,231.58 515.442,231.344 C515.604,231.108 515.68,230.833 515.673,230.518 C515.634,228.942 515.516,226.582 515.32,223.44 C515.123,220.297 515.006,217.938 514.967,216.362" id="Fill-118" fill="#E16066"></path>
                <path d="M520.946,229.785 C520.617,230.028 520.34,230.152 520.115,230.157 C519.568,230.171 519.134,229.937 518.813,229.456 C518.653,229.215 518.513,228.958 518.394,228.684 C518.274,228.41 518.174,228.078 518.094,227.687 C518.014,227.297 517.933,226.854 517.854,226.361 C517.774,225.867 517.715,224.855 517.678,223.324 L517.666,222.851 L517.806,221.467 L517.714,220.108 C517.688,219.04 517.798,218.284 518.045,217.84 C518.31,217.358 518.825,217.107 519.59,217.088 L519.862,217.129 L519.861,217.12 C519.962,217.278 520.142,217.354 520.403,217.348 C520.663,217.341 520.847,217.298 520.955,217.218 C521.062,217.138 521.114,217.028 521.111,216.886 C521.104,216.597 520.947,216.367 520.64,216.198 C520.333,216.028 520.022,215.948 519.707,215.955 C518.82,215.977 518.079,216.235 517.486,216.729 C516.893,217.223 516.607,217.876 516.627,218.686 C516.632,218.886 516.656,219.091 516.7,219.302 C516.621,219.768 516.591,220.377 516.61,221.129 L516.649,223.494 C516.683,224.626 516.75,225.667 516.851,226.617 C516.917,227.182 516.993,227.682 517.081,228.118 C517.182,228.546 517.315,228.978 517.48,229.411 C517.645,229.845 517.834,230.199 518.047,230.474 C518.259,230.749 518.522,230.971 518.836,231.14 C519.149,231.309 519.524,231.388 519.961,231.378 C520.399,231.367 520.802,231.289 521.172,231.145 C521.918,230.844 522.282,230.362 522.266,229.699 C522.062,229.504 521.873,229.409 521.699,229.414 C521.525,229.418 521.274,229.542 520.946,229.785" id="Fill-119" fill="#E16066"></path>
                <path d="M527.058,218.841 L526.964,218.79 L526.856,218.805 C526.619,218.839 526.378,218.885 526.139,218.944 C526.186,218.727 526.565,217.134 526.657,216.727 C526.745,216.312 526.816,215.813 526.858,215.231 C526.903,214.634 526.898,214.164 526.847,213.795 C526.798,213.443 526.755,213.177 526.718,212.988 C526.69,212.857 526.665,212.751 526.641,212.67 C526.616,212.589 526.58,212.479 526.525,212.345 C526.461,212.181 526.346,212.013 526.169,211.826 C525.945,211.595 525.646,211.481 525.281,211.49 L525.07,211.508 L524.78,211.554 L524.782,211.612 C524.675,211.673 524.579,211.76 524.5,211.872 C524.289,212.174 524.212,212.54 524.271,212.958 C524.33,213.38 524.604,213.527 524.919,213.52 L524.932,213.519 C525.087,213.497 525.45,213.381 525.464,212.787 C525.524,212.924 525.59,213.151 525.643,213.525 C525.758,214.336 525.772,215.106 525.685,215.816 C525.6,216.538 525.424,217.36 525.163,218.255 C525.133,218.353 525.088,218.557 525.025,218.866 C524.976,219.116 524.901,219.322 524.803,219.478 L524.747,219.618 L524.761,219.735 C524.787,219.933 524.901,220.095 525.08,220.19 C525.199,220.256 525.328,220.287 525.462,220.284 L525.574,220.272 L527.223,219.937 L527.297,219.858 C527.484,219.654 527.501,219.46 527.482,219.332 C527.441,219.046 527.153,218.891 527.058,218.841" id="Fill-120" fill="#E16066"></path>
                <path d="M578.373,564.428 C578.373,546.539 490.834,532.036 382.848,532.036 C274.862,532.036 187.322,546.539 187.322,564.428 C187.322,582.318 274.862,596.82 382.848,596.82 C490.834,596.82 578.373,582.318 578.373,564.428" id="Fill-121" fill="#F1F700"></path>
                <path d="M315.701,345.155 C315.699,345.156 284.866,351.696 280.817,361.04 C276.768,370.384 277.391,394.679 282.063,407.76 C286.735,420.842 320.373,502.447 320.996,509.922 C320.996,509.922 330.341,511.791 332.52,512.102 C332.52,512.102 301.685,525.807 300.44,537.954 C299.194,550.101 361.799,546.675 369.897,532.036 C369.897,532.036 364.914,516.774 361.176,512.102 C361.176,512.102 363.979,507.742 363.356,505.873 C362.734,504.004 346.225,453.235 344.045,442.333 C341.865,431.432 332.52,409.006 338.127,404.334 C343.733,399.662 382.356,398.728 382.356,398.728 L383.738,398.728 C383.738,398.728 422.361,399.662 427.968,404.334 C433.574,409.006 424.23,431.432 422.049,442.333 C419.869,453.235 403.361,504.004 402.739,505.873 C402.115,507.742 404.919,512.102 404.919,512.102 C401.181,516.774 396.198,532.036 396.198,532.036 C404.295,546.675 466.901,550.101 465.655,537.954 C464.409,525.807 433.574,512.102 433.574,512.102 C435.754,511.791 445.098,509.922 445.098,509.922 C445.721,502.447 479.36,420.842 484.032,407.76 C488.704,394.679 489.326,370.384 485.278,361.04 C481.229,351.696 450.395,345.156 450.393,345.155 C450.393,345.156 435.987,358.112 385.53,358.112 C335.073,358.112 315.702,345.156 315.701,345.155" id="Fill-122" fill="#3C7292"></path>
                <path d="M485.278,361.04 C481.229,351.696 450.395,345.156 450.393,345.155 C450.393,345.156 435.987,358.112 385.53,358.112 C335.073,358.112 315.702,345.156 315.701,345.155 C315.699,345.156 284.866,351.696 280.817,361.04 C276.768,370.384 277.391,394.679 282.063,407.76 C284.435,414.403 294.275,438.712 303.47,462.015 C316.585,455.586 332.54,452.846 346.217,450.789 C345.187,447.133 344.411,444.163 344.045,442.333 C341.865,431.432 332.52,409.006 338.127,404.334 C343.733,399.662 382.356,398.728 382.356,398.728 L383.738,398.728 C383.738,398.728 422.361,399.662 427.968,404.334 C433.574,409.006 424.23,431.432 422.049,442.333 C421.584,444.663 420.46,448.821 418.98,453.925 C419.697,454.115 420.432,454.262 421.143,454.463 C426.711,456.036 444.94,461.594 460.091,468.455 C469.931,443.372 481.44,415.019 484.032,407.76 C488.704,394.679 489.326,370.384 485.278,361.04" id="Fill-123" fill="#1F698B"></path>
                <path d="M332.52,512.102 C332.52,512.102 301.685,525.807 300.44,537.954 C299.194,550.101 361.799,546.675 369.897,532.036 C369.897,532.036 364.914,516.774 361.176,512.102 C361.176,512.102 357.809,515.996 332.52,512.102" id="Fill-124" fill="#494C4A"></path>
                <path d="M433.574,512.102 C410.135,515.528 404.919,512.102 404.919,512.102 C401.181,516.774 396.198,532.036 396.198,532.036 C404.295,546.675 466.901,550.101 465.655,537.954 C464.409,525.807 433.574,512.102 433.574,512.102" id="Fill-125" fill="#494C4A"></path>
                <path d="M402.583,142.779 L402.583,142.779 C401.882,139.275 401.959,126.504 401.959,126.504 C413.172,118.25 417.066,98.783 417.066,98.783 C417.066,98.783 422.361,91.931 422.672,87.571 C422.984,83.21 419.869,81.653 419.869,81.653 C420.711,55.952 411.933,40.619 401.322,35.806 C396.76,33.736 388.057,32.752 383.047,32.752 C378.037,32.752 369.335,33.736 364.772,35.806 C354.162,40.619 345.383,55.952 346.225,81.653 C346.225,81.653 343.111,83.21 343.422,87.571 C343.734,91.931 349.029,98.783 349.029,98.783 C349.029,98.783 352.922,118.25 364.135,126.504 C364.135,126.504 364.213,139.275 363.512,142.779 C378.444,146.205 389.111,146.049 402.583,142.779" id="Fill-126" fill="#F0ACA2"></path>
                <path d="M419.869,81.653 C420.711,55.952 411.933,40.619 401.322,35.806 C396.76,33.736 388.057,32.752 383.047,32.752 C378.037,32.752 369.335,33.736 364.772,35.806 C354.162,40.619 345.383,55.952 346.225,81.653 C346.225,81.653 343.111,83.21 343.422,87.571 C343.734,91.931 349.029,98.783 349.029,98.783 C349.029,98.783 352.922,118.25 364.135,126.504 C364.135,126.504 364.164,131.367 364.022,135.915 C368.554,138.029 374.317,139.547 383.933,139.547 C391.915,139.547 399.329,137.345 402.037,134.637 C401.936,130.502 401.959,126.504 401.959,126.504 C413.172,118.25 417.066,98.783 417.066,98.783 C417.066,98.783 422.361,91.931 422.672,87.571 C422.984,83.21 419.869,81.653 419.869,81.653" id="Fill-127" fill="#ED9E95"></path>
                <path d="M419.869,81.653 C420.711,55.952 411.933,40.619 401.322,35.806 C396.76,33.736 388.057,32.752 383.047,32.752 C378.037,32.752 369.335,33.736 364.772,35.806 C354.162,40.619 345.383,55.952 346.225,81.653 C346.225,81.653 346.362,86.013 346.596,88.427 C346.829,90.841 349.029,98.783 349.029,98.783 C349.029,98.783 352.922,118.25 364.135,126.504 C364.135,126.504 371.981,133.045 382.259,133.045 C392.537,133.045 401.959,126.504 401.959,126.504 C413.172,118.25 417.066,98.783 417.066,98.783 C417.066,98.783 418.934,90.997 419.168,88.972 C419.402,86.948 419.869,81.653 419.869,81.653" id="Fill-128" fill="#160916"></path>
                <path d="M514.478,249.534 C512.142,240.891 463.319,178.987 453.041,165.438 C442.762,151.889 412.16,149.086 412.16,149.086 C412.16,146.049 402.583,142.779 402.583,142.779 C389.111,146.049 378.444,146.205 363.512,142.779 C363.512,142.779 360.481,143.813 357.83,145.259 C355.767,146.384 353.934,147.757 353.934,149.086 C353.934,149.086 323.332,151.889 313.054,165.438 C302.776,178.987 253.953,240.891 251.617,249.534 C249.281,258.178 254.467,266.391 262.363,267.288 C272.641,268.456 292.03,270.403 299.972,265.419 C301.055,264.741 303.657,262.258 306.803,259.044 C308.692,257.116 310.775,254.924 312.843,252.701 C318.357,246.772 323.76,240.619 325.045,238.633 C325.045,238.636 324.563,244.636 323.846,252.972 C323.727,254.362 323.601,255.817 323.469,257.319 C323.338,258.822 323.201,260.372 323.06,261.954 C322.143,272.235 321.046,283.827 320.081,292.072 C319.859,293.975 319.643,295.7 319.439,297.189 C318.894,301.16 317.745,305.482 316.49,309.896 C315.234,314.31 313.872,318.817 312.898,323.158 C310.952,331.84 310.562,339.86 315.701,345.155 C315.702,345.156 335.073,358.112 385.53,358.112 C435.987,358.112 450.393,345.156 450.393,345.155 C456.175,339.198 454.96,329.792 452.401,319.875 C451.549,316.569 450.547,313.207 449.605,309.896 C448.349,305.482 447.201,301.16 446.656,297.189 C446.451,295.7 446.236,293.975 446.013,292.072 C445.791,290.17 445.562,288.088 445.329,285.887 C445.173,284.419 445.017,282.897 444.86,281.338 C444.703,279.78 444.545,278.185 444.389,276.569 C444.076,273.339 443.767,270.029 443.469,266.775 C443.321,265.149 443.175,263.536 443.035,261.954 C442.752,258.791 442.487,255.752 442.248,252.972 C441.531,244.636 441.049,238.636 441.049,238.633 C442.816,241.363 452.368,251.974 459.29,259.044 C462.438,262.258 465.041,264.741 466.122,265.419 C474.065,270.403 493.454,268.456 503.732,267.288 C506.693,266.952 509.273,265.587 511.217,263.556 C513.163,261.525 514.473,258.828 514.895,255.829 C515.176,253.829 515.062,251.695 514.478,249.534" id="Fill-129" fill="#E02020"></path>
                <path d="M412.16,149.086 C412.16,146.049 402.583,142.779 402.583,142.779 C389.111,146.049 378.443,146.205 363.512,142.779 C363.512,142.779 353.934,146.049 353.934,149.086 C353.934,149.086 362.169,152.356 383.193,152.356 C404.218,152.356 412.16,149.086 412.16,149.086" id="Fill-130" fill="#8D0000"></path>
                <path d="M388.975,355.122 C453.137,353.876 440.056,292.829 436.941,272.895 C433.826,252.961 461.236,223.06 443.17,190.667 C425.105,158.274 383.991,157.028 383.991,157.028 L382.103,157.028 C382.103,157.028 340.989,158.274 322.924,190.667 C304.859,223.06 332.268,252.961 329.154,272.895 C326.039,292.829 312.957,353.876 377.12,355.122 L388.975,355.122" id="Fill-131" fill="#494C4A"></path>
                <path d="M377.121,343.909 C362.4,343.621 351.633,339.642 345.337,332.08 C333.215,317.534 337.62,290.626 339.737,277.694 L340.23,274.625 C341.811,264.518 338.285,254.301 334.554,243.483 C329.247,228.098 323.758,212.191 332.719,196.127 C347.516,169.595 382.096,168.245 382.443,168.237 L383.724,168.241 C385.932,168.358 419.14,170.599 433.379,196.127 C442.336,212.195 436.85,228.101 431.543,243.483 C427.809,254.301 424.283,264.518 425.863,274.625 L426.356,277.694 C428.473,290.626 432.879,317.534 420.761,332.08 C414.475,339.624 403.744,343.603 388.863,343.909 L377.121,343.909" id="Fill-132" fill="#2F3231"></path>
                <path d="M475.709,401.843 L290.385,401.843 C281.483,401.843 274.267,394.626 274.267,385.724 L274.267,373.81 C274.267,369.682 277.614,366.335 281.742,366.335 L484.352,366.335 C488.481,366.335 491.828,369.682 491.828,373.81 L491.828,385.724 C491.828,394.626 484.611,401.843 475.709,401.843" id="Fill-133" fill="#2F3231"></path>
                <path d="M491.827,380.818 L491.827,373.81 C491.827,369.682 488.481,366.335 484.352,366.335 L281.742,366.335 C277.614,366.335 274.267,369.682 274.267,373.81 L274.267,380.818 L491.827,380.818" id="Fill-134" fill="#494C4A"></path>
                <polygon id="Fill-135" fill="#3D403E" points="284.58 366.335 307.94 366.335 307.94 284.284 284.58 284.284"></polygon>
                <path d="M307.37,284.284 L285.149,284.284 C280.018,284.284 275.859,280.124 275.859,274.993 L275.859,272.024 C275.859,270.226 277.317,268.768 279.115,268.768 L313.404,268.768 C315.203,268.768 316.661,270.226 316.661,272.024 L316.661,274.993 C316.661,280.124 312.501,284.284 307.37,284.284" id="Fill-136" fill="#494C4A"></path>
                <polygon id="Fill-137" fill="#3D403E" points="458.155 366.335 481.515 366.335 481.515 284.284 458.155 284.284"></polygon>
                <polygon id="Fill-138" fill="#2F3231" points="284.58 296.566 307.94 296.566 307.94 284.284 284.58 284.284"></polygon>
                <polygon id="Fill-139" fill="#2F3231" points="458.155 296.566 481.515 296.566 481.515 284.284 458.155 284.284"></polygon>
                <path d="M480.945,284.284 L458.724,284.284 C453.593,284.284 449.434,280.124 449.434,274.993 L449.434,272.024 C449.434,270.226 450.892,268.768 452.69,268.768 L486.98,268.768 C488.778,268.768 490.236,270.226 490.236,272.024 L490.236,274.993 C490.236,280.124 486.077,284.284 480.945,284.284" id="Fill-140" fill="#494C4A"></path>
                <path d="M445.185,556.019 C445.185,550.342 449.787,545.74 455.464,545.74 C461.14,545.74 465.742,550.342 465.742,556.019 C465.742,561.695 461.14,566.297 455.464,566.297 C449.787,566.297 445.185,561.695 445.185,556.019" id="Fill-141" fill="#131514"></path>
                <path d="M320.909,556.019 C320.909,550.342 316.308,545.74 310.631,545.74 C304.954,545.74 300.352,550.342 300.352,556.019 C300.352,561.695 304.954,566.297 310.631,566.297 C316.308,566.297 320.909,561.695 320.909,556.019" id="Fill-142" fill="#131514"></path>
                <path d="M383.826,527.052 C418.866,529.855 450.636,553.215 450.636,553.215 L459.046,553.215 C466.529,553.215 472.595,547.149 472.595,539.666 C437.554,509.298 384.76,504.626 384.76,504.626 L381.334,504.626 C381.334,504.626 328.54,509.298 293.5,539.666 C293.5,547.149 299.566,553.215 307.049,553.215 L315.459,553.215 C315.459,553.215 347.228,529.855 382.269,527.052 L383.826,527.052" id="Fill-143" fill="#2F3231"></path>
                <path d="M393.326,571.904 C393.326,566.227 388.724,561.626 383.047,561.626 C377.371,561.626 372.769,566.227 372.769,571.904 C372.769,577.581 377.371,582.183 383.047,582.183 C388.724,582.183 393.326,577.581 393.326,571.904" id="Fill-144" fill="#131514"></path>
                <path d="M385.072,572.994 L381.023,572.994 C376.206,572.994 372.302,569.09 372.302,564.273 L372.302,527.164 C372.302,523.748 375.071,520.978 378.488,520.978 L387.607,520.978 C391.023,520.978 393.793,523.748 393.793,527.164 L393.793,564.273 C393.793,569.09 389.888,572.994 385.072,572.994" id="Fill-145" fill="#2F3231"></path>
                <path d="M383.047,515.373 L383.047,515.373 C377.113,515.373 372.302,510.562 372.302,504.628 L372.302,399.818 C372.302,393.883 377.113,389.072 383.047,389.072 C388.982,389.072 393.793,393.883 393.793,399.818 L393.793,504.628 C393.793,510.562 388.982,515.373 383.047,515.373" id="Fill-146" fill="#3D403E"></path>
                <path d="M393.792,420.531 L393.792,399.818 C393.792,393.883 388.982,389.072 383.047,389.072 C377.113,389.072 372.301,393.883 372.301,399.818 L372.301,420.531 L393.792,420.531" id="Fill-147" fill="#2F3231"></path>
                <path d="M388.042,373.811 L377.654,373.811 C374.607,373.811 372.136,371.34 372.136,368.293 L372.136,297.278 C372.136,294.23 374.607,291.76 377.654,291.76 L388.042,291.76 C391.089,291.76 393.56,294.23 393.56,297.278 L393.56,368.293 C393.56,371.34 391.089,373.811 388.042,373.811" id="Fill-148" fill="#3D403E"></path>
                <path d="M153.487,245.23 L134.345,245.23 C134.345,243.343 135.875,241.813 137.762,241.813 L150.07,241.813 C151.958,241.813 153.487,243.343 153.487,245.23" id="Fill-149" fill="#CDCEC8"></path>
                <path d="M167.739,253.695 L120.094,253.695 C120.094,249.02 123.883,245.23 128.559,245.23 L159.274,245.23 C163.949,245.23 167.739,249.02 167.739,253.695" id="Fill-150" fill="#B6B8B4"></path>
                <path d="M179.232,262.16 L108.6,262.16 C108.6,257.485 112.39,253.695 117.065,253.695 L170.767,253.695 C175.442,253.695 179.232,257.485 179.232,262.16" id="Fill-151" fill="#A1A4A0"></path>
                <polygon id="Fill-152" fill="#8B8E8A" points="108.6 264.568 179.232 264.568 179.232 262.16 108.6 262.16"></polygon>
                <path d="M179.893,266.354 L107.94,266.354 C107.446,266.354 107.047,265.954 107.047,265.461 C107.047,264.967 107.446,264.568 107.94,264.568 L179.893,264.568 C180.386,264.568 180.786,264.967 180.786,265.461 C180.786,265.954 180.386,266.354 179.893,266.354" id="Fill-153" fill="#2F3231"></path>
                <path d="M144.637,251.705 L143.195,251.705 C142.264,251.705 141.509,251.349 141.509,250.91 L141.509,254.648 C141.509,255.087 142.264,255.442 143.195,255.442 L144.637,255.442 C145.569,255.442 146.324,255.087 146.324,254.648 L146.324,250.911 C146.323,251.349 145.569,251.705 144.637,251.705" id="Fill-154" fill="#CDCEC8"></path>
                <path d="M143.195,251.705 L144.637,251.705 C145.569,251.705 146.323,251.349 146.324,250.911 L146.324,250.91 C146.324,250.472 145.569,250.116 144.637,250.116 L143.195,250.116 C142.264,250.116 141.509,250.472 141.509,250.91 C141.509,251.349 142.264,251.705 143.195,251.705" id="Fill-155" fill="#F3F1ED"></path>
                <path d="M144.224,249.387 L143.608,249.387 C143.21,249.387 142.887,249.235 142.887,249.048 L142.887,250.645 C142.887,250.833 143.21,250.985 143.608,250.985 L144.224,250.985 C144.622,250.985 144.945,250.833 144.945,250.645 L144.945,249.048 C144.945,249.235 144.622,249.387 144.224,249.387" id="Fill-156" fill="#CDCEC8"></path>
                <path d="M143.608,249.387 L144.224,249.387 C144.622,249.387 144.945,249.235 144.945,249.048 C144.945,248.86 144.622,248.708 144.224,248.708 L143.608,248.708 C143.21,248.708 142.887,248.86 142.887,249.048 C142.887,249.235 143.21,249.387 143.608,249.387" id="Fill-157" fill="#F3F1ED"></path>
                <path d="M143.702,243.902 C141.901,243.902 140.441,243.373 140.441,241.572 C140.441,231.057 136.661,224.737 131.875,216.737 C127.56,209.523 122.669,201.346 119.341,188.328 C115.762,174.33 117.077,163.068 123.251,154.857 C132.35,142.752 148.508,142.112 149.192,142.091 C150.979,142.031 152.498,143.449 152.554,145.249 C152.61,147.047 151.201,148.551 149.403,148.611 C149.261,148.616 135.618,149.215 128.437,158.814 C123.537,165.364 122.603,174.751 125.661,186.712 C128.754,198.811 133.387,206.556 137.474,213.388 C142.566,221.902 146.964,229.255 146.964,241.572 C146.964,243.373 145.503,243.902 143.702,243.902" id="Fill-158" fill="#A1A4A0"></path>
                <path d="M148.595,149.311 C146.382,148.69 146.621,141.157 149.993,141.157 C152.051,141.157 156.326,141.522 156.326,141.522 C156.326,141.522 153.895,148.03 154.478,150.826 C154.478,150.826 150.169,149.753 148.595,149.311" id="Fill-159" fill="#8B8E8A"></path>
                <path d="M159.392,162.438 L159.392,162.438 C155.553,160.274 153.044,156.339 152.7,151.945 L152.679,151.674 C152.365,147.664 153.893,143.729 156.83,140.981 L157.342,140.502 C160.244,137.788 164.212,136.521 168.15,137.052 L173.441,137.766 L159.392,162.438" id="Fill-160" fill="#808380"></path>
                <path d="M239.093,167.099 L146.669,167.099 C145.953,167.099 145.372,167.68 145.372,168.396 C145.372,169.112 145.953,169.692 146.669,169.692 L239.093,169.692 C239.809,169.692 240.39,169.112 240.39,168.396 C240.39,167.68 239.809,167.099 239.093,167.099" id="Fill-161" fill="#CDCEC8"></path>
                <path d="M237.877,167.099 L147.884,167.099 C147.884,163.519 150.787,160.616 154.367,160.616 L231.394,160.616 C234.975,160.616 237.877,163.519 237.877,167.099" id="Fill-162" fill="#C1C2BD"></path>
                <path d="M231.556,160.616 L154.206,160.616 C154.206,157.185 156.987,154.403 160.419,154.403 L225.343,154.403 C228.774,154.403 231.556,157.185 231.556,160.616" id="Fill-163" fill="#B6B8B4"></path>
                <path d="M225.343,154.403 L160.419,154.403 C160.419,150.972 163.2,148.19 166.632,148.19 L219.13,148.19 C222.561,148.19 225.343,150.972 225.343,154.403" id="Fill-164" fill="#ABADA9"></path>
                <path d="M219.907,148.19 L165.855,148.19 L165.855,148.155 C165.855,144.743 168.621,141.977 172.032,141.977 L213.729,141.977 C217.141,141.977 219.907,144.743 219.907,148.155 L219.907,148.19" id="Fill-165" fill="#A1A4A0"></path>
                <path d="M214.415,141.977 L171.347,141.977 L171.347,141.861 C171.347,138.494 174.076,135.765 177.443,135.765 L208.319,135.765 C211.686,135.765 214.415,138.494 214.415,141.861 L214.415,141.977" id="Fill-166" fill="#959894"></path>
                <path d="M209.112,135.765 L176.65,135.765 L176.65,135.692 C176.65,132.301 179.399,129.552 182.79,129.552 L202.972,129.552 C206.363,129.552 209.112,132.301 209.112,135.692 L209.112,135.765" id="Fill-167" fill="#8B8E8A"></path>
            </g>
        </g>
    </g>
</svg>