<?xml version="1.0" encoding="UTF-8"?>
<svg width="64px" height="53px" viewBox="0 0 64 53" version="1.1" xmlns="http://www.w3.org/2000/svg" xmlns:xlink="http://www.w3.org/1999/xlink">
    <!-- Generator: sketchtool 54.1 (76490) - https://sketchapp.com -->
    <title>86CF592B-0E78-4C68-B63E-2A31A38B1197</title>
    <desc>Created with sketchtool.</desc>
    <g id="Page-1" stroke="none" stroke-width="1" fill="none" fill-rule="evenodd">
        <g id="11_Envio_RG" transform="translate(-270.000000, -507.000000)" fill="#A6A6A6" fill-rule="nonzero">
            <g id="noun_Image_777906" transform="translate(270.000000, 507.000000)">
                <g id="Group">
                    <path d="M58.55,52.13 L5.13,52.13 C2.29677923,52.13 3.46969474e-16,49.8332208 0,47 L0,5.13 C-3.46969474e-16,2.29677923 2.29677923,5.20454211e-16 5.13,0 L58.55,0 C61.3832208,1.73484737e-16 63.68,2.29677923 63.68,5.13 L63.68,47 C63.68,49.8332208 61.3832208,52.13 58.55,52.13 Z M5.13,4 C4.50591823,4 4,4.50591823 4,5.13 L4,47 C4,47.2996946 4.11905323,47.5871146 4.33096934,47.7990307 C4.54288544,48.0109468 4.83030537,48.13 5.13,48.13 L58.55,48.13 C59.170173,48.1245115 59.6700243,47.6201973 59.67,47 L59.67,5.13 C59.6700243,4.50980271 59.170173,4.00548847 58.55,4 L5.13,4 Z" id="Shape"></path>
                    <path d="M12.08,43.46 L51.59,43.46 C52.2355475,43.4783867 52.835134,43.1272677 53.1349529,42.5552727 C53.4347718,41.9832778 53.3823975,41.2904246 53,40.77 L47.55,33.37 C47.2621465,32.9715782 46.8150955,32.7182191 46.3253869,32.6759698 C45.8356783,32.6337204 45.3518394,32.8067674 45,33.15 L39.4,38.48 L26.4,20.83 C26.071455,20.3824075 25.5440142,20.1247472 24.9890135,20.1407185 C24.4340128,20.1566897 23.9222619,20.4442548 23.62,20.91 L10.62,40.85 C10.2783112,41.3760735 10.2561228,42.0481255 10.562368,42.5955911 C10.8686131,43.1430567 11.4529009,43.4758538 12.08,43.46 L12.08,43.46 Z" id="Path"></path>
                    <circle id="Oval" cx="44.13" cy="15.12" r="5.93"></circle>
                </g>
            </g>
        </g>
    </g>
</svg>