<?xml version="1.0" encoding="UTF-8"?>
<svg width="31px" height="31px" viewBox="0 0 31 31" version="1.1" xmlns="http://www.w3.org/2000/svg" xmlns:xlink="http://www.w3.org/1999/xlink">
    <!-- Generator: sketchtool 54.1 (76490) - https://sketchapp.com -->
    <title>9142910D-6550-4204-9E69-2BDE043D4D53</title>
    <desc>Created with sketchtool.</desc>
    <g id="Page-1" stroke="none" stroke-width="1" fill="none" fill-rule="evenodd">
        <g id="10_Detalhes" transform="translate(-581.000000, -427.000000)">
            <g id="minus-circle-off" transform="translate(582.000000, 428.000000)">
                <circle id="Oval" stroke="#FFFFFF" stroke-width="2" stroke-linecap="round" stroke-linejoin="round" cx="14.5" cy="14.5" r="14.5"></circle>
                <path d="M13.5576396,9.66385273 L13.5576396,12.789915 C12.9986091,12.4537678 12.6841104,11.8487253 12.6841104,11.2436828 C12.6491856,10.5714447 12.9986091,10 13.5576396,9.66385273 M16.4923738,16.8571671 C16.4923738,17.5294051 16.1080257,18.1344476 15.5489364,18.4705949 L15.5489364,15.277337 C16.1429504,15.5798865 16.4923738,16.1848725 16.4923738,16.8571671 M15.5489364,7.54623225 L15.5489364,6.97473108 C15.5489364,6.43694063 15.0947975,6 14.5360017,6 C13.9769712,6 13.5227149,6.43694063 13.5227149,6.97473108 L13.5227149,7.54623225 C11.8105811,7.98317287 10.6226119,9.49580734 10.6226119,11.1764872 C10.6226119,12.8571671 11.8105811,14.3697451 13.5227149,14.8067421 L13.5227149,18.3362037 C12.7540185,17.9328044 12.0551716,17.2605664 11.7756564,16.9916147 C11.600974,16.7899715 11.3214,16.6554674 11.00696,16.6554674 C10.7623695,16.6554674 10.5527624,16.7227194 10.3430379,16.8907648 C9.92376499,17.2269121 9.88884026,17.8319546 10.238205,18.2352974 C10.3780213,18.4033993 11.7756564,19.9160902 13.4877901,20.4201135 L13.4877901,21.025156 C13.4877901,21.5630029 13.9420465,22 14.501077,22 C15.0598728,22 15.5140117,21.5630029 15.5140117,21.025156 L15.5140117,20.4537678 C17.2610702,20.0168271 18.4840229,18.5378469 18.4840229,16.7899715 C18.4840229,15.0756374 17.2610702,13.5630594 15.5140117,13.1260623 L15.5140117,9.56300291 C16.3176328,9.86555239 17.0164797,10.4369406 17.2959949,10.7058923 C17.6803431,11.0756374 18.3092818,11.1092352 18.69363,10.7394901 C19.0780368,10.3697451 19.1129616,9.76470256 18.7286134,9.39495751 C18.5888558,9.22685564 17.2610702,7.91592083 15.5489364,7.54623225" id="Fill-1" fill="#FFFFFF"></path>
            </g>
        </g>
    </g>
</svg>