<?xml version="1.0" encoding="UTF-8"?>
<svg width="337px" height="273px" viewBox="0 0 337 273" version="1.1" xmlns="http://www.w3.org/2000/svg" xmlns:xlink="http://www.w3.org/1999/xlink">
    <!-- Generator: sketchtool 54.1 (76490) - https://sketchapp.com -->
    <title>CF1EAE14-B3EE-46D6-9900-1F10DB8F3680</title>
    <desc>Created with sketchtool.</desc>
    <defs>
        <polygon id="path-1" points="-2.27373675e-13 0 650.794731 0 650.794731 644.995784 -2.27373675e-13 644.995784"></polygon>
        <path d="M59.005163,1.16409267 C59.7978457,0.530003591 60.7532893,0.218543006 61.7050055,0.213579491 L61.7050055,0.213579491 C60.7532893,0.218543006 59.7978457,0.528762712 59.005163,1.16409267 M64.9316465,1.6021229 C64.0992054,0.702485748 62.9499397,0.229710915 61.7870071,0.213579491 L61.7870071,0.213579491 C62.9499397,0.229710915 64.0992054,0.702485748 64.9316465,1.6021229 M59.005163,1.16409267 L2.269955,46.5889438 L59.005163,1.16409267 C59.005163,1.16409267 59.005163,1.16409267 59.005163,1.16409267 M65.1093167,1.8068679 L126.764624,77.4520819 C127.409455,78.2425217 127.723795,79.1955167 127.723795,80.144789 L127.723795,80.144789 C127.723795,79.1955167 127.409455,78.2425217 126.764624,77.4520819 L126.764624,77.4520819 L65.1093167,1.8068679 C65.0521641,1.73613781 64.9925265,1.66788947 64.9316465,1.6021229 L64.9316465,1.6021229 C64.9925265,1.66788947 65.0521641,1.73613781 65.1093167,1.8068679 M0.659740615,49.945521 C0.659740615,48.686029 1.21014569,47.436464 2.269955,46.5889438 L2.269955,46.5889438 C1.21014569,47.436464 0.659740615,48.686029 0.659740615,49.945521 M1.62015398,52.6382281 L63.2754615,128.283442 C63.4084036,128.447238 63.5525277,128.598625 63.7041065,128.737604 L63.7041065,128.737604 C63.5525277,128.598625 63.4084036,128.447238 63.2754615,128.283442 L63.2754615,128.283442 L1.62015398,52.6382281 C0.975322755,51.8477883 0.660983064,50.8935525 0.659740615,49.945521 L0.659740615,49.945521 C0.660983064,50.8935525 0.975322755,51.8477883 1.62015398,52.6382281 M126.117308,83.5026071 L69.3808577,128.924976 C69.3547662,128.946071 69.3286748,128.967166 69.3025834,128.98702 L69.3025834,128.98702 C69.3286748,128.967166 69.3547662,128.946071 69.3808577,128.924976 L69.3808577,128.924976 L126.117308,83.5026071 C127.175875,82.6550869 127.72628,81.404281 127.723804,80.144789 L127.723804,80.144789 C127.725038,81.404281 127.175875,82.6550869 126.117308,83.5026071 M69.3025834,128.98702 C67.6140947,130.276294 65.2335617,130.138556 63.7041065,128.737604 L63.7041065,128.737604 C65.2335617,130.139797 67.6140947,130.276294 69.3025834,128.98702" id="path-3"></path>
        <linearGradient x1="68.7585745%" y1="35.0642229%" x2="31.2584707%" y2="64.9240196%" id="linearGradient-5">
            <stop stop-color="#8D9092" offset="0%"></stop>
            <stop stop-color="#CFD1D2" offset="100%"></stop>
        </linearGradient>
        <path d="M1.44762526,0.753361779 C1.93715031,0.410879224 2.50370722,0.242119704 3.06777923,0.235915309 L3.06777923,0.235915309 C2.50370722,0.242119704 1.93715031,0.410879224 1.44762526,0.753361779 M5.13894233,1.07847203 C4.59971931,0.537448864 3.88282602,0.250805855 3.15599314,0.237156188 L3.15599314,0.237156188 C3.88282602,0.250805855 4.59971931,0.537448864 5.13894233,1.07847203 M1.29356154,0.86876351 C0.589092743,1.4321225 0.223812629,2.25854779 0.225055078,3.09117749 L0.225055078,3.09117749 C0.223812629,2.25854779 0.589092743,1.4321225 1.29356154,0.86876351 L1.29356154,0.86876351 C1.29356154,0.86876351 1.29356154,0.86876351 1.29356154,0.86876351 M5.33400688,1.29562583 C5.76265192,1.82051757 5.97262586,2.45212489 5.97386831,3.0787687 L5.97386831,3.0787687 C5.97262586,2.45212489 5.76265192,1.82051757 5.33400688,1.29562583 L5.33400688,1.29562583 C5.32530974,1.28445792 5.31661259,1.27329001 5.30791545,1.2621221 L5.30791545,1.2621221 C5.31661259,1.27329001 5.32530974,1.28445792 5.33400688,1.29562583 M4.90536185,5.30118267 C5.60983064,4.73658281 5.97511076,3.91139839 5.97386831,3.0787687 L5.97386831,3.0787687 C5.97511076,3.91139839 5.60983064,4.73658281 4.90536185,5.30118267 M0.863674054,4.87432036 C0.435029021,4.34942861 0.226297527,3.71782129 0.225055078,3.09117749 L0.225055078,3.09117749 C0.226297527,3.71782129 0.435029021,4.34942861 0.863674054,4.87432036 M1.05998105,5.09147415 C0.991646339,5.02322582 0.925796522,4.95001396 0.863674054,4.87432036 L0.863674054,4.87432036 C0.925796522,4.95001396 0.991646339,5.02322582 1.05998105,5.09147415 M3.08268863,5.93278999 C2.3421888,5.92782648 1.60914368,5.64118347 1.05998105,5.09147415 L1.05998105,5.09147415 C1.60914368,5.64118347 2.3421888,5.92782648 3.08268863,5.93278999 M3.1323866,5.93278999 C3.70515576,5.92782648 4.28040982,5.75162169 4.77490467,5.3992121 L4.77490467,5.3992121 C4.28040982,5.75162169 3.70515576,5.92782648 3.1323866,5.93278999" id="path-6"></path>
        <linearGradient x1="68.2841338%" y1="9.34048018%" x2="31.7121467%" y2="90.6373962%" id="linearGradient-8">
            <stop stop-color="#D5D7D8" offset="0%"></stop>
            <stop stop-color="#AFB1B4" offset="100%"></stop>
        </linearGradient>
        <polygon id="path-9" points="0.0888624534 0.136496671 162.1283 0.136496671 162.1283 136.508615 0.0888624534 136.508615"></polygon>
    </defs>
    <g id="Page-1" stroke="none" stroke-width="1" fill="none" fill-rule="evenodd">
        <g id="10_Detalhes" transform="translate(-659.000000, -46.000000)">
            <g id="Group-6" transform="translate(302.000000, 46.000000)">
                <g id="Mesa_Animacao">
                    <g id="Group-56" transform="translate(0.000000, 65.870960)">
                        <path d="M588.502935,139.654583 C565.144887,139.027939 463.662865,102.865008 480.688149,60.7557849 C497.71219,18.646562 525.755515,0.265423981 525.755515,0.265423981 L633.567816,79.1629814 C633.567816,79.1629814 603.447116,134.554571 588.502935,139.654583" id="Fill-1" fill="#613C18"></path>
                        <path d="M538.375446,45.2689968 C533.450376,45.2689968 522.647279,42.0960696 516.440002,45.2516245 C510.231482,48.4071793 478.740361,72.8425651 482.700047,84.333103 C486.660975,95.8248818 554.909962,142.54521 562.649179,140.801776 C570.389638,139.059582 592.751242,110.425062 592.651846,102.950008 C592.551208,95.4761949 578.832082,72.812784 573.554157,68.6297815 C568.277474,64.4455381 538.375446,45.2689968 538.375446,45.2689968" id="Fill-3" fill="#2F3033"></path>
                        <path d="M528.698007,13.7150614 C527.116369,14.9348453 511.108652,35.5073753 501.610126,41.6087765 C492.111601,47.7101777 500.555287,64.4459104 502.666208,64.4459104 C504.775887,64.4459104 521.880688,58.1893993 521.880688,58.1893993 L528.698007,13.7150614 Z" id="Fill-5" fill="#414141"></path>
                        <path d="M599.232479,72.9882443 L576.119194,101.878385 C576.119194,101.878385 572.143356,120.058501 573.02301,121.103321 C573.902664,122.149382 589.909139,127.379686 596.241904,124.765154 C602.573426,122.149382 616.821835,104.367588 616.470222,103.496491 C616.118609,102.624153 620.690822,84.4936728 620.690822,84.4936728 L599.232479,72.9882443 Z" id="Fill-7" fill="#414141"></path>
                        <g id="Mesa" transform="translate(0.000000, 2.000000)">
                            <mask id="mask-2" fill="white">
                                <use xlink:href="#path-1"></use>
                            </mask>
                            <g id="Clip-10"></g>
                        </g>
                        <polygon id="Fill-12" fill="#C7C8C9" points="512.269472 111.241684 486.348251 46.9604387 407.242742 78.2951108 433.163963 142.575116"></polygon>
                        <polygon id="Fill-14" fill="#D7D8DB" points="432.536775 70.8942613 457.830559 60.8754056 482.695698 122.537156 457.401914 132.556012"></polygon>
                        <polygon id="Fill-16" fill="#F1F2F2" points="457.401541 132.555888 432.536402 70.8941372 407.242618 80.9129928 432.107757 142.575984"></polygon>
                        <polygon id="Fill-18" fill="#808184" points="432.798807 122.10533 421.978316 95.2725667 421.0676 95.6336624 431.888092 122.466426"></polygon>
                        <polygon id="Fill-20" fill="#808184" points="434.360318 119.616376 424.841913 96.0098969 423.929955 96.3697517 433.450845 119.977471"></polygon>
                        <polygon id="Fill-22" fill="#808184" points="436.105089 117.204852 427.783163 96.5640734 426.871206 96.9251691 435.194374 117.565947"></polygon>
                        <path d="M440.305686,127.809278 C439.402426,125.570733 436.824343,124.475037 434.566813,125.36971 C432.30804,126.264384 431.203502,128.819353 432.104278,131.056658 C433.007539,133.295203 435.585621,134.390899 437.844394,133.496226 C440.101925,132.602793 441.208947,130.047823 440.305686,127.809278" id="Fill-24" fill="#808184"></path>
                        <polygon id="Fill-26" fill="#808184" points="452.240034 125.960741 446.25764 111.124794 445.345682 111.485889 451.329318 126.321837"></polygon>
                        <polygon id="Fill-28" fill="#808184" points="454.887445 124.91195 448.905051 110.076003 447.993093 110.437099 453.97673 125.273046"></polygon>
                        <polygon id="Fill-30" fill="#808184" points="457.53498 123.863656 451.552587 109.027708 450.640629 109.387563 456.624265 124.224751"></polygon>
                        <polygon id="Fill-32" fill="#808184" points="462.829927 121.766074 443.426595 73.6497568 442.514637 74.0096117 461.919211 122.12717"></polygon>
                        <polygon id="Fill-34" fill="#808184" points="465.477462 120.717283 446.07413 72.600966 445.162173 72.9608209 464.566747 121.078379"></polygon>
                        <polygon id="Fill-36" fill="#808184" points="468.124873 119.669113 448.721541 71.5515548 447.809584 71.9126505 467.214158 120.030209"></polygon>
                        <polygon id="Fill-38" fill="#808184" points="470.772409 118.619702 461.980837 96.8187017 461.068879 97.1797974 469.861693 118.980797"></polygon>
                        <polygon id="Fill-40" fill="#808184" points="473.41982 117.571407 454.016488 69.4538491 453.10453 69.8149449 472.509104 117.932503"></polygon>
                        <polygon id="Fill-42" fill="#808184" points="476.067355 116.521996 464.466605 87.7547023 463.55589 88.115798 475.15664 116.884333"></polygon>
                        <polygon id="Fill-44" fill="#808184" points="478.71489 115.473826 459.311559 67.3575085 458.399601 67.7173633 477.804175 115.834922"></polygon>
                        <polygon id="Fill-46" fill="#808184" points="484.009837 113.376865 464.606505 65.2593064 463.694547 65.6204022 483.099122 113.73796"></polygon>
                        <polygon id="Fill-48" fill="#808184" points="486.657248 112.32795 467.253916 64.2116325 466.341958 64.5714873 485.746533 112.689046"></polygon>
                        <polygon id="Fill-50" fill="#808184" points="489.304783 111.279159 469.901452 63.1628417 468.989494 63.5226965 488.394068 111.640255"></polygon>
                        <polygon id="Fill-52" fill="#808184" points="491.952319 110.230989 481.651171 84.6887389 480.741698 85.0485938 491.041603 110.592084"></polygon>
                    </g>
                    <g id="Group-59" transform="translate(402.038494, 184.754448)">
                        <mask id="mask-4" fill="white">
                            <use xlink:href="#path-3"></use>
                        </mask>
                        <g id="Clip-58"></g>
                        <path d="M59.005163,1.16409267 C59.7978457,0.530003591 60.7532893,0.218543006 61.7050055,0.213579491 L61.7050055,0.213579491 C60.7532893,0.218543006 59.7978457,0.528762712 59.005163,1.16409267 M64.9316465,1.6021229 C64.0992054,0.702485748 62.9499397,0.229710915 61.7870071,0.213579491 L61.7870071,0.213579491 C62.9499397,0.229710915 64.0992054,0.702485748 64.9316465,1.6021229 M59.005163,1.16409267 L2.269955,46.5889438 L59.005163,1.16409267 C59.005163,1.16409267 59.005163,1.16409267 59.005163,1.16409267 M65.1093167,1.8068679 L126.764624,77.4520819 C127.409455,78.2425217 127.723795,79.1955167 127.723795,80.144789 L127.723795,80.144789 C127.723795,79.1955167 127.409455,78.2425217 126.764624,77.4520819 L126.764624,77.4520819 L65.1093167,1.8068679 C65.0521641,1.73613781 64.9925265,1.66788947 64.9316465,1.6021229 L64.9316465,1.6021229 C64.9925265,1.66788947 65.0521641,1.73613781 65.1093167,1.8068679 M0.659740615,49.945521 C0.659740615,48.686029 1.21014569,47.436464 2.269955,46.5889438 L2.269955,46.5889438 C1.21014569,47.436464 0.659740615,48.686029 0.659740615,49.945521 M1.62015398,52.6382281 L63.2754615,128.283442 C63.4084036,128.447238 63.5525277,128.598625 63.7041065,128.737604 L63.7041065,128.737604 C63.5525277,128.598625 63.4084036,128.447238 63.2754615,128.283442 L63.2754615,128.283442 L1.62015398,52.6382281 C0.975322755,51.8477883 0.660983064,50.8935525 0.659740615,49.945521 L0.659740615,49.945521 C0.660983064,50.8935525 0.975322755,51.8477883 1.62015398,52.6382281 M126.117308,83.5026071 L69.3808577,128.924976 C69.3547662,128.946071 69.3286748,128.967166 69.3025834,128.98702 L69.3025834,128.98702 C69.3286748,128.967166 69.3547662,128.946071 69.3808577,128.924976 L69.3808577,128.924976 L126.117308,83.5026071 C127.175875,82.6550869 127.72628,81.404281 127.723804,80.144789 L127.723804,80.144789 C127.725038,81.404281 127.175875,82.6550869 126.117308,83.5026071 M69.3025834,128.98702 C67.6140947,130.276294 65.2335617,130.138556 63.7041065,128.737604 L63.7041065,128.737604 C65.2335617,130.139797 67.6140947,130.276294 69.3025834,128.98702" id="Fill-57" fill="url(#linearGradient-5)" mask="url(#mask-4)"></path>
                    </g>
                    <g id="Group-70" transform="translate(457.706267, 209.572025)">
                        <mask id="mask-7" fill="white">
                            <use xlink:href="#path-6"></use>
                        </mask>
                        <g id="Clip-69"></g>
                        <path d="M1.44762526,0.753361779 C1.93715031,0.410879224 2.50370722,0.242119704 3.06777923,0.235915309 L3.06777923,0.235915309 C2.50370722,0.242119704 1.93715031,0.410879224 1.44762526,0.753361779 M5.13894233,1.07847203 C4.59971931,0.537448864 3.88282602,0.250805855 3.15599314,0.237156188 L3.15599314,0.237156188 C3.88282602,0.250805855 4.59971931,0.537448864 5.13894233,1.07847203 M1.29356154,0.86876351 C0.589092743,1.4321225 0.223812629,2.25854779 0.225055078,3.09117749 L0.225055078,3.09117749 C0.223812629,2.25854779 0.589092743,1.4321225 1.29356154,0.86876351 L1.29356154,0.86876351 C1.29356154,0.86876351 1.29356154,0.86876351 1.29356154,0.86876351 M5.33400688,1.29562583 C5.76265192,1.82051757 5.97262586,2.45212489 5.97386831,3.0787687 L5.97386831,3.0787687 C5.97262586,2.45212489 5.76265192,1.82051757 5.33400688,1.29562583 L5.33400688,1.29562583 C5.32530974,1.28445792 5.31661259,1.27329001 5.30791545,1.2621221 L5.30791545,1.2621221 C5.31661259,1.27329001 5.32530974,1.28445792 5.33400688,1.29562583 M4.90536185,5.30118267 C5.60983064,4.73658281 5.97511076,3.91139839 5.97386831,3.0787687 L5.97386831,3.0787687 C5.97511076,3.91139839 5.60983064,4.73658281 4.90536185,5.30118267 M0.863674054,4.87432036 C0.435029021,4.34942861 0.226297527,3.71782129 0.225055078,3.09117749 L0.225055078,3.09117749 C0.226297527,3.71782129 0.435029021,4.34942861 0.863674054,4.87432036 M1.05998105,5.09147415 C0.991646339,5.02322582 0.925796522,4.95001396 0.863674054,4.87432036 L0.863674054,4.87432036 C0.925796522,4.95001396 0.991646339,5.02322582 1.05998105,5.09147415 M3.08268863,5.93278999 C2.3421888,5.92782648 1.60914368,5.64118347 1.05998105,5.09147415 L1.05998105,5.09147415 C1.60914368,5.64118347 2.3421888,5.92782648 3.08268863,5.93278999 M3.1323866,5.93278999 C3.70515576,5.92782648 4.28040982,5.75162169 4.77490467,5.3992121 L4.77490467,5.3992121 C4.28040982,5.75162169 3.70515576,5.92782648 3.1323866,5.93278999" id="Fill-68" fill="url(#linearGradient-8)" mask="url(#mask-7)"></path>
                    </g>
                    <g id="Group-176" transform="translate(357.067868, 0.104382)">
                        <g id="Celular" transform="translate(93.426152, 201.022370)">
                            <path d="M21.876303,70.8270056 L21.876303,70.8270056 L21.6327829,70.7401441 L21.8353022,70.813356 L21.840272,70.8145969 L21.876303,70.8270056 Z M79.1880075,28.7599726 C79.2277659,28.8232574 79.2637969,28.8877831 79.3010704,28.9523088 L79.3134949,28.9771264 C79.5085595,29.3332586 79.6588958,29.7042814 79.7669889,30.0827494 L79.7719587,30.1100488 L79.7794134,30.1348663 L79.7943228,30.1820197 L79.7943228,30.1832606 L79.8067473,30.230414 L79.8154445,30.2651586 L79.8179294,30.28129 L79.8303538,30.3284434 L79.8415359,30.3768377 L79.8452632,30.3954509 L79.8527179,30.425232 L79.8626575,30.4736263 L79.8713547,30.5232614 L79.8713547,30.5245023 C79.9893874,31.1238468 79.999327,31.7368409 79.9098706,32.3349445 L79.9098706,32.3349445 L79.9086282,32.339908 L79.899931,32.3883023 L79.8924763,32.4366966 L79.8875065,32.462755 L79.8850216,32.48385 L79.8763245,32.5334851 L79.8676273,32.5818794 L79.8552028,32.6290328 L79.8465057,32.6774271 L79.8465057,32.6811497 L79.8353236,32.7258213 L79.8266265,32.7742156 L79.8129596,32.821369 C79.5421056,33.9282329 78.9246083,34.9544397 77.9940137,35.7163393 L77.9492855,35.7523248 L77.9045573,35.7883103 L77.8598291,35.8230549 L77.8126161,35.8577995 L77.8026765,35.8664856 L77.765403,35.8925441 L77.7194324,35.9272887 L77.6920985,35.9483836 L77.6722193,35.9595516 L77.6250062,35.9942962 L77.5765507,36.026559 L26.5503975,70.1805078 C25.2669474,71.0416777 23.7437044,71.2749629 22.3447064,70.956057 L22.2714019,70.9374439 L22.1993399,70.9188307 L22.1272778,70.9014584 L22.1247929,70.9014584 L22.0564582,70.8816043 L21.9993055,70.8654729 L21.9831537,70.8605094 L21.9123341,70.8369327 L21.876303,70.8270056 C21.7943014,70.8009472 21.7122997,70.7711661 21.6327829,70.7401441 L21.4315061,70.659487 L21.3905053,70.6433556 L21.3805657,70.6383921 L21.2811698,70.5949613 L21.2724726,70.5899978 L21.2327142,70.5701437 L21.1842587,70.546567 L21.1544399,70.5341582 L21.1358032,70.5242312 L21.0873477,70.4994136 L21.0376497,70.4733552 L20.9891942,70.4472967 L20.9432235,70.4224792 L20.9233444,70.4125521 L20.8935256,70.3951798 L20.7531288,70.3132818 L20.7071582,70.2847416 L20.6972186,70.2797781 L20.6922488,70.2772963 L20.5220332,70.1668581 L20.4760626,70.1358361 C20.4040005,70.0849601 20.3344234,70.0340841 20.2636037,69.9807263 L20.2536641,69.9745219 C19.8759595,69.6829154 19.5293162,69.3367102 19.2311283,68.9383881 L19.2249161,68.9297019 C19.1714907,68.8552492 19.116823,68.7807965 19.0658825,68.7013802 L1.77098733,42.9332905 L1.75110814,42.9022686 L1.73122895,42.8712466 L1.71134976,42.8414655 L1.69395547,42.8178888 L1.69271302,42.8104435 L1.67283383,42.7806625 L1.65419709,42.7496405 L1.63556035,42.7198594 L1.61568116,42.6888374 L1.59952932,42.6578154 L1.58089258,42.6280344 C0.168227645,40.1971527 0.878908684,37.0453205 3.24701718,35.4557547 L54.2744128,1.29932422 C56.7456446,-0.357249014 60.1039852,0.306621158 61.7614127,2.77472914 L77.2410894,25.8451483 L77.2423318,25.8451483 L79.0525805,28.5465415 L79.0997936,28.6172715 L79.114703,28.6408482 L79.1296124,28.6631841 L79.1296124,28.6656658 L79.1457642,28.6892425 L79.1594312,28.7128192 L79.1743406,28.7363959 L79.1880075,28.7599726 Z" id="Fill-154" fill="#E6E5E5"></path>
                            <path d="M66.0142054,19.4140118 L66.0142054,19.4140118 L66.0527948,19.4475587 L66.2085305,19.5379892 L67.1525924,19.7334359 L68.0897633,19.9317997 L68.3846964,19.7990709 L68.388831,19.4621442 L68.3709145,19.4344316 L68.8794675,19.0727094 L68.9511336,18.652645 L68.4839263,17.9058637 L68.2716847,17.5645613 L67.801721,16.8265313 L67.4048016,16.7477692 L66.8907358,17.1036572 L66.8783321,17.0744861 L66.5820207,16.9446745 L66.3546189,17.186795 L66.233338,17.8489799 L66.1575374,17.9000294 L65.8502005,18.1144374 L65.7743999,18.5388775 L65.9246229,18.7707881 L66.0348783,18.8728871 L65.9797506,19.1791841 L65.9935325,19.3527524 L66.0004235,19.3731722 L66.0073144,19.3790065 L66.0142054,19.4140118 Z M66.2292034,19.265239 L66.2236906,19.2637804 L66.2209343,19.2302336 L66.3546189,18.5111649 L66.1782103,18.6336837 L66.1272172,18.6234738 L65.9783724,18.3886461 L65.9893979,18.3332209 L66.2953566,18.1158959 L66.4442014,18.0079627 L66.4510924,18.003587 L66.4566052,17.977333 L66.5958026,17.239303 L66.6716032,17.2232589 L66.8259607,17.4668379 L67.5357299,16.9607186 L67.593614,16.9709285 L68.7499174,18.7955836 L68.7388919,18.856843 L68.0277446,19.3600452 L68.180724,19.6065414 L68.1393782,19.6721765 C67.5123006,19.5423649 66.8824666,19.4081776 66.2553891,19.2842002 L66.2292034,19.265239 Z" id="Fill-156" fill="#414344"></path>
                            <path d="M63.3064155,10.3611731 L63.3064155,10.3611731 L63.0423224,11.1854841 L63.3064155,11.241589 L63.5819909,11.2746765 L63.9471283,11.2976939 L64.2112214,10.473383 L63.9563141,10.236016 L63.6830352,10.204367 L63.3064155,10.3611731 Z M64.0435797,12.0256195 L64.0435797,12.0256195 L62.5554725,11.8414802 L62.2684148,12.7679309 L63.7473361,12.9549473 L64.0435797,12.0256195 Z M62.2569324,11.5667099 C62.9895037,11.2617292 63.9769823,11.3854478 64.4661286,11.8371644 C64.9529785,12.2946354 64.7669651,12.9146669 64.0275044,13.2182089 C63.304119,13.5260668 62.3166405,13.4052254 61.8251976,12.9448772 C61.3452371,12.491722 61.5312505,11.8731291 62.2569324,11.5667099 L62.2569324,11.5667099 Z" id="Fill-158" fill="#414344"></path>
                            <path d="M70.3913417,25.2011321 L70.3963115,25.2085774 L70.5590724,25.6180674 L70.5603149,25.6205492 L70.6013157,25.6801114 L70.6361043,25.7198195 L70.6385892,25.7272648 L71.097053,26.0511341 L71.0262334,26.2298207 L71.0349305,26.2620835 L71.061022,26.2658062 L71.4101502,26.114419 L71.6561552,26.0089443 L71.6747919,25.9890902 L71.6698221,25.9679953 L71.6648523,25.9667544 L71.4946368,25.7297465 L71.2896326,25.4617167 L71.2610563,25.4530305 L71.2374498,25.4741255 L71.2088734,25.6639799 L70.9566562,25.4803299 L70.9603836,25.4803299 L70.8982611,25.3996728 C70.6833173,25.069599 70.776501,24.6278461 71.1045077,24.4106923 C71.4362417,24.1922977 71.8810385,24.2853636 72.0972247,24.6179191 C72.3096836,24.9442702 72.2202272,25.3885048 71.8909781,25.6056586 L71.8040067,25.652812 L71.8947055,26.052375 L72.0984672,25.9406959 C72.6140837,25.6031769 72.7631776,24.9169709 72.4264738,24.4007653 C72.08977,23.8858006 71.3952408,23.7443404 70.8771394,24.0806186 C70.4932226,24.3312761 70.323007,24.7792333 70.3913417,25.2011321" id="Fill-160" fill="#414344"></path>
                            <polygon id="Fill-162" fill="#414344" points="11.2014265 47.6296446 11.73071 47.7400828 18.3989357 57.6745587 18.3007822 58.2106184 17.7677714 58.0964575 11.103273 48.1644634"></polygon>
                            <path d="M9.31476717,44.7346743 C9.72104811,44.4678854 10.262756,44.574601 10.5323675,44.9766457 C10.8032215,45.3799313 10.6963709,45.9271589 10.2975446,46.1989113 C9.89250612,46.4657003 9.3433435,46.356503 9.07373199,45.9532173 C8.80287803,45.5524135 8.90972867,45.0076677 9.31476717,44.7346743" id="Fill-164" fill="#414344"></path>
                            <path d="M77.242953,25.8457687 L79.0519593,28.5471619 C79.3899055,29.0472361 79.6284558,29.5820548 79.7800346,30.1354868 C79.6284558,29.5820548 79.3899055,29.0472361 79.0519593,28.5471619 L77.242953,25.8457687 Z" id="Fill-166" fill="#D6B384"></path>
                            <path d="M21.8350537,70.8137282 L26.5004511,70.2143838 C25.0728768,71.1475246 23.3545693,71.3150433 21.841266,70.8149691 C23.3545693,71.3150433 25.0728768,71.1475246 26.5004511,70.2143838 L21.8350537,70.8137282 Z" id="Fill-168" fill="#DCBF99"></path>
                            <polygon id="Fill-170" fill="#D0021B" points="73.1989046 35.7685803 27.9488986 66.0584324 7.5901232 35.7239087 52.8401292 5.43033391"></polygon>
                            <g id="Group-16" transform="translate(13.666943, 17.131425)" fill="#FFFFFF">
                                <polygon id="Fill-26" transform="translate(11.925992, 28.989297) rotate(4.000000) translate(-11.925992, -28.989297) " points="22.3172688 40.3732144 4.28406523 17.0371165 1.53471507 17.6053799 19.5716643 40.9414775"></polygon>
                                <polygon id="Fill-26-Copy" transform="translate(18.138239, 24.025782) rotate(4.000000) translate(-18.138239, -24.025782) " points="28.5295157 35.4096991 10.4963121 12.0736012 7.74696192 12.6418646 25.7839112 35.9779622"></polygon>
                                <polygon id="Fill-26-Copy-2" transform="translate(23.108036, 20.303145) rotate(4.000000) translate(-23.108036, -20.303145) " points="33.4993132 31.6870627 15.4661096 8.3509647 12.7167594 8.91922813 30.7537086 32.2553258"></polygon>
                                <polygon id="Fill-26-Copy-3" transform="translate(29.320283, 16.580509) rotate(4.000000) translate(-29.320283, -16.580509) " points="39.71156 27.9644262 21.6783564 4.62832823 18.9290062 5.19659166 36.9659555 28.5326893"></polygon>
                                <polygon id="Fill-26-Copy-4" transform="translate(35.532530, 12.857872) rotate(4.000000) translate(-35.532530, -12.857872) " points="45.9238069 24.2417897 27.8906032 0.905691755 25.1412531 1.47395518 43.1782023 24.8100528"></polygon>
                            </g>
                            <polygon id="Fill-172" fill="#504D4F" points="11.5254573 47.5848489 11.7304615 47.7399588 18.3986872 57.6744346 18.3005337 58.2104943 17.9725271 58.253925 17.767523 58.0963334 11.1030245 48.1643393 11.201178 47.6295205"></polygon>
                            <path d="M10.0816069,44.6340391 L10.532616,44.9765216 C10.80347,45.3798072 10.6966194,45.9270348 10.2977931,46.1987873 C10.0555155,46.355138 9.77223702,46.3824373 9.5274745,46.3017802 L9.07273803,45.9530933 C8.80312652,45.5522894 8.90997716,45.0075436 9.31501566,44.7345502 C9.54859614,44.5794404 9.83435949,44.5521411 10.0816069,44.6340391" id="Fill-174" fill="#504D4F"></path>
                        </g>
                        <g id="Xicara" transform="translate(0.000000, 172.482157)">
                            <path d="M50.0216803,44.857025 C59.0667117,32.5462662 56.4488709,15.3824303 44.1697438,6.51511018 C31.8868893,-2.34724638 14.6056611,0.442249213 5.5569023,12.7480445 C-3.49061401,25.0575625 -0.869045836,42.2201575 11.4113237,51.0837549 C23.6916933,59.9523159 40.9778914,57.1615794 50.0216803,44.857025" id="Fill-107" fill="#E6E6E6"></path>
                            <path d="M11.258254,16.8657768 C17.5065318,8.35955247 29.1855559,6.08750334 38.1473432,11.3165667 L45.7324966,0.998659278 C46.0108053,0.620191237 46.5463009,0.537052355 46.9227631,0.811286576 L49.6176358,2.75450282 C49.9940979,3.02997791 50.079827,3.56231493 49.8052456,3.93706034 L42.1455453,14.3579607 C49.2598104,21.2845463 50.3705601,32.5095362 44.323559,40.7365628 C37.6714851,49.7887738 24.877984,51.7816252 15.7472235,45.188836 C6.61646312,38.5948059 4.60369514,25.916747 11.258254,16.8657768" id="Fill-111" fill="#D0D1D1"></path>
                            <path d="M12.9484821,18.0854366 C18.9184513,9.96140294 30.4061382,8.17329656 38.6025767,14.0898068 C46.8002576,20.0112805 48.6042941,31.3951029 42.6343249,39.5166548 C36.6593858,47.6419293 25.1754263,49.4287948 16.9765029,43.5135255 C8.778822,37.5945335 6.97354307,26.2094703 12.9484821,18.0854366" id="Fill-113" fill="#A6A8AB"></path>
                            <path d="M15.8677411,20.1933175 C20.6635957,13.6687766 29.8912672,12.2330798 36.4750064,16.9844048 C43.0587456,21.7406934 44.508684,30.8834885 39.7140719,37.4080294 C34.9132475,43.9362929 25.6893034,45.3707488 19.1030793,40.6181829 C12.5193401,35.8643761 11.0706441,26.7190992 15.8677411,20.1933175" id="Fill-115" fill="#866847"></path>
                            <path d="M36.1048807,17.8195163 C40.8957655,21.2778456 42.7768338,27.2253778 41.2573182,32.5636385 C41.3517444,31.8488923 41.2163174,30.8189628 40.2074485,29.6996901 C38.33135,27.6236999 37.3821186,28.1411463 36.7248629,26.0626743 C36.0663648,23.9842023 35.5122323,20.7690852 32.5291114,19.9811272 C29.544748,19.1906874 29.2304083,20.1684999 26.1019208,20.23923 C22.9734333,20.3062374 22.5460307,18.7936062 20.5220807,20.2230986 C18.4981307,21.6550727 15.1012741,24.0040563 15.1012741,24.0040563 C18.3142482,15.6541827 28.7110645,12.4800147 36.1048807,17.8195163" id="Fill-117" fill="#E6E5E5"></path>
                        </g>
                        <path d="M38.839636,178.034593 L42.36198,178.065615 C42.36198,178.065615 46.139026,182.175406 46.5353674,182.437231 C46.9317087,182.699057 50.4938111,184.354389 49.7893423,185.662275 C49.0861159,186.970161 49.0861159,187.709725 47.3268076,187.971551 C45.5674993,188.233376 42.1457938,186.839869 42.1457938,186.839869 L38.839636,178.034593 Z" id="Fill-109" fill="#EAC09B"></path>
                        <path d="M41.2311025,172.625726 L39.9886532,175.410258 L42.3617315,178.065739 L38.1485857,183.798599 L33.4918854,176.832306 C32.6569595,173.780985 34.0683819,171.391052 37.6938492,162.390958 C37.6938492,162.390958 48.5044012,154.028675 60.5685845,141.710471 L64.4524813,133.413955 L79.45133,140.31076 C78.3219436,142.178283 76.0221698,144.957851 74.4007734,148.815743 C70.0198969,159.234162 67.7536692,164.331692 63.7181937,170.475283 C63.7181937,170.475283 56.2883465,184.474878 53.060463,186.430503 C49.8288522,188.386128 47.047008,185.941597 48.8013466,181.701514 C50.5544426,177.46019 49.6176358,175.236535 49.6176358,175.236535 L46.4928756,173.134487 C46.4456625,173.171713 41.7330521,172.609595 41.2311025,172.625726" id="Fill-119" fill="#EAC09B"></path>
                        <polygon id="Fill-121" fill="#FEFEFE" points="60.5849849 130.358291 52.202179 144.035258 75.05952 159.028797 84.4300732 145.21037"></polygon>
                        <polygon id="Fill-123" fill="#FCD4B4" points="187.733402 250.797494 217.892618 247.037631 212.737695 229.917226 208.236301 226.874591 186.878597 229.54248"></polygon>
                        <path d="M153.72135,222.783165 C156.956688,222.997837 182.342414,223.398641 182.424416,229.219604 C182.506417,234.968595 163.573974,230.187489 160.800827,229.596831 C153.608287,228.695953 152.823059,225.33193 153.72135,222.783165" id="Fill-125" fill="#EFC9AA"></path>
                        <path d="M136.24456,238.93097 L151.052072,237.605711 L157.642023,236.706074 L157.725268,236.914541 L155.500041,237.193739 C149.362341,237.915931 151.247137,244.699815 156.277814,243.985069 L160.366715,243.456455 L160.457414,243.678572 L158.325371,243.945361 C152.187671,244.668793 154.073709,251.451437 159.103144,250.737932 L163.088921,250.19939 L163.193287,250.456252 L161.53089,250.66472 C155.39319,251.388152 157.277986,258.170796 162.308663,257.45729 L165.829765,256.979552 C174.516971,256.289623 185.328765,254.372466 190.974455,249.54917 C197.549497,242.460029 191.380736,231.866646 186.670611,229.670291 C182.99793,227.956637 180.570184,226.331086 177.949858,226.636342 L135.311481,233.490957 C129.173781,234.208185 131.215125,239.655643 136.24456,238.93097" id="Fill-127" fill="#FCD4B4"></path>
                        <path d="M191.576049,225.842428 C190.783366,226.017392 183.060301,227.910973 183.060301,227.910973 L188.496017,254.780963 L204.855348,251.64278 L191.576049,225.842428 Z" id="Fill-129" fill="#FEFEFE"></path>
                        <path d="M82.4248841,154.849269 C82.4248841,154.849269 113.681183,109.011205 122.001866,92.7383198 C122.001866,92.7383198 150.671386,74.0742614 160.842076,70.5725014 C162.26965,70.8355677 163.620193,71.2946929 164.909855,71.9114097 C163.140607,80.0031805 160.966321,92.1910923 159.650567,107.671056 C154.448432,126.057157 214.850108,178.026403 235.58286,168.71733 C256.223672,161.16286 267.449202,154.202771 273.088679,149.894439 C274.370887,162.434761 273.543416,183.99503 271.090821,194.06228 C270.247198,199.48368 184.924472,225.457755 184.924472,225.457755 L198.1168,256.95126 C198.1168,256.95126 282.320078,239.199248 295.921171,218.042264 C311.205784,177.463044 325.689016,123.762772 302.547154,96.3939489 C294.756996,82.6338436 278.141721,68.0125684 257.1816,56.4488186 C255.17256,54.9299829 253.192095,53.4359648 251.23648,51.9543555 L251.067507,52.1801955 C239.844462,44.289447 194.189417,11.1790773 183.649719,17.8115747 C143.785731,34.5448256 107.244053,62.8678848 101.398328,69.8354194 C81.1078878,95.8318308 52.6818887,136.313021 52.6818887,136.313021 L82.4248841,154.849269 Z" id="Fill-131" fill="#414141"></path>
                        <path d="M196.24244,252.474045 L198.117297,256.951136 C198.117297,256.951136 282.319333,239.199123 295.921668,218.042139 C311.205038,177.46292 325.689513,123.762648 302.547651,96.3938248 C294.757493,82.6337195 278.142218,68.0124443 257.182097,56.4486945 C255.173056,54.9298588 253.192592,53.4358407 251.236977,51.9542314 L251.068004,52.1800714 C239.844959,44.2905638 194.189914,11.1789532 183.648974,17.8114506 C143.784986,34.5447015 107.243307,62.8677607 101.398825,69.8352953 C81.1083848,95.8329475 52.6811432,136.314137 52.6811432,136.314137 L59.7084368,140.693199 C70.6767799,124.525789 101.390128,79.3900622 105.081445,75.5768416 C109.585324,70.923546 173.109276,34.7829502 173.109276,34.7829502 C173.109276,34.7829502 191.124792,28.5785561 207.276633,35.4033897 C223.428475,42.2282232 304.498296,120.093369 306.36197,136.535014 C308.225645,152.976658 290.831353,211.918402 282.755432,219.363675 C275.981599,225.609019 215.548861,246.047534 196.24244,252.474045" id="Fill-133" fill="#36363A"></path>
                        <path d="M164.812447,123.956349 C166.620211,126.704896 168.816862,129.566362 171.305488,132.461333 C176.102585,136.937183 182.270103,142.987708 188.48732,149.066773 C198.49525,157.281391 209.561746,164.263816 219.051574,167.645211 C221.142617,160.051033 222.510554,147.340711 224.221406,144.192601 C226.683941,139.660912 246.564373,114.173261 246.564373,114.173261 L209.47726,67.3151945 C207.548978,70.0401644 190.804488,96.0427802 183.416884,107.200763 C178.396146,114.783773 169.344903,121.142036 164.812447,123.956349" id="Fill-135" fill="#FEFEFE"></path>
                        <g id="Boneco" transform="translate(173.942912, 0.000000)">
                            <mask id="mask-10" fill="white">
                                <use xlink:href="#path-9"></use>
                            </mask>
                            <g id="Clip-138"></g>
                            <path d="M160.232033,133.535065 C157.13585,137.266388 151.2367,137.518286 147.054615,134.108351 C147.054615,134.108351 131.295388,95.566655 87.7226882,60.0489804 C44.1549586,24.5275831 3.90581133,17.3974934 3.90581133,17.3974934 C-0.277515692,13.9838357 -1.15841229,8.19761778 1.94149888,4.46257252 C14.2715664,-10.3758565 75.4895317,15.8352269 104.400086,39.4888591 C133.99026,63.6996459 170.958099,120.454962 160.232033,133.535065" id="Fill-137" fill="#302E30" mask="url(#mask-10)"></path>
                        </g>
                        <path d="M211.002615,108.276356 C210.981493,108.312342 210.954159,108.337159 210.925583,108.370663 C208.573626,111.510087 210.149052,120.570984 212.448826,122.082374 C214.224286,123.861794 223.244468,122.79712 225.601395,119.655215 C225.704518,119.5212 225.793974,119.371054 225.884673,119.22463 C243.419361,128.348812 256.432776,121.559964 265.923847,108.917891 C276.769187,94.4628932 272.926291,73.431238 257.342249,61.9431819 C241.750752,50.452644 220.32844,52.8611898 209.476887,67.3149463 C199.975877,79.9781147 196.849874,94.0881478 211.002615,108.276356" id="Fill-140" fill="#E4B286"></path>
                        <path d="M283.313416,92.2152894 C287.888115,92.7376994 290.833963,95.0916465 290.745749,97.3140605 C290.657535,99.5377154 282.698404,107.643136 279.796042,107.991823 C276.893681,108.34051 275.662413,108.165546 277.421722,104.593056 C279.18103,101.018084 283.313416,92.2152894 283.313416,92.2152894" id="Fill-142" fill="#E4B286"></path>
                        <path d="M218.05687,45.2332594 C217.969898,43.8385116 215.506121,39.8292322 213.746813,40.7003291 C211.988747,41.571426 208.383159,47.0635557 207.327077,51.7702091 C206.272237,56.4781034 205.919382,59.441322 208.206731,58.2215381 C210.492838,57.0005133 218.05687,45.2332594 218.05687,45.2332594" id="Fill-144" fill="#E4B286"></path>
                        <path d="M202.175633,73.8959472 C201.356859,51.1717332 241.082935,-0.072839587 278.291809,27.3580277 C313.030693,52.9623214 298.636917,83.0486694 286.926832,98.0360038 C280.566734,106.17741 269.945034,119.964814 258.577865,121.32854 C256.917952,123.322633 253.462701,124.322781 248.52148,124.454314 C243.577774,124.587088 237.232585,121.937812 237.232585,121.937812 C237.232585,121.937812 238.94965,124.034897 239.870305,124.727307 C240.79096,125.419718 237.144371,124.37862 231.936023,121.817446 C226.728918,119.256273 218.763575,111.739029 218.763575,111.739029 L219.553773,114.962832 C219.553773,114.962832 216.651411,113.133776 212.869395,107.641647 C209.087379,102.150758 205.794888,93.1878902 205.483033,93.6073073 C205.169936,94.0267243 203.020499,99.099437 203.020499,99.7087085 C203.020499,100.319221 199.677067,91.4283241 200.118137,82.6242888 C200.264746,79.6970557 201.110854,76.6544208 202.175633,73.8959472" id="Fill-146" fill="#434242"></path>
                        <path d="M270.115995,78.9860321 C257.757351,87.5667092 240.426425,89.02226 226.094771,88.3112365 C214.618267,87.742914 205.067558,85.7823254 201.540245,84.9782359 C200.592256,84.762323 200.080367,84.6307899 200.080367,84.6307899 C200.096518,86.206706 200.218278,87.762768 200.404646,89.2418956 C201.169995,95.3581873 203.020002,100.16287 203.020002,99.7087085 C203.020002,99.5064452 203.25731,98.8115531 203.585316,97.9578284 C204.245057,96.241693 205.275047,93.8877459 205.482536,93.6073073 C205.794391,93.1878902 209.088124,102.149517 212.87014,107.641647 C216.652156,113.133776 219.554518,114.962832 219.554518,114.962832 L218.763078,111.739029 C218.763078,111.739029 226.728421,119.256273 231.936768,121.817446 C234.737249,123.194822 237.087963,124.132926 238.51678,124.598256 C239.746805,124.997819 240.295968,125.047454 239.869808,124.727307 C239.626288,124.543657 239.326857,124.261978 239.017487,123.945554 C238.802544,123.725918 238.58263,123.490151 238.375141,123.260589 C237.752674,122.573142 237.232088,121.937812 237.232088,121.937812 C237.232088,121.937812 238.270775,122.372119 239.835019,122.879639 C240.381697,123.057084 240.992982,123.243216 241.645268,123.423144 C243.742522,124.001393 246.277119,124.513876 248.520983,124.454314 C253.463446,124.322781 256.917455,123.322633 258.57861,121.32854 C265.88297,120.45248 272.881687,114.445385 278.636713,108.102013 C281.837262,104.575435 284.653895,100.945865 286.926335,98.0360038 C287.750079,96.9800159 288.588732,95.8495753 289.422416,94.6521273 C290.41389,93.2263575 291.396668,91.7050401 292.344657,90.1005837 C293.19325,88.6586825 294.013266,87.148533 294.782342,85.5788213 C298.268655,78.4487316 300.685219,70.0827265 299.964599,61.2588372 C299.327222,53.4276509 296.221099,45.2378507 289.202502,37.2304596 C289.525539,40.7049204 289.427386,44.600039 288.601157,48.8574942 C287.35995,55.2616698 284.477467,62.4873072 278.911294,70.3383476 C278.854141,70.4190047 278.796989,70.4984209 278.739836,70.5778372 C278.056489,71.5258686 277.333383,72.4267466 276.573004,73.282953 C274.638511,75.464418 272.467952,77.3542764 270.115995,78.9860321" id="Fill-148" fill="#3E3C3C"></path>
                    </g>
                </g>
            </g>
        </g>
    </g>
</svg>