<?xml version="1.0" encoding="UTF-8"?>
<svg width="56px" height="67px" viewBox="0 0 56 67" version="1.1" xmlns="http://www.w3.org/2000/svg" xmlns:xlink="http://www.w3.org/1999/xlink">
    <!-- Generator: sketchtool 54.1 (76490) - https://sketchapp.com -->
    <title>2DA9045A-50AC-4D92-8A39-87857D2D33D0</title>
    <desc>Created with sketchtool.</desc>
    <g id="Page-1" stroke="none" stroke-width="1" fill="none" fill-rule="evenodd">
        <g id="03_RendaFamiliar" transform="translate(-484.000000, -253.000000)">
            <g id="noun_Money_549109" transform="translate(484.000000, 253.000000)">
                <g id="Icon-grana">
                    <g id="Group">
                        <g>
                            <g>
                                <path d="M37.8814189,57.1030403 C36.730868,58.3158719 35.2983091,59.4340317 33.5837424,60.4575195 C23.1594274,66.6801758 12.8981799,66.6801758 2.8,60.4575195 C2.26045353,52.530119 1.93600692,47.0696698 1.82666016,44.0761719 C1.66234855,39.5779457 -0.201180069,36.5124375 1.82666016,33.5 C5.87081511,27.4922467 12.4108709,25.6266565 21.4468275,27.9032296 L21.0081288,8 C25.836384,3.39876302 31.1030507,1.09814453 36.8081288,1.09814453 C42.513207,1.09814453 48.577164,3.39876302 55,8 L55,52.2636719 C48.4533315,55.4281619 43.2565542,57.0533247 39.409668,57.1391602 C38.9305928,57.1498497 38.4211764,57.1378098 37.8814189,57.1030403 Z" id="Combined-Shape" fill="#FFEF81"></path>
                                <path d="M56,8.375 C56,3.41547796 47.7783838,0 37.8,0 C27.8216162,0 19.6,3.41547796 19.6,8.375 C19.6,13.334522 27.8216162,16.75 37.8,16.75 C47.7783838,16.75 56,13.334522 56,8.375 Z M22.4,8.375 C22.4,5.62554741 29.2216162,2.79166667 37.8,2.79166667 C46.3783838,2.79166667 53.2,5.62554741 53.2,8.375 C53.2,11.1244526 46.3783838,13.9583333 37.8,13.9583333 C29.2216162,13.9583333 22.4,11.1244526 22.4,8.375 Z" id="Shape" fill="#D0021B" fill-rule="nonzero"></path>
                                <path d="M19.6,16.75 C19.6,21.709522 27.8216162,25.125 37.8,25.125 C47.7783838,25.125 56,21.709522 56,16.75 L56,8.375 L53.2,8.375 L53.2,16.75 C53.2,19.4994526 46.3783838,22.3333333 37.8,22.3333333 C29.2216162,22.3333333 22.4,19.4994526 22.4,16.75 L22.4,8.375 L19.6,8.375 L19.6,16.75 Z" id="Shape" fill="#D0021B" fill-rule="nonzero"></path>
                                <path d="M19.6000713,25.1502835 C19.6000238,25.1418601 19.6,25.1334323 19.6,25.125 L19.6,16.75 L22.4,16.75 L22.4,25.125 C22.4,25.2027672 22.4054574,25.2806019 22.4162577,25.3584381 C21.5100264,25.2562656 20.5686807,25.1853729 19.6000713,25.1502835 Z M33.6546946,33.2968205 C34.9881748,33.4304613 36.3762036,33.5 37.8,33.5 C47.7783838,33.5 56,30.084522 56,25.125 L56,16.75 L53.2,16.75 L53.2,25.125 C53.2,27.8744526 46.3783838,30.7083333 37.8,30.7083333 C36.3349294,30.7083333 34.9210999,30.6256749 33.5837424,30.4748953 C33.5945425,30.5527314 33.6,30.6305662 33.6,30.7083333 C33.6,30.9402237 33.6205366,31.8852877 33.6546946,33.2968205 Z" id="Shape" fill="#D0021B" fill-rule="nonzero"></path>
                                <path d="M33.8698489,41.6927815 C35.1372563,41.8127246 36.4526123,41.875 37.8,41.875 C47.7783838,41.875 56,38.459522 56,33.5 L56,25.125 L53.2,25.125 L53.2,33.5 C53.2,36.2494525 46.3783838,39.0833333 37.8,39.0833333 C36.4122184,39.0833333 35.0704144,39.009166 33.7960325,38.8731873 C33.8196202,39.7803508 33.8444086,40.7267442 33.8698489,41.6927815 Z M22.4,25.3566089 L22.4,25.125 L19.6,25.125 L19.6,25.1502809 C20.5628436,25.1851597 21.4987473,25.2554167 22.4,25.3566089 Z" id="Shape" fill="#D0021B" fill-rule="nonzero"></path>
                                <path d="M36.4,33.5 C36.4,28.540478 28.1783838,25.125 18.2,25.125 C8.2216162,25.125 0,28.540478 0,33.5 C0,38.459522 8.2216162,41.875 18.2,41.875 C28.1783838,41.875 36.4,38.459522 36.4,33.5 Z M2.8,33.5 C2.8,30.7505475 9.6216162,27.9166667 18.2,27.9166667 C26.7783838,27.9166667 33.6,30.7505475 33.6,33.5 C33.6,36.2494525 26.7783838,39.0833333 18.2,39.0833333 C9.6216162,39.0833333 2.8,36.2494525 2.8,33.5 Z" id="Shape" fill="#D0021B" fill-rule="nonzero"></path>
                                <path d="M0,41.875 C0,46.834522 8.2216162,50.25 18.2,50.25 C28.1783838,50.25 36.4,46.834522 36.4,41.875 L36.4,33.5 L33.6,33.5 L33.6,41.875 C33.6,44.6244525 26.7783838,47.4583333 18.2,47.4583333 C9.6216162,47.4583333 2.8,44.6244525 2.8,41.875 L2.8,33.5 L0,33.5 L0,41.875 Z" id="Shape" fill="#D0021B" fill-rule="nonzero"></path>
                                <path d="M0,50.25 C0,55.209522 8.2216162,58.625 18.2,58.625 C28.1783838,58.625 36.4,55.209522 36.4,50.25 L36.4,41.875 L33.6,41.875 L33.6,50.25 C33.6,52.9994525 26.7783838,55.8333333 18.2,55.8333333 C9.6216162,55.8333333 2.8,52.9994525 2.8,50.25 L2.8,41.875 L0,41.875 L0,50.25 Z" id="Shape" fill="#D0021B" fill-rule="nonzero"></path>
                                <path d="M0,58.625 C0,63.584522 8.2216162,67 18.2,67 C28.1783838,67 36.4,63.584522 36.4,58.625 L36.4,50.25 L33.6,50.25 L33.6,58.625 C33.6,61.3744525 26.7783838,64.2083333 18.2,64.2083333 C9.6216162,64.2083333 2.8,61.3744525 2.8,58.625 L2.8,50.25 L0,50.25 L0,58.625 Z" id="Shape" fill="#D0021B" fill-rule="nonzero"></path>
                                <path d="M34.0935062,50.0883042 C35.291772,50.1948205 36.5316952,50.25 37.8,50.25 C47.7783838,50.25 56,46.834522 56,41.875 L56,33.5 L53.2,33.5 L53.2,41.875 C53.2,44.6244525 46.3783838,47.4583333 37.8,47.4583333 C36.4925392,47.4583333 35.2258875,47.3925028 34.0179778,47.2711739 C34.0437171,48.2338603 34.0690722,49.1792847 34.0935062,50.0883042 Z" id="Shape" fill="#D0021B" fill-rule="nonzero"></path>
                                <path d="M34.3206805,58.4828408 C35.448259,58.5765601 36.6116719,58.625 37.8,58.625 C47.7783838,58.625 56,55.209522 56,50.25 L56,41.875 L53.2,41.875 L53.2,50.25 C53.2,52.9994525 46.3783838,55.8333333 37.8,55.8333333 C36.5739049,55.8333333 35.383698,55.7754411 34.2441677,55.6681781 C34.2832714,57.1101928 34.3109189,58.1248805 34.3206828,58.4829234 L34.3206805,58.4828408 Z" id="Shape" fill="#D0021B" fill-rule="nonzero"></path>
                            </g>
                            <path d="" id="Path-2" stroke="#979797"></path>
                        </g>
                    </g>
                </g>
            </g>
        </g>
    </g>
</svg>