<?xml version="1.0" encoding="UTF-8"?>
<svg width="110px" height="110px" viewBox="0 0 110 110" version="1.1" xmlns="http://www.w3.org/2000/svg" xmlns:xlink="http://www.w3.org/1999/xlink">
    <!-- Generator: sketchtool 54.1 (76490) - https://sketchapp.com -->
    <title>162A7A13-AA43-4C2D-A25D-EC45DC586192</title>
    <desc>Created with sketchtool.</desc>
    <defs>
        <linearGradient x1="50%" y1="0%" x2="50%" y2="100%" id="linearGradient-1">
            <stop stop-color="#FCFCFC" offset="0%"></stop>
            <stop stop-color="#F7F7F7" offset="100%"></stop>
        </linearGradient>
        <path d="M8,0 L92,0 C96.418278,-8.11624501e-16 100,3.581722 100,8 L100,92 C100,96.418278 96.418278,100 92,100 L8,100 C3.581722,100 5.41083001e-16,96.418278 0,92 L0,8 C-5.41083001e-16,3.581722 3.581722,8.11624501e-16 8,0 Z" id="path-2"></path>
        <filter x="-9.0%" y="-6.0%" width="118.0%" height="118.0%" filterUnits="objectBoundingBox" id="filter-3">
            <feOffset dx="0" dy="3" in="SourceAlpha" result="shadowOffsetOuter1"></feOffset>
            <feGaussianBlur stdDeviation="2.5" in="shadowOffsetOuter1" result="shadowBlurOuter1"></feGaussianBlur>
            <feComposite in="shadowBlurOuter1" in2="SourceAlpha" operator="out" result="shadowBlurOuter1"></feComposite>
            <feColorMatrix values="0 0 0 0 0.777078019   0 0 0 0 0.777078019   0 0 0 0 0.777078019  0 0 0 0.5 0" type="matrix" in="shadowBlurOuter1"></feColorMatrix>
        </filter>
    </defs>
    <g id="Page-1" stroke="none" stroke-width="1" fill="none" fill-rule="evenodd">
        <g id="04_Renda-FGTS" transform="translate(-514.000000, -472.000000)">
            <g id="Bt_não" transform="translate(519.000000, 474.000000)">
                <g id="Group-2">
                    <g id="Group-5-Copy-6">
                        <g id="Rectangle-4">
                            <use fill="black" fill-opacity="1" filter="url(#filter-3)" xlink:href="#path-2"></use>
                            <path stroke="#D5BFC2" stroke-width="1" d="M8,0.5 C3.85786438,0.5 0.5,3.85786438 0.5,8 L0.5,92 C0.5,96.1421356 3.85786438,99.5 8,99.5 L92,99.5 C96.1421356,99.5 99.5,96.1421356 99.5,92 L99.5,8 C99.5,3.85786438 96.1421356,0.5 92,0.5 L8,0.5 Z" stroke-linejoin="square" fill="url(#linearGradient-1)" fill-rule="evenodd"></path>
                        </g>
                    </g>
                    <text id="Não" font-family="Roboto-Regular, Roboto" font-size="15" font-weight="normal" line-spacing="17" fill="#4A4A4A">
                        <tspan x="24.7441406" y="78.4842455">Não</tspan>
                    </text>
                </g>
                <g id="icon-joia-parabens" transform="translate(41.000000, 26.000000)">
                    <g id="minus-circle-copy-2">
                        <circle id="Oval" stroke="#ED1C24" stroke-width="2" stroke-linecap="round" stroke-linejoin="round" cx="8" cy="8" r="8"></circle>
                        <path d="M5.5,10.4998075 L10,10.4998075" id="Line" stroke="#E02020" stroke-linecap="square"></path>
                        <circle id="Oval-2" fill="#ED1C24" cx="5.5" cy="4.83333333" r="1.16666667"></circle>
                        <circle id="Oval-2-Copy" fill="#ED1C24" cx="10.1666667" cy="4.83333333" r="1.16666667"></circle>
                    </g>
                </g>
            </g>
        </g>
    </g>
</svg>