<?xml version="1.0" encoding="UTF-8"?>
<svg width="14px" height="14px" viewBox="0 0 14 14" version="1.1" xmlns="http://www.w3.org/2000/svg" xmlns:xlink="http://www.w3.org/1999/xlink">
    <!-- Generator: sketchtool 54.1 (76490) - https://sketchapp.com -->
    <title>4E174D17-089F-4440-9089-273D37F4C288</title>
    <desc>Created with sketchtool.</desc>
    <g id="Page-1" stroke="none" stroke-width="1" fill="none" fill-rule="evenodd">
        <g id="02_Data_Nascimento" transform="translate(-362.000000, -675.000000)">
            <g id="minus-circle" transform="translate(363.000000, 676.000000)">
                <circle id="Oval" stroke="#ED1C24" fill="#FFEF81" stroke-linecap="round" stroke-linejoin="round" cx="6" cy="6" r="6"></circle>
                <path d="M5.34073252,7.84072581 C5.34073252,7.40165551 5.39104648,7.05197263 5.49167592,6.79166667 C5.59230535,6.53136071 5.77654324,6.27497886 6.04439512,6.02251344 C6.31224699,5.77004802 6.49056559,5.56462893 6.57935627,5.40625 C6.66814695,5.24787107 6.71254162,5.08087005 6.71254162,4.90524194 C6.71254162,4.37522136 6.48168932,4.11021505 6.0199778,4.11021505 C5.8009608,4.11021505 5.62560184,4.18156291 5.49389567,4.32426075 C5.3621895,4.4669586 5.29337776,4.66375323 5.28745838,4.91465054 L4,4.91465054 C4.00591938,4.31563321 4.18867745,3.84677589 4.54827969,3.50806452 C4.90788193,3.16935315 5.39844306,3 6.0199778,3 C6.64743192,3 7.1342935,3.16072868 7.48057714,3.48219086 C7.82686078,3.80365304 8,4.25761356 8,4.84408602 C8,5.11066442 7.94376675,5.36234201 7.83129856,5.59912634 C7.71883037,5.83591068 7.52201398,6.09856487 7.24084351,6.38709677 L6.88124306,6.74932796 C6.65630668,6.97827175 6.52756213,7.24641423 6.49500555,7.55376344 L6.4772475,7.84072581 L5.34073252,7.84072581 Z M5.21198668,9.28494624 C5.21198668,9.07481974 5.2793186,8.90154638 5.41398446,8.76512097 C5.54865032,8.62869555 5.72104963,8.56048387 5.93118757,8.56048387 C6.1413255,8.56048387 6.31372482,8.62869555 6.44839068,8.76512097 C6.58305654,8.90154638 6.65038846,9.07481974 6.65038846,9.28494624 C6.65038846,9.49193652 6.58453636,9.66285775 6.45283019,9.79771505 C6.32112402,9.93257236 6.14724488,10 5.93118757,10 C5.71513026,10 5.54125112,9.93257236 5.40954495,9.79771505 C5.27783878,9.66285775 5.21198668,9.49193652 5.21198668,9.28494624 Z" id="?" fill="#E02020" fill-rule="nonzero"></path>
            </g>
        </g>
    </g>
</svg>