<?xml version="1.0" encoding="UTF-8"?>
<svg width="144px" height="38px" viewBox="0 0 144 38" version="1.1" xmlns="http://www.w3.org/2000/svg" xmlns:xlink="http://www.w3.org/1999/xlink">
    <!-- Generator: sketchtool 54.1 (76490) - https://sketchapp.com -->
    <title>4797639C-1D0A-457E-8251-FF88C3AEFE6A</title>
    <desc>Created with sketchtool.</desc>
    <defs>
        <polygon id="path-1" points="0 0.0486875 37.9523813 0.0486875 37.9523813 38 0 38"></polygon>
        <polygon id="path-3" points="0.0824096386 0.296480345 99.2481928 0.296480345 99.2481928 21.7512597 0.0824096386 21.7512597"></polygon>
    </defs>
    <g id="Page-1" stroke="none" stroke-width="1" fill="none" fill-rule="evenodd">
        <g id="10_Detalhes" transform="translate(-52.000000, -27.000000)">
            <g id="Logo" transform="translate(52.000000, 27.000000)">
                <g id="Group-3">
                    <mask id="mask-2" fill="white">
                        <use xlink:href="#path-1"></use>
                    </mask>
                    <g id="Clip-2"></g>
                    <path d="M18.9785063,0.0486875 C8.50119375,0.0486875 -0.00011875,8.547625 -0.00011875,19.02375 C-0.00011875,29.504625 8.50119375,38 18.9785063,38 C29.4534438,38 37.9523813,29.504625 37.9523813,19.02375 C37.9523813,8.547625 29.4534438,0.0486875 18.9785063,0.0486875" id="Fill-1" fill="#FFFFFF" mask="url(#mask-2)"></path>
                </g>
                <path d="M13,17 L13,29.5431649 C13,30.6207125 13.0816953,31 14.4452009,31 L23.5547991,31 C24.9183047,31 25,30.6207125 25,29.5431649 L25,17 L13,17 Z" id="Fill-4" fill="#2EC1FF"></path>
                <path d="M19.5011888,14.4784373 L34,17 L34,13.651446 C34,12.310756 33.6540543,12.2409944 32.6732803,11.8554033 L19.5011888,7 L6.3279085,11.8554033 C5.34594572,12.2409944 5,12.310756 5,13.651446 L5,17 L19.5011888,14.4784373 Z" id="Fill-6" fill="#2FC1FF"></path>
                <g id="Group-10" transform="translate(44.000000, 8.000000)">
                    <mask id="mask-4" fill="white">
                        <use xlink:href="#path-3"></use>
                    </mask>
                    <g id="Clip-9"></g>
                    <path d="M85.5992771,13.7271769 L88.0896386,6.91188034 L88.1426506,6.91188034 L90.6306024,13.7271769 L85.5992771,13.7271769 Z M91.5944578,0.296480345 L86.619759,0.296480345 C85.019759,0.315294138 84.6016867,0.832673448 84.0715663,2.29427 L76.9812048,21.7065769 L82.233012,21.7065769 C82.6498795,21.7065769 82.7185542,21.5936941 82.8426506,21.2738597 L83.8848193,18.4188666 C84.0089157,18.0990321 84.0763855,17.9861493 84.4944578,17.9861493 L91.7354217,17.9861493 C92.153494,17.9861493 92.2209639,18.0990321 92.3450602,18.4188666 L93.3872289,21.2738597 C93.5113253,21.5936941 93.5812048,21.7065769 93.9980723,21.7065769 L99.2486747,21.7065769 L91.5944578,0.296480345 Z M66.6980723,17.0372286 L65.419759,17.0372286 L65.419759,5.05519414 L66.7559036,5.05519414 C70.4221687,5.05519414 73.0125301,7.21290103 73.0125301,11.0485631 C73.0125301,15.2216976 70.1016867,17.0372286 66.6980723,17.0372286 L66.6980723,17.0372286 Z M67.8040964,0.339987241 L59.7149398,0.339987241 L59.7149398,21.7512597 L67.8040964,21.7512597 C73.8860241,21.7512597 78.9474699,17.0666252 78.9474699,11.0485631 C78.9474699,5.02814931 73.9137349,0.339987241 67.8040964,0.339987241 L67.8040964,0.339987241 Z M52.6968675,13.4308597 L52.6390361,13.4308597 L45.066747,2.21431138 C44.1366265,0.830321724 43.5438554,0.339987241 41.7306024,0.339987241 L38.0968675,0.339987241 L38.0968675,21.7512597 L43.7992771,21.7512597 L43.7992771,8.66038724 L43.8571084,8.66038724 L51.4318072,19.8757597 C52.3607229,21.2609252 52.9522892,21.7512597 54.766747,21.7512597 L58.3992771,21.7512597 L58.3992771,0.339987241 L52.6968675,0.339987241 L52.6968675,13.4308597 Z M0.0824096386,3.17969414 C0.0824096386,4.56485966 0.188433735,5.05519414 2.00289157,5.05519414 L6.76192771,5.05519414 C7.08963855,5.05519414 7.20409639,5.07988724 7.20409639,5.48673552 L7.20409639,21.7512597 L12.9077108,21.7512597 L12.9077108,5.48673552 C12.9077108,5.07988724 13.0221687,5.05519414 13.3498795,5.05519414 L18.1077108,5.05519414 C19.9221687,5.05519414 20.0293976,4.56485966 20.0293976,3.17969414 L20.0293976,0.339987241 L0.0824096386,0.339987241 L0.0824096386,3.17969414 Z M21.2920482,2.21431138 L21.2920482,19.8757597 C21.2920482,21.2609252 21.3992771,21.7512597 23.2125301,21.7512597 L36.9848193,21.7512597 L36.9848193,17.4722976 C36.9848193,17.1512872 36.9595181,17.0372286 36.5426506,17.0372286 L27.4390361,17.0372286 C27.019759,17.0372286 26.9944578,16.9255217 26.9944578,16.6056872 L26.9944578,13.3473734 L36.193253,13.3473734 C36.6101205,13.3473734 36.6354217,13.2344907 36.6354217,12.9158321 L36.6354217,9.06488379 C36.6354217,8.74622517 36.6101205,8.63334241 36.193253,8.63334241 L26.9944578,8.63334241 L26.9944578,5.48673552 C26.9944578,5.1680769 27.019759,5.05519414 27.4390361,5.05519414 L36.5426506,5.05519414 C36.9595181,5.05519414 36.9848193,4.94113552 36.9848193,4.6224769 L36.9848193,0.339987241 L23.2125301,0.339987241 C21.3992771,0.339987241 21.2920482,0.830321724 21.2920482,2.21431138 L21.2920482,2.21431138 Z" id="Fill-8" fill="#FFFFFF" mask="url(#mask-4)"></path>
                </g>
            </g>
        </g>
    </g>
</svg>