<?xml version="1.0" encoding="UTF-8"?>
<svg width="188px" height="50px" viewBox="0 0 188 50" version="1.1" xmlns="http://www.w3.org/2000/svg" xmlns:xlink="http://www.w3.org/1999/xlink">
    <!-- Generator: sketchtool 54.1 (76490) - https://sketchapp.com -->
    <title>CFD02751-3CE8-47AC-A154-EF9D462A81E2</title>
    <desc>Created with sketchtool.</desc>
    <defs>
        <polygon id="path-1" points="0 0.0640625 49.9373437 0.0640625 49.9373437 50 0 50"></polygon>
        <polygon id="path-3" points="0.107956627 0.390815 130.015133 0.390815 130.015133 28.672115 0.107956627 28.672115"></polygon>
    </defs>
    <g id="Page-1" stroke="none" stroke-width="1" fill="none" fill-rule="evenodd">
        <g id="04_Renda-FGTS" transform="translate(-42.000000, -44.000000)">
            <g id="Logo" transform="translate(42.000000, 44.000000)">
                <g id="Group-3">
                    <mask id="mask-2" fill="white">
                        <use xlink:href="#path-1"></use>
                    </mask>
                    <g id="Clip-2"></g>
                    <path d="M24.9717187,0.0640625 C11.1857812,0.0640625 -0.00015625,11.246875 -0.00015625,25.03125 C-0.00015625,38.821875 11.1857812,50 24.9717187,50 C38.7545312,50 49.9373437,38.821875 49.9373437,25.03125 C49.9373437,11.246875 38.7545312,0.0640625 24.9717187,0.0640625" id="Fill-1" fill="#FFFFFF" mask="url(#mask-2)"></path>
                </g>
                <path d="M17,22 L17,39.0228666 C17,40.4852527 17.108927,41 18.9269345,41 L31.0730655,41 C32.891073,41 33,40.4852527 33,39.0228666 L33,22 L17,22 Z" id="Fill-4" fill="#C30F1F"></path>
                <path d="M25.0015578,18.7219685 L44,22 L44,17.6468798 C44,15.9039827 43.5466918,15.8132927 42.2615397,15.3120244 L25.0015578,9 L7.74001804,15.3120244 C6.45330819,15.8132927 6,15.9039827 6,17.6468798 L6,22 L25.0015578,18.7219685 Z" id="Fill-6" fill="#CB1120"></path>
                <g id="Group-10" transform="translate(58.000000, 10.000000)">
                    <mask id="mask-4" fill="white">
                        <use xlink:href="#path-3"></use>
                    </mask>
                    <g id="Clip-9"></g>
                    <path d="M112.135053,18.094915 L115.397427,9.111115 L115.466872,9.111115 L118.726089,18.094915 L112.135053,18.094915 Z M119.98874,0.390815 L113.471884,0.390815 C111.375884,0.415615 110.82821,1.097615 110.133752,3.024265 L100.845378,28.613215 L107.725246,28.613215 C108.271342,28.613215 108.361306,28.464415 108.523872,28.042815 L109.889113,24.279415 C110.05168,23.857815 110.140065,23.709015 110.68774,23.709015 L120.173402,23.709015 C120.721077,23.709015 120.809463,23.857815 120.972029,24.279415 L122.33727,28.042815 C122.499836,28.464415 122.591378,28.613215 123.137475,28.613215 L130.015764,28.613215 L119.98874,0.390815 Z M87.3744747,22.458165 L85.6998843,22.458165 L85.6998843,6.663665 L87.4502337,6.663665 C92.253041,6.663665 95.6464145,9.507915 95.6464145,14.564015 C95.6464145,20.064965 91.8332096,22.458165 87.3744747,22.458165 L87.3744747,22.458165 Z M88.8233663,0.448165 L78.2265711,0.448165 L78.2265711,28.672115 L88.8233663,28.672115 C96.7906916,28.672115 103.421186,22.496915 103.421186,14.564015 C103.421186,6.628015 96.8269928,0.448165 88.8233663,0.448165 L88.8233663,0.448165 Z M69.0328964,17.704315 L68.9571373,17.704315 L59.0374386,2.918865 C57.8189807,1.094515 57.0424506,0.448165 54.6670892,0.448165 L49.9068964,0.448165 L49.9068964,28.672115 L57.377053,28.672115 L57.377053,11.415965 L57.452812,11.415965 L67.3756675,26.199865 C68.592547,28.025765 69.3674988,28.672115 71.7444386,28.672115 L76.503053,28.672115 L76.503053,0.448165 L69.0328964,0.448165 L69.0328964,17.704315 Z M0.107956627,4.191415 C0.107956627,6.017315 0.246848193,6.663665 2.62378795,6.663665 L8.8581253,6.663665 C9.28742651,6.663665 9.43736627,6.696215 9.43736627,7.232515 L9.43736627,28.672115 L16.9091012,28.672115 L16.9091012,7.232515 C16.9091012,6.696215 17.059041,6.663665 17.4883422,6.663665 L23.7211012,6.663665 C26.098041,6.663665 26.2385108,6.017315 26.2385108,4.191415 L26.2385108,0.448165 L0.107956627,0.448165 L0.107956627,4.191415 Z M27.8925831,2.918865 L27.8925831,26.199865 C27.8925831,28.025765 28.033053,28.672115 30.4084145,28.672115 L48.4501133,28.672115 L48.4501133,23.031665 C48.4501133,22.608515 48.4169687,22.458165 47.8708723,22.458165 L35.9451373,22.458165 C35.3958843,22.458165 35.3627398,22.310915 35.3627398,21.889315 L35.3627398,17.594265 L47.4131614,17.594265 C47.9592578,17.594265 47.9924024,17.445465 47.9924024,17.025415 L47.9924024,11.949165 C47.9924024,11.529115 47.9592578,11.380315 47.4131614,11.380315 L35.3627398,11.380315 L35.3627398,7.232515 C35.3627398,6.812465 35.3958843,6.663665 35.9451373,6.663665 L47.8708723,6.663665 C48.4169687,6.663665 48.4501133,6.513315 48.4501133,6.093265 L48.4501133,0.448165 L30.4084145,0.448165 C28.033053,0.448165 27.8925831,1.094515 27.8925831,2.918865 L27.8925831,2.918865 Z" id="Fill-8" fill="#FFFFFF" mask="url(#mask-4)"></path>
                </g>
            </g>
        </g>
    </g>
</svg>