<?xml version="1.0" encoding="UTF-8"?>
<svg width="48px" height="48px" viewBox="0 0 48 48" version="1.1" xmlns="http://www.w3.org/2000/svg" xmlns:xlink="http://www.w3.org/1999/xlink">
    <!-- Generator: sketchtool 54.1 (76490) - https://sketchapp.com -->
    <title>2D77A953-B363-403B-BD1A-45D3C97502FF</title>
    <desc>Created with sketchtool.</desc>
    <defs>
        <path d="M0.353692833,23.786449 C0.352382253,27.9665306 1.44835495,32.0478367 3.5323413,35.6453878 L3.5323413,35.6453878 L0.154320819,47.9376327 L12.7763549,44.6391837 C16.2539795,46.528 20.1691741,47.524898 24.154157,47.5260408 L24.154157,47.5260408 L24.1644778,47.5260408 C37.2866621,47.5260408 47.9680546,36.8845714 47.9734608,23.804898 L47.9734608,23.804898 C47.9760819,17.4666122 45.5017065,11.5069388 41.0059249,7.02334694 L41.0059249,7.02334694 C36.5111263,2.5397551 30.5330785,0.0690612245 24.1634949,0.0662857143 L24.1634949,0.0662857143 C11.04,0.0662857143 0.359098976,10.7072653 0.353692833,23.786449 L0.353692833,23.786449 Z M24.1644778,47.5260408 C24.164314,47.5260408 24.1641502,47.5260408 24.1641502,47.5260408 L24.1641502,47.5260408 C24.1641502,47.5260408 24.1641502,47.5260408 24.1644778,47.5260408 L24.1644778,47.5260408 Z" id="path-1"></path>
    </defs>
    <g id="Page-1" stroke="none" stroke-width="1" fill="none" fill-rule="evenodd">
        <g id="10_Detalhes" transform="translate(-336.000000, -827.000000)">
            <g id="Whats" transform="translate(225.000000, 816.000000)">
                <g id="Group-9" transform="translate(111.000000, 11.000000)">
                    <g id="Group-10">
                        <mask id="mask-2" fill="white">
                            <use xlink:href="#path-1"></use>
                        </mask>
                        <g id="Clip-9"></g>
                        <path d="M0.353692833,23.786449 C0.352382253,27.9665306 1.44835495,32.0478367 3.5323413,35.6453878 L3.5323413,35.6453878 L0.154320819,47.9376327 L12.7763549,44.6391837 C16.2539795,46.528 20.1691741,47.524898 24.154157,47.5260408 L24.154157,47.5260408 L24.1644778,47.5260408 C37.2866621,47.5260408 47.9680546,36.8845714 47.9734608,23.804898 L47.9734608,23.804898 C47.9760819,17.4666122 45.5017065,11.5069388 41.0059249,7.02334694 L41.0059249,7.02334694 C36.5111263,2.5397551 30.5330785,0.0690612245 24.1634949,0.0662857143 L24.1634949,0.0662857143 C11.04,0.0662857143 0.359098976,10.7072653 0.353692833,23.786449 L0.353692833,23.786449 Z M24.1644778,47.5260408 C24.164314,47.5260408 24.1641502,47.5260408 24.1641502,47.5260408 L24.1641502,47.5260408 C24.1641502,47.5260408 24.1641502,47.5260408 24.1644778,47.5260408 L24.1644778,47.5260408 Z" id="Fill-8" fill="#FFFFFF" mask="url(#mask-2)"></path>
                    </g>
                    <g id="Group-18" transform="translate(11.000000, 12.000000)" fill="#28B43F">
                        <path d="M6.35555556,1.0896007 C5.89509804,0.0748471831 5.41045752,0.0546007042 4.97238562,0.0367838028 C4.61405229,0.0215584507 4.20392157,0.0225302817 3.79444444,0.0225302817 C3.38464052,0.0225302817 2.71862745,0.175269718 2.15539216,0.78493169 C1.59199346,1.39459366 0.00392156863,2.86853732 0.00392156863,5.86615 C0.00392156863,8.86424859 2.20669935,11.7609528 2.51372549,12.1678261 C2.82107843,12.5740514 6.76601307,18.9223754 13.0137255,21.3647486 C18.2060458,23.3942556 19.2625817,22.9906218 20.3897059,22.8890655 C21.5166667,22.7875092 24.0263072,21.4154458 24.5385621,19.9926852 C25.050817,18.5700866 25.050817,17.3507627 24.8970588,17.095819 C24.7434641,16.8420092 24.3336601,16.6895937 23.7187908,16.3849246 C23.1039216,16.0802556 20.0823529,14.605988 19.5187908,14.4028754 C18.9552288,14.1997627 18.5454248,14.0982063 18.1356209,14.7081923 C17.7256536,15.3175303 16.5482026,16.6895937 16.1898693,17.095819 C15.8312092,17.5030162 15.472549,17.5538754 14.8578431,17.2492063 C14.2431373,16.9435655 12.2635621,16.3008613 9.91503268,14.2251923 C8.0877451,12.6103331 6.85408497,10.615812 6.49542484,10.0058261 C6.1369281,9.39648803 6.45702614,9.06638944 6.76535948,8.76269225 C7.04133987,8.48976972 7.38006536,8.05147394 7.6874183,7.69562183 C7.99428105,7.33976972 8.09673203,7.08595986 8.30163399,6.67973451 C8.50653595,6.2726993 8.40408497,5.91700915 8.2503268,5.61234014 C8.09673203,5.30767113 6.90212418,2.29434718 6.35555556,1.0896007" id="Fill-16"></path>
                    </g>
                </g>
            </g>
        </g>
    </g>
</svg>